<?xml version="1.0" encoding="utf-8"?>
<!-- Generator: Adobe Illustrator 15.0.0, SVG Export Plug-In . SVG Version: 6.00 Build 0)  -->
<!DOCTYPE svg PUBLIC "-//W3C//DTD SVG 1.1//EN" "http://www.w3.org/Graphics/SVG/1.1/DTD/svg11.dtd">
<svg version="1.1" id="Capa_1" xmlns="http://www.w3.org/2000/svg" xmlns:xlink="http://www.w3.org/1999/xlink" x="0px" y="0px"
	 width="158.682px" height="40px" viewBox="0 0 158.682 40" enable-background="new 0 0 158.682 40" xml:space="preserve">
<g>
	<path fill="#FFFFFF" d="M109.666,7.971c-1.178-2.992-3.529-5.537-6.502-6.801c-1.943-0.848-4.143-1.064-6.223-0.684
		c-2.762,0.49-5.254,2.105-6.979,4.295c-1.781,2.248-2.77,5.113-2.736,7.982c-0.033,2.906,1.006,5.801,2.846,8.048
		c1.918,2.391,4.793,4.049,7.863,4.322c2.215,0.207,4.488-0.295,6.406-1.418c2.691-1.545,4.719-4.165,5.635-7.122
		C110.871,13.797,110.758,10.695,109.666,7.971z M104.988,19.809c-1.127,1.739-2.953,3.077-5.031,3.364
		c-2.135,0.344-4.381-0.424-5.93-1.918c-1.996-1.909-2.941-4.683-3.131-7.39c-0.195-2.838,0.299-5.834,1.916-8.223
		c1.145-1.729,2.99-3.025,5.063-3.322c2.117-0.363,4.373,0.369,5.895,1.881c1.887,1.787,2.818,4.369,3.084,6.91
		C107.148,14.1,106.67,17.268,104.988,19.809z"/>
	<path fill="#FFFFFF" d="M83.971,23.087c-0.723-0.422-1.178-1.152-1.623-1.838c-1.674-2.575-3.342-5.155-5.016-7.733
		c1.41-0.242,2.842-0.771,3.828-1.854c1.393-1.416,1.719-3.543,1.508-5.449c-0.223-1.773-1.088-3.586-2.682-4.512
		c-1.514-0.873-3.316-0.979-5.023-0.973c-3.223,0.002-6.445,0-9.666,0c-0.002,0.473,0,0.945,0.006,1.418
		c0.895-0.008,1.791-0.008,2.689,0.002c-0.01,7.049-0.002,14.1-0.004,21.151c-0.898,0-1.795,0-2.691,0c0,0.471,0,0.941,0,1.414
		c2.887,0,5.777,0,8.664,0c0-0.473,0-0.943,0-1.414c-0.914-0.002-1.83,0.008-2.742-0.01c0.016-3.098,0-6.194,0.006-9.292
		c0.939,0,1.877-0.002,2.816,0.002c1.879,2.994,3.76,5.99,5.646,8.981c0.465,0.738,1.08,1.533,2.014,1.639
		c1.516,0.186,3.049,0.053,4.57,0.094c0-0.473,0-0.943,0-1.414C85.508,23.267,84.688,23.423,83.971,23.087z M71.23,12.268
		c-0.012-3.27-0.004-6.537-0.004-9.805c1.363,0.016,2.729-0.031,4.092,0.02c1.482,0.105,2.961,0.938,3.561,2.342
		c0.691,1.664,0.656,3.67-0.234,5.254c-0.734,1.314-2.197,2.131-3.689,2.182C73.713,12.281,72.471,12.256,71.23,12.268z"/>
	<path fill="#FFFFFF" d="M151.439,1.586c-1.459-0.596-3.039-0.863-4.611-0.857c-3.514,0.004-7.023-0.004-10.535,0.002
		c0,0.471,0,0.941,0.002,1.412c0.91,0,1.822,0,2.734,0c0,7.053,0.004,14.105-0.002,21.157c-0.912-0.002-1.822,0-2.734,0
		c-0.002,0.471-0.002,0.941,0,1.414c3.637-0.002,7.273,0.006,10.912-0.004c3.059-0.041,6.107-1.283,8.246-3.484
		c1.668-1.653,2.783-3.833,3.23-6.134v-4.797C157.902,6.432,155.109,3.041,151.439,1.586z M152.309,20.448
		c-1.471,1.508-3.553,2.4-5.66,2.396c-1.461,0-2.922,0-4.383,0c0-6.731,0-13.466,0-20.2c1.518,0,3.035,0,4.553-0.002
		c2.154,0.014,4.207,1.08,5.656,2.637c1.9,2.055,2.854,4.893,2.793,7.672C155.242,15.689,154.295,18.508,152.309,20.448z"/>
	<path fill="#FFFFFF" d="M132.021,23.302c-3.031-7.763-6.039-15.536-9.068-23.3L123.105,0h-1.504
		c-3.166,7.756-6.287,15.535-9.434,23.302c-0.623-0.004-1.246-0.002-1.865-0.002c-0.002,0.471-0.002,0.941,0,1.414
		c2.324,0,4.65,0,6.977,0c-0.002-0.473-0.002-0.943,0-1.414c-1.01,0-2.016-0.002-3.021,0c0.883-2.158,1.748-4.323,2.637-6.478
		c3.076,0.008,6.152,0.004,9.23,0.004c0.834,2.16,1.678,4.313,2.516,6.474c-0.961,0-1.922-0.002-2.881,0
		c-0.002,0.471-0.002,0.941,0,1.414c2.768,0,5.531,0,8.299,0c-0.002-0.473-0.002-0.943,0-1.414
		C133.379,23.3,132.699,23.3,132.021,23.302z M117.605,15.047c1.346-3.336,2.676-6.678,4.035-10.008
		c1.352,3.309,2.561,6.678,3.852,10.014C122.861,15.041,120.234,15.051,117.605,15.047z"/>
	<path fill="#FFFFFF" d="M60.514,14.801c-1.168-1.615-3.117-2.568-5.088-2.693c1.59-0.299,3.107-1.113,4.063-2.443
		c0.949-1.242,1.199-2.918,0.814-4.42C59.719,2.73,57.326,0.807,54.75,0.74c-3.779-0.025-7.561-0.004-11.34-0.012
		c0,0.473,0,0.945,0.004,1.418c0.91-0.008,1.82-0.004,2.732-0.004c0,7.053,0.002,14.104,0,21.157c-0.912,0-1.824,0-2.736,0
		c0,0.471,0,0.941,0,1.414c3.955,0,7.908,0.002,11.861-0.002c1.863-0.02,3.752-0.789,4.949-2.244
		C62.008,20.36,62.121,17.043,60.514,14.801z M49.383,2.463c1.359,0,2.717-0.002,4.076,0c1.291-0.018,2.467,0.844,3.037,1.969
		c0.721,1.418,0.736,3.16,0.125,4.615c-0.537,1.279-1.773,2.258-3.17,2.363c-1.354,0.08-2.713,0.01-4.068,0.035
		C49.383,8.451,49.383,5.457,49.383,2.463z M56.252,22.319c-0.838,0.51-1.832,0.709-2.807,0.709
		c-1.354-0.002-2.709-0.002-4.063-0.002c-0.002-3.313,0-6.626,0-9.94c1.41,0.016,2.822-0.033,4.23,0.025
		c1.549,0.045,3.072,0.871,3.871,2.211C58.822,17.496,58.582,20.907,56.252,22.319z"/>
	<path fill="#FFFFFF" d="M19.285,24.397c2.275-1.125,4.592-2.16,6.957-3.082c3.223,1.416,6.544,2.602,9.916,3.61v-2.354
		c-2.438-0.637-4.846-1.388-7.221-2.23c2.36-0.886,4.78-1.604,7.221-2.237v-2.379c-3.373,0.998-6.697,2.18-9.914,3.6
		c-2.541-0.998-5.033-2.123-7.467-3.354c5.548-2.778,11.372-5.004,17.381-6.564V0.729c0.004,2.109,0.004,4.221-0.002,6.332
		c-6.059,1.754-11.904,4.232-17.4,7.316c-0.479,0.26-0.93,0.58-1.436,0.783c-0.557-0.207-1.055-0.535-1.574-0.816
		c-1.52-0.877-3.057-1.729-4.494-2.734c7.67-4.895,16.107-8.564,24.906-10.881V0.686h-8.186c0.396,0.002,0.792,0.008,1.188,0.031
		c-0.328,0.16-0.66,0.314-0.998,0.453c-6.303,2.553-12.275,5.908-17.771,9.912C6.729,8.652,3.229,5.967,0,2.982v0.184
		c2.967,3.086,6.238,5.871,9.648,8.459c-1.699,1.264-3.336,2.604-4.951,3.973C3.092,14.313,1.49,13.012,0,11.592v0.463l0.002-0.213
		c1.42,1.395,2.867,2.762,4.338,4.104c-1.508,1.277-2.926,2.66-4.34,4.037v0.53c1.496,1.309,2.846,2.775,4.373,4.047
		C2.877,25.882,1.418,27.249,0,28.657v0.244c1.496-1.428,3.115-2.725,4.738-4.004c1.611,1.396,3.271,2.736,4.973,4.02
		C6.281,31.501,2.992,34.286,0,37.368v0.199c3.24-3,6.789-5.656,10.469-8.094c5.797,4.232,12.134,7.715,18.81,10.35h6.88
		c-8.781-2.32-17.223-5.975-24.846-10.916c1.98-1.238,3.998-2.408,6.055-3.51c5.9,3.463,12.215,6.225,18.785,8.141
		c0.016,2.092,0.006,4.189,0.006,6.285v-8.619c-5.867-1.561-11.586-3.691-17.006-6.43C18.816,24.692,19.111,24.429,19.285,24.397z
		 M10.404,12.184c1.834,1.322,3.699,2.607,5.639,3.775c-1.912,1.199-3.795,2.445-5.625,3.764c-1.816-1.199-3.586-2.469-5.311-3.797
		C6.82,14.607,8.592,13.365,10.404,12.184z M0.662,20.901c-0.184-0.215-0.371-0.428-0.566-0.631c0.291-0.468,0.74-0.798,1.148-1.157
		c1.125-0.99,2.291-1.936,3.459-2.873c1.613,1.398,3.27,2.746,4.977,4.028c-1.684,1.281-3.352,2.586-4.936,3.986
		C3.348,23.179,2.041,21.995,0.662,20.901z M10.457,28.368c-1.814-1.207-3.6-2.457-5.314-3.803c1.707-1.316,3.488-2.537,5.273-3.742
		c1.834,1.33,3.732,2.566,5.627,3.799C14.152,25.825,12.275,27.056,10.457,28.368z M17.354,23.851
		c-2.064-1.115-4.086-2.299-6.066-3.553c1.936-1.31,3.992-2.437,6.047-3.548c2.186,1.289,4.428,2.477,6.715,3.567
		C21.76,21.382,19.537,22.585,17.354,23.851z"/>
	<path fill="#FFFFFF" d="M82.947,30.78c0.234-0.002,0.473-0.006,0.713-0.008c0.006,0.094,0.018,0.279,0.023,0.369
		c2.045,0,4.09-0.004,6.135,0.004c0.006-0.092,0.012-0.275,0.018-0.367c0.254-0.002,0.51-0.002,0.766-0.004
		c0.004,0.758,0,1.52,0.004,2.277c-0.26,0.004-0.52,0.006-0.777,0.01c-0.002-0.365,0-0.73,0.002-1.096
		c-0.732-0.002-1.463-0.008-2.195,0.008c0.014,2.412,0.002,4.826,0.006,7.24c0.41,0,0.82,0,1.23,0c0,0.146,0,0.443,0,0.592
		c-1.414,0-2.826,0-4.24,0c0-0.148,0-0.445,0-0.592c0.426,0,0.85,0,1.277,0c-0.004-2.42,0.006-4.836-0.006-7.254
		c-0.742,0.006-1.484,0.004-2.227,0.004c-0.002,0.365-0.006,0.732-0.008,1.1c-0.242-0.004-0.484-0.006-0.725-0.01
		C82.941,32.296,82.941,31.538,82.947,30.78z"/>
	<path fill="#FFFFFF" d="M134.379,30.782c0.234-0.004,0.471-0.008,0.711-0.012c0.006,0.094,0.021,0.279,0.027,0.371
		c2.045,0.002,4.088-0.004,6.135,0.004c0.004-0.09,0.014-0.275,0.018-0.367c0.252-0.002,0.508-0.002,0.766-0.004
		c0.006,0.762,0.002,1.521,0.004,2.281c-0.26,0-0.52,0.002-0.775,0.004c-0.002-0.365,0-0.73,0.002-1.096
		c-0.73,0-1.459,0.004-2.186-0.004c-0.014,2.416-0.002,4.834-0.006,7.254c0.408,0,0.818,0,1.23,0c0,0.146,0,0.443,0,0.592
		c-1.412,0-2.826,0-4.24,0c0-0.148,0-0.445,0-0.592c0.424,0,0.85,0,1.277,0c-0.002-2.42,0.004-4.836-0.004-7.252
		c-0.742,0.004-1.486,0.004-2.229,0c-0.002,0.363-0.004,0.727-0.002,1.092c-0.244,0.002-0.488,0.004-0.732,0.006
		C134.375,32.302,134.375,31.54,134.379,30.782z"/>
	<path fill="#FFFFFF" d="M153.645,31.147c-0.008-0.484,0.467-0.357,0.793-0.389c0.004,0.723,0.004,1.445,0,2.17
		c-0.246-0.006-0.488-0.012-0.73-0.018c-0.002-0.314,0.002-0.631,0.006-0.947c-0.895,0-1.791,0.004-2.686-0.004
		c-0.014,1.02-0.004,2.039-0.006,3.059c0.684,0,1.367,0,2.053,0c-0.004-0.303-0.004-0.605-0.004-0.908
		c0.256-0.002,0.518-0.004,0.777-0.006c0,0.869,0,1.734,0,2.602c-0.193,0-0.582,0-0.775,0c-0.002-0.303,0-0.605,0.004-0.908
		c-0.686-0.006-1.369-0.004-2.051-0.006c-0.008,1.063-0.004,2.127-0.004,3.193c0.928-0.002,1.855,0.004,2.787-0.004
		c-0.006-0.318-0.01-0.639-0.008-0.953c0.195,0,0.584,0.002,0.777,0.002c-0.002,0.592,0,1.184,0,1.775
		c-2.084,0-4.164,0.004-6.246-0.002c-0.002-0.146-0.004-0.439-0.006-0.584c0.32-0.004,0.639-0.008,0.963-0.01
		c-0.002-2.49,0-4.98,0-7.473c-0.326-0.002-0.645-0.004-0.963-0.008c0.002-0.146,0.004-0.439,0.006-0.588
		C150.104,31.144,151.875,31.136,153.645,31.147z"/>
	<path fill="#FFFFFF" d="M75.053,30.868c0.242,0,0.488,0,0.734,0.002c-0.004,0.76-0.004,1.518,0,2.279
		c-0.246-0.002-0.492-0.002-0.734-0.002c0-0.301,0-0.602,0.004-0.9c-0.572-0.316-1.271-0.666-1.918-0.35
		c-0.578,0.236-0.869,1.055-0.422,1.545c0.848,0.947,2.162,1.326,3.008,2.277c0.998,1.105,0.771,3.121-0.545,3.881
		c-1.023,0.6-2.313,0.451-3.338-0.066c0.131,0.561-0.453,0.398-0.797,0.451c-0.002-0.82-0.002-1.641-0.002-2.459
		c0.193,0,0.582,0,0.775-0.002c-0.002,0.33,0,0.662-0.002,0.994c0.707,0.561,1.797,0.898,2.588,0.314
		c0.518-0.346,0.572-1.133,0.146-1.574c-0.791-0.885-1.951-1.303-2.824-2.09c-1.072-0.939-0.996-2.918,0.215-3.709
		c0.918-0.611,2.105-0.549,3.115-0.229C75.057,31.142,75.053,30.96,75.053,30.868z"/>
	<path fill="#FFFFFF" d="M105.24,30.778c0.238,0,0.475-0.002,0.715-0.002c0.01,0.092,0.025,0.279,0.035,0.373
		c2.041-0.014,4.084-0.008,6.127-0.004c0.004-0.092,0.014-0.277,0.016-0.367c0.254,0,0.512,0,0.77,0c0,0.76,0,1.52,0,2.279
		c-0.26,0-0.52,0-0.775,0c-0.002-0.365-0.002-0.729,0-1.092c-0.734-0.002-1.465-0.01-2.195,0.012c0.014,2.41,0,4.82,0.006,7.232
		c0.416,0.002,0.832,0.006,1.25,0.018c-0.014,0.193-0.021,0.387-0.031,0.58c-1.41-0.006-2.82,0.004-4.23-0.006
		c0-0.145,0-0.438,0-0.584c0.426-0.004,0.852-0.004,1.279-0.006c-0.002-2.418,0.004-4.834-0.002-7.25
		c-0.744,0.004-1.486,0.004-2.229,0c-0.004,0.365-0.006,0.73-0.006,1.096c-0.244,0-0.486,0-0.729,0
		C105.24,32.3,105.24,31.538,105.24,30.778z"/>
	<path fill="#FFFFFF" d="M44.91,31.149c1.232-0.016,2.465-0.004,3.699-0.008c0,0.148-0.002,0.445-0.002,0.592
		c-0.32,0.002-0.639,0.004-0.959,0.006c0.004,2.492,0.004,4.98,0,7.473c0.318,0,0.635,0,0.953,0c0.002,0.199,0.006,0.395,0.01,0.594
		c-1.234,0-2.465,0-3.695,0c0-0.148,0-0.443,0-0.59c0.332-0.002,0.668-0.004,1.006-0.006c-0.006-2.49-0.008-4.979,0-7.469
		c-0.338-0.004-0.674-0.008-1.006-0.012C44.914,31.587,44.912,31.296,44.91,31.149z"/>
	<path fill="#FFFFFF" d="M55.174,31.142c0.883,0,1.762,0,2.643,0c1.389,1.996,2.791,3.984,4.193,5.973
		c0.012-1.793,0-3.586,0.004-5.379c-0.35,0-0.699,0-1.049,0c0-0.148,0.002-0.445,0.002-0.594c1.002,0,2.004,0,3.006,0
		c0,0.148,0,0.445,0.002,0.594c-0.367,0-0.729,0-1.094,0c0,2.736-0.002,5.473,0.002,8.207c-0.33,0.004-0.658,0.004-0.986,0.006
		c-1.488-2.088-2.947-4.199-4.467-6.262c-0.047,1.842-0.01,3.686-0.021,5.527c0.352,0,0.699,0,1.051,0.002
		c-0.002,0.146-0.002,0.441-0.004,0.59c-1.002,0-2.004,0-3.006,0c0-0.148,0-0.445,0-0.592c0.363,0,0.729,0,1.094,0
		c0-2.131,0-4.264,0-6.393c0.053-0.41-0.23-0.734-0.406-1.074c-0.32-0.008-0.643-0.014-0.963-0.018
		C55.174,31.583,55.174,31.288,55.174,31.142z"/>
	<path fill="#FFFFFF" d="M96.166,31.142c1.24-0.002,2.477,0.008,3.715-0.006c0.014,0.195,0.029,0.393,0.045,0.588
		c-0.342,0.008-0.686,0.014-1.027,0.021c0.008,2.486,0.006,4.975,0,7.463c0.336,0.004,0.672,0.008,1.01,0.012
		c0,0.145,0.002,0.438,0.002,0.582c-1.248,0.01-2.496,0.002-3.744,0.004c0-0.148,0-0.443,0-0.59c0.334-0.002,0.67-0.004,1.008-0.008
		c-0.008-2.488-0.006-4.979-0.002-7.471c-0.336-0.002-0.672-0.002-1.006-0.002C96.166,31.587,96.166,31.29,96.166,31.142z"/>
	<path fill="#FFFFFF" d="M119.145,31.147c1.248-0.01,2.494-0.004,3.74-0.006c0,0.148,0.002,0.445,0.002,0.592
		c-0.338,0-0.67,0.004-1.004,0.006c0.01,1.705-0.01,3.408,0.006,5.113c0.029,0.609,0.086,1.295,0.555,1.744
		c1.273,1.061,3.646,0.344,3.814-1.408c0.115-1.813,0.016-3.637,0.049-5.453c-0.365,0-0.729,0-1.094,0c0-0.148,0-0.445,0-0.594
		c1.031,0,2.066,0,3.102,0c0,0.148,0,0.441,0,0.588c-0.369,0.004-0.736,0.008-1.104,0.018c0.016,1.578,0.004,3.152,0.01,4.73
		c-0.004,0.934-0.166,1.98-0.914,2.623c-1.436,1.162-3.699,1.201-5.176,0.094c-0.645-0.52-0.971-1.354-0.977-2.17
		c-0.008-1.76-0.004-3.52,0.002-5.281c-0.338-0.006-0.676-0.01-1.01-0.016C119.146,31.583,119.145,31.292,119.145,31.147z"/>
	<path fill="#0160A0" d="M28.162,1.17c0.338-0.139,0.67-0.293,0.998-0.453c-0.396-0.023-0.791-0.029-1.188-0.031H0v2.297
		c3.229,2.984,6.729,5.67,10.391,8.1C15.887,7.078,21.859,3.723,28.162,1.17z"/>
	<path fill="#0160A0" d="M15.746,14.344c0.52,0.281,1.018,0.609,1.574,0.816c0.506-0.203,0.957-0.523,1.436-0.783
		c5.496-3.084,11.342-5.563,17.4-7.316c0.006-2.111,0.006-4.223,0.002-6.332c-8.799,2.316-17.236,5.986-24.906,10.881
		C12.689,12.615,14.227,13.467,15.746,14.344z"/>
	<path fill="#0160A0" d="M9.648,11.625C6.238,9.037,2.967,6.252,0,3.166v8.426c1.49,1.42,3.092,2.721,4.697,4.006
		C6.313,14.229,7.949,12.889,9.648,11.625z"/>
	<path fill="#0160A0" d="M26.244,19.324c3.217-1.42,6.541-2.602,9.914-3.6V9.406c-6.009,1.561-11.833,3.786-17.381,6.564
		C21.211,17.201,23.703,18.326,26.244,19.324z"/>
	<path fill="#0160A0" d="M0.002,11.842L0,12.055v7.928c1.414-1.377,2.832-2.76,4.34-4.037C2.869,14.604,1.422,13.236,0.002,11.842z"
		/>
	<path fill="#0160A0" d="M16.043,15.959c-1.939-1.168-3.805-2.453-5.639-3.775c-1.813,1.182-3.584,2.424-5.297,3.742
		c1.725,1.328,3.494,2.598,5.311,3.797C12.248,18.404,14.131,17.158,16.043,15.959z"/>
	<path fill="#0160A0" d="M4.703,16.24c-1.168,0.938-2.334,1.883-3.459,2.873c-0.408,0.359-0.857,0.689-1.148,1.157
		c0.195,0.203,0.383,0.416,0.566,0.631c1.379,1.094,2.686,2.277,4.082,3.354c1.584-1.4,3.252-2.705,4.936-3.986
		C7.973,18.986,6.316,17.639,4.703,16.24z"/>
	<path fill="#0160A0" d="M17.334,16.75c-2.055,1.111-4.111,2.238-6.047,3.548c1.98,1.254,4.002,2.438,6.066,3.553
		c2.184-1.266,4.406-2.469,6.695-3.533C21.762,19.227,19.52,18.039,17.334,16.75z"/>
	<path fill="#0160A0" d="M36.158,22.571v-4.468c-2.44,0.633-4.86,1.352-7.221,2.237C31.313,21.184,33.72,21.935,36.158,22.571z"/>
	<path fill="#0160A0" d="M0,20.513v8.145c1.418-1.408,2.877-2.775,4.373-4.098C2.846,23.288,1.496,21.821,0,20.513z"/>
	<path fill="#0160A0" d="M5.143,24.565c1.715,1.346,3.5,2.596,5.314,3.803c1.818-1.313,3.695-2.543,5.586-3.746
		c-1.895-1.232-3.793-2.469-5.627-3.799C8.631,22.028,6.85,23.249,5.143,24.565z"/>
	<path fill="#0160A0" d="M26.242,21.315c-2.365,0.922-4.682,1.957-6.957,3.082c-0.174,0.031-0.469,0.295-0.133,0.377
		c5.42,2.738,11.139,4.869,17.006,6.43v-6.278C32.786,23.917,29.465,22.731,26.242,21.315z"/>
	<path fill="#0160A0" d="M4.738,24.897C3.115,26.177,1.496,27.474,0,28.901v8.467c2.992-3.082,6.281-5.867,9.711-8.451
		C8.01,27.634,6.35,26.294,4.738,24.897z"/>
	<path fill="#0160A0" d="M17.367,25.397c-2.057,1.102-4.074,2.271-6.055,3.51c7.623,4.941,16.064,8.596,24.846,10.916
		c0-2.096,0.01-4.193-0.006-6.285C29.582,31.622,23.268,28.86,17.367,25.397z"/>
	<path fill="#0160A0" d="M0,37.567v2.256h29.278c-6.676-2.635-13.013-6.117-18.81-10.35C6.789,31.911,3.24,34.567,0,37.567z"/>
</g>
</svg>
