<?xml version="1.0" encoding="utf-8"?>
<!-- Generator: Adobe Illustrator 15.0.0, SVG Export Plug-In . SVG Version: 6.00 Build 0)  -->
<!DOCTYPE svg PUBLIC "-//W3C//DTD SVG 1.1//EN" "http://www.w3.org/Graphics/SVG/1.1/DTD/svg11.dtd">
<svg version="1.1" id="Capa_1" xmlns="http://www.w3.org/2000/svg" xmlns:xlink="http://www.w3.org/1999/xlink" x="0px" y="0px"
	 width="86.911px" height="25px" viewBox="0 0 86.911 25" enable-background="new 0 0 86.911 25" xml:space="preserve">
<g>
	<g>
		<path fill="#F2F2F2" d="M0,24.665V0.335h7.837c2.148,0,4.082,0.487,5.797,1.462c1.717,0.977,3.055,2.352,4.02,4.128
			c0.963,1.777,1.451,3.769,1.461,5.974v1.12c0,2.229-0.469,4.226-1.41,5.99c-0.941,1.767-2.268,3.148-3.979,4.146
			c-1.709,0.997-3.617,1.5-5.723,1.511H0z M5.864,4.863v15.291h2.039c1.683,0,2.975-0.599,3.875-1.797
			c0.904-1.198,1.355-2.978,1.355-5.339v-1.053c0-2.351-0.451-4.121-1.355-5.314c-0.9-1.191-2.215-1.788-3.941-1.788H5.864z"/>
		<path fill="#F2F2F2" d="M41.209,0.335v15.926c0,1.805-0.386,3.366-1.153,4.688c-0.771,1.32-1.873,2.325-3.311,3.017
			C35.308,24.654,33.608,25,31.649,25c-2.963,0-5.299-0.769-7.002-2.307c-1.705-1.537-2.574-3.643-2.607-6.316V0.335h5.898v16.159
			c0.066,2.664,1.303,3.994,3.711,3.994c1.213,0,2.133-0.334,2.756-1.003c0.625-0.668,0.936-1.754,0.936-3.259V0.335H41.209z"/>
		<path fill="#F2F2F2" d="M65.472,13.003c0,2.372-0.441,4.473-1.32,6.3c-0.881,1.826-2.131,3.233-3.752,4.219
			C58.778,24.508,56.931,25,54.86,25c-2.072,0-3.91-0.476-5.516-1.429c-1.604-0.953-2.854-2.315-3.752-4.086
			c-0.896-1.771-1.367-3.804-1.412-6.099v-1.371c0-2.385,0.438-4.487,1.313-6.308c0.875-1.822,2.127-3.229,3.76-4.219
			C50.886,0.496,52.743,0,54.827,0c2.061,0,3.898,0.492,5.514,1.471c1.613,0.981,2.871,2.376,3.768,4.187
			c0.898,1.812,1.352,3.885,1.363,6.225V13.003z M59.505,11.982c0-2.418-0.404-4.253-1.211-5.507
			c-0.809-1.253-1.965-1.879-3.467-1.879c-2.943,0-4.496,2.207-4.661,6.618l-0.019,1.789c0,2.383,0.396,4.216,1.187,5.496
			c0.791,1.282,1.966,1.923,3.526,1.923c1.48,0,2.623-0.63,3.426-1.89c0.801-1.258,1.207-3.068,1.219-5.43V11.982z"/>
		<path fill="#F2F2F2" d="M81.046,18.198c0-0.856-0.305-1.526-0.912-2.005c-0.605-0.479-1.672-0.975-3.199-1.487
			c-1.527-0.512-2.773-1.008-3.742-1.487c-3.154-1.548-4.73-3.677-4.73-6.383c0-1.348,0.395-2.537,1.18-3.567
			c0.785-1.031,1.895-1.833,3.334-2.407C74.413,0.287,76.026,0,77.819,0c1.75,0,3.318,0.313,4.705,0.938
			c1.387,0.623,2.465,1.512,3.232,2.664c0.77,1.154,1.154,2.472,1.154,3.952h-5.85c0-0.991-0.303-1.76-0.91-2.307
			c-0.607-0.545-1.43-0.818-2.465-0.818c-1.047,0-1.875,0.231-2.482,0.694c-0.605,0.463-0.91,1.05-0.91,1.763
			c0,0.625,0.334,1.19,1.004,1.696c0.668,0.506,1.842,1.03,3.525,1.57c1.682,0.54,3.064,1.123,4.145,1.746
			c2.629,1.516,3.943,3.604,3.943,6.267c0,2.128-0.803,3.799-2.408,5.014C82.901,24.394,80.7,25,77.903,25
			c-1.971,0-3.756-0.354-5.355-1.062c-1.598-0.706-2.803-1.677-3.609-2.907c-0.809-1.23-1.211-2.647-1.211-4.252h5.881
			c0,1.303,0.338,2.263,1.012,2.882c0.674,0.618,1.768,0.928,3.283,0.928c0.972,0,1.736-0.209,2.299-0.628
			C80.765,19.544,81.046,18.956,81.046,18.198z"/>
	</g>
</g>
</svg>
