<svg id="Layer_2" data-name="Layer 2" xmlns="http://www.w3.org/2000/svg" viewBox="0 0 1705 213.07"><defs><style>.cls-1{fill:#231f20;}.cls-2{fill:#2d5e9a;}.cls-3{fill:#e74625;}.cls-4{fill:#6a3a96;}.cls-5{fill:#5c5d5e;}.cls-6{fill:#0daba6;}.cls-7,.cls-8{fill:none;}.cls-7{stroke:#cccccb;stroke-miterlimit:10;}</style></defs><path class="cls-1" d="M155.18,37.33a.9.9,0,0,1-.21-.66V20.06a.75.75,0,0,1,.87-.87h5.37a8,8,0,0,1,6,2.24q2.2,2.25,2.2,6.93t-2.2,6.93a8,8,0,0,1-6,2.25h-5.37A.9.9,0,0,1,155.18,37.33Zm5.9-2.21A5,5,0,0,0,165,33.46a7.54,7.54,0,0,0,1.47-5.1A7.53,7.53,0,0,0,165,23.27a5,5,0,0,0-3.95-1.67h-3.3V35.12Z"/><path class="cls-1" d="M173.18,36.71a3.67,3.67,0,0,1-1.15-2.9,3.76,3.76,0,0,1,2.2-3.7A14.71,14.71,0,0,1,180.39,29V27.89a1.86,1.86,0,0,0-.63-1.47,3.07,3.07,0,0,0-2-.55,6.51,6.51,0,0,0-1.87.25,9.22,9.22,0,0,0-1.36.53,3.59,3.59,0,0,1-.64.27c-.2,0-.42-.2-.67-.61a2,2,0,0,1-.38-.93q0-.37.69-.78a7.13,7.13,0,0,1,1.84-.68,10.43,10.43,0,0,1,2.42-.27,6.07,6.07,0,0,1,3.94,1.11,3.77,3.77,0,0,1,1.35,3.08v5.61a14.91,14.91,0,0,0,.16,2.54,8.12,8.12,0,0,1,.16.89c0,.25-.22.42-.64.52a4.84,4.84,0,0,1-1.2.16.6.6,0,0,1-.59-.39,4.33,4.33,0,0,1-.26-.84l-.12-.6a5.93,5.93,0,0,1-1.77,1.41,5,5,0,0,1-2.47.58A4.64,4.64,0,0,1,173.18,36.71ZM178.79,35a6,6,0,0,0,1.6-1.28V31.09a13.9,13.9,0,0,0-4.06.48,2,2,0,0,0-1.52,2,1.8,1.8,0,0,0,.51,1.38,2,2,0,0,0,1.45.48A4.08,4.08,0,0,0,178.79,35Z"/><path class="cls-1" d="M188.68,36.84a3.63,3.63,0,0,1-1-2.92V26.06H186.6a.51.51,0,0,1-.46-.23,1.4,1.4,0,0,1-.14-.72v-.34a1.45,1.45,0,0,1,.14-.72.51.51,0,0,1,.46-.22h1.05l.34-2.67c0-.44.38-.66,1-.66h.41c.63,0,.95.22.95.66v2.67h1.94a.51.51,0,0,1,.46.22,1.45,1.45,0,0,1,.14.72v.34a1.4,1.4,0,0,1-.14.72.51.51,0,0,1-.46.23h-1.94v7.73a2,2,0,0,0,.33,1.32,1.18,1.18,0,0,0,.95.38,2.71,2.71,0,0,0,.62-.06,1.34,1.34,0,0,1,.38-.07c.17,0,.32.19.44.56a2.86,2.86,0,0,1,.19.86c0,.62-.7.94-2.1.94A3.69,3.69,0,0,1,188.68,36.84Z"/><path class="cls-1" d="M196.43,36.71a3.64,3.64,0,0,1-1.16-2.9,3.77,3.77,0,0,1,2.21-3.7A14.66,14.66,0,0,1,203.63,29V27.89a1.89,1.89,0,0,0-.62-1.47,3.09,3.09,0,0,0-2-.55,6.58,6.58,0,0,0-1.88.25,9.68,9.68,0,0,0-1.36.53,3.29,3.29,0,0,1-.64.27c-.19,0-.42-.2-.67-.61a2.1,2.1,0,0,1-.38-.93c0-.25.23-.51.7-.78a7,7,0,0,1,1.83-.68,10.5,10.5,0,0,1,2.42-.27,6.1,6.1,0,0,1,4,1.11,3.77,3.77,0,0,1,1.35,3.08v5.61a15.17,15.17,0,0,0,.15,2.54,8.12,8.12,0,0,1,.16.89c0,.25-.21.42-.64.52a4.83,4.83,0,0,1-1.19.16.59.59,0,0,1-.59-.39,3.74,3.74,0,0,1-.26-.84,6,6,0,0,1-.12-.6,5.93,5.93,0,0,1-1.77,1.41,5.05,5.05,0,0,1-2.48.58A4.61,4.61,0,0,1,196.43,36.71ZM202,35a6.09,6.09,0,0,0,1.59-1.28V31.09a13.94,13.94,0,0,0-4.06.48,2,2,0,0,0-1.52,2,1.8,1.8,0,0,0,.51,1.38,2.06,2.06,0,0,0,1.46.48A4.1,4.1,0,0,0,202,35Z"/><path class="cls-1" d="M217,36.93V20.06a.9.9,0,0,1,.21-.66.88.88,0,0,1,.65-.21h4.61a8.23,8.23,0,0,1,4.79,1.15,4.14,4.14,0,0,1,1.58,3.57,4.46,4.46,0,0,1-.81,2.7,5,5,0,0,1-2.23,1.65v.1a2.47,2.47,0,0,1,1.21,1,10.14,10.14,0,0,1,1,2l2.12,5.32c.07.25.11.39.11.42q0,.45-1.26.45h-.5a2.13,2.13,0,0,1-.76-.12.73.73,0,0,1-.42-.33l-2-5.13a3.61,3.61,0,0,0-1.28-1.8,4.28,4.28,0,0,0-2.25-.48h-2v7.2c0,.44-.4.66-1.21.66h-.39Q217,37.59,217,36.93Zm6-9.64a2.9,2.9,0,0,0,2.11-.87,2.77,2.77,0,0,0,.88-2.07,2.51,2.51,0,0,0-.85-2.05,3.53,3.53,0,0,0-2.32-.7h-3v5.69Z"/><path class="cls-1" d="M231.94,30.77a7.84,7.84,0,0,1,1.59-5.33,5.86,5.86,0,0,1,4.59-1.79,4.83,4.83,0,0,1,4.11,1.78,8.17,8.17,0,0,1,1.37,5.06,1.4,1.4,0,0,1-.38.73c-.26.31-.46.47-.62.47h-7.83a4.45,4.45,0,0,0,1.07,2.9,3.65,3.65,0,0,0,2.67.9,6.09,6.09,0,0,0,1.75-.23,8.28,8.28,0,0,0,1.28-.52,3.19,3.19,0,0,1,.61-.27c.2,0,.42.2.67.6a1.92,1.92,0,0,1,.38.89c0,.28-.23.56-.69.83a6.74,6.74,0,0,1-1.8.67,9.76,9.76,0,0,1-2.22.26Q231.94,37.72,231.94,30.77Zm8.9-1.17a4.7,4.7,0,0,0-.69-2.77,2.4,2.4,0,0,0-2.08-1q-3,0-3.3,3.73Z"/><path class="cls-1" d="M245.85,39.61a3.19,3.19,0,0,1,.63-1.94,3.74,3.74,0,0,1,1.68-1.29l0-.08a2.36,2.36,0,0,1-1.05-2.09,2.83,2.83,0,0,1,1.47-2.47A3.74,3.74,0,0,1,247,30.25a4.28,4.28,0,0,1-.58-2.2,4,4,0,0,1,1.42-3.21,5.83,5.83,0,0,1,3.9-1.19,8.76,8.76,0,0,1,1.68.18H258a.51.51,0,0,1,.46.22,1.33,1.33,0,0,1,.15.72v.34a1.25,1.25,0,0,1-.15.71A.49.49,0,0,1,258,26c-.25,0-.55,0-.92-.05a7.33,7.33,0,0,1-.86-.13l0,0a3.07,3.07,0,0,1,.76,2.15,3.9,3.9,0,0,1-1.39,3.16,5.79,5.79,0,0,1-3.82,1.16,3.26,3.26,0,0,0-1.68.33,1.16,1.16,0,0,0-.53,1.06,1.08,1.08,0,0,0,.76,1.08,10.7,10.7,0,0,0,2.36.47l1,.13a7.08,7.08,0,0,1,3.07,1.07A2.87,2.87,0,0,1,257.8,39a3.41,3.41,0,0,1-1.65,3,8.7,8.7,0,0,1-4.72,1.07Q245.85,43.09,245.85,39.61Zm8.52.86a1.45,1.45,0,0,0,.86-1.36,1.07,1.07,0,0,0-.46-.93,2.85,2.85,0,0,0-1.12-.47c-.45-.1-1.07-.19-1.85-.28-.93-.12-1.57-.22-1.91-.29a2.72,2.72,0,0,0-1.09.79,1.84,1.84,0,0,0-.41,1.2,1.45,1.45,0,0,0,.77,1.37,5.72,5.72,0,0,0,2.56.42A6,6,0,0,0,254.37,40.47Zm-.71-10.72a1.94,1.94,0,0,0,.76-1.73,1.93,1.93,0,0,0-.76-1.71,3.37,3.37,0,0,0-2-.54,3.32,3.32,0,0,0-2,.54,2,2,0,0,0-.75,1.71,2,2,0,0,0,.75,1.73,3.39,3.39,0,0,0,2,.53A3.44,3.44,0,0,0,253.66,29.75Z"/><path class="cls-1" d="M261.15,21.45V19.74c0-.43.47-.65,1.39-.65s1.36.22,1.36.65v1.71c0,.43-.45.65-1.36.65S261.15,21.88,261.15,21.45Zm0,15.48V24.43c0-.43.4-.65,1.2-.65h.27c.8,0,1.2.22,1.2.65v12.5q0,.66-1.2.66h-.27Q261.18,37.59,261.18,36.93Z"/><path class="cls-1" d="M269.07,37.51a5.18,5.18,0,0,1-1.56-.66c-.4-.26-.59-.52-.59-.78a1.84,1.84,0,0,1,.38-.93c.25-.4.47-.59.67-.59a3.06,3.06,0,0,1,.52.27,5.57,5.57,0,0,0,1.07.49,4.19,4.19,0,0,0,1.37.21,2.86,2.86,0,0,0,1.7-.43,1.52,1.52,0,0,0,.58-1.28,1.47,1.47,0,0,0-.59-1.25,6.89,6.89,0,0,0-1.88-.89,12.27,12.27,0,0,1-1.79-.82,3.47,3.47,0,0,1-1.22-1.22,3.82,3.82,0,0,1-.5-2.05,3.64,3.64,0,0,1,1.23-2.85,4.74,4.74,0,0,1,3.23-1.08,8.15,8.15,0,0,1,2.49.35c.75.24,1.12.53,1.12.88a2.29,2.29,0,0,1-.32,1c-.22.41-.43.61-.62.61a7.38,7.38,0,0,1-.71-.33,3.74,3.74,0,0,0-1.65-.3,2.6,2.6,0,0,0-1.49.39,1.27,1.27,0,0,0-.58,1.13,1.36,1.36,0,0,0,.46,1.1,5.2,5.2,0,0,0,1.64.78,8,8,0,0,1,2.85,1.58,3.48,3.48,0,0,1,1,2.72,4,4,0,0,1-.62,2.18,4.13,4.13,0,0,1-1.7,1.5,5.44,5.44,0,0,1-2.45.54A8,8,0,0,1,269.07,37.51Z"/><path class="cls-1" d="M280.4,36.84a3.64,3.64,0,0,1-1-2.92V26.06h-1a.5.5,0,0,1-.46-.23,1.29,1.29,0,0,1-.15-.72v-.34a1.33,1.33,0,0,1,.15-.72.5.5,0,0,1,.46-.22h1l.35-2.67q.07-.66,1-.66h.42c.63,0,.94.22.94.66v2.67H284a.5.5,0,0,1,.46.22,1.33,1.33,0,0,1,.15.72v.34a1.29,1.29,0,0,1-.15.72.5.5,0,0,1-.46.23h-1.94v7.73a2,2,0,0,0,.33,1.32,1.21,1.21,0,0,0,1,.38,2.62,2.62,0,0,0,.61-.06,1.47,1.47,0,0,1,.38-.07c.18,0,.33.19.45.56a3.12,3.12,0,0,1,.18.86c0,.62-.7.94-2.09.94A3.69,3.69,0,0,1,280.4,36.84Z"/><path class="cls-1" d="M287.91,36.93V28a13.67,13.67,0,0,0-.16-2.52c-.1-.52-.16-.82-.16-.89,0-.24.22-.42.66-.52a4.9,4.9,0,0,1,1.2-.16.58.58,0,0,1,.57.37,3.76,3.76,0,0,1,.26.78c.06.28.1.47.12.58a3.69,3.69,0,0,1,3-2,1.86,1.86,0,0,1,1.17.28,1.06,1.06,0,0,1,.35.87,3.61,3.61,0,0,1-.18,1.05q-.18.57-.42.57a2,2,0,0,1-.54-.13,2.76,2.76,0,0,0-.85-.13,2.12,2.12,0,0,0-1.43.54,5.1,5.1,0,0,0-.9,1v9.25c0,.44-.39.66-1.18.66h-.29Q287.91,37.59,287.91,36.93Z"/><path class="cls-1" d="M297.21,36.71a3.64,3.64,0,0,1-1.15-2.9,3.76,3.76,0,0,1,2.2-3.7A14.71,14.71,0,0,1,304.42,29V27.89a1.86,1.86,0,0,0-.63-1.47,3.07,3.07,0,0,0-2-.55,6.46,6.46,0,0,0-1.87.25,9.38,9.38,0,0,0-1.37.53,3.29,3.29,0,0,1-.64.27c-.19,0-.41-.2-.67-.61a2.1,2.1,0,0,1-.38-.93c0-.25.23-.51.7-.78a7,7,0,0,1,1.83-.68,10.52,10.52,0,0,1,2.43-.27,6.07,6.07,0,0,1,3.94,1.11,3.77,3.77,0,0,1,1.35,3.08v5.61a13.92,13.92,0,0,0,.16,2.54c.1.52.15.82.15.89,0,.25-.21.42-.64.52a4.77,4.77,0,0,1-1.19.16.59.59,0,0,1-.59-.39,4.33,4.33,0,0,1-.26-.84l-.12-.6a5.93,5.93,0,0,1-1.77,1.41,5,5,0,0,1-2.47.58A4.64,4.64,0,0,1,297.21,36.71ZM302.82,35a6.13,6.13,0,0,0,1.6-1.28V31.09a13.85,13.85,0,0,0-4.06.48,2,2,0,0,0-1.52,2,1.8,1.8,0,0,0,.51,1.38,2,2,0,0,0,1.45.48A4.1,4.1,0,0,0,302.82,35Z"/><path class="cls-1" d="M312.71,36.84a3.63,3.63,0,0,1-1-2.92V26.06h-1.05a.5.5,0,0,1-.46-.23,1.29,1.29,0,0,1-.15-.72v-.34a1.33,1.33,0,0,1,.15-.72.5.5,0,0,1,.46-.22h1.05l.34-2.67q.08-.66,1-.66h.42c.63,0,.94.22.94.66v2.67h1.94a.5.5,0,0,1,.46.22,1.33,1.33,0,0,1,.15.72v.34a1.29,1.29,0,0,1-.15.72.5.5,0,0,1-.46.23h-1.94v7.73a2,2,0,0,0,.33,1.32,1.21,1.21,0,0,0,1,.38,2.62,2.62,0,0,0,.61-.06,1.47,1.47,0,0,1,.38-.07c.18,0,.33.19.45.56a3.12,3.12,0,0,1,.18.86c0,.62-.7.94-2.09.94A3.69,3.69,0,0,1,312.71,36.84Z"/><path class="cls-1" d="M320.19,21.45V19.74c0-.43.46-.65,1.39-.65s1.36.22,1.36.65v1.71c0,.43-.45.65-1.36.65S320.19,21.88,320.19,21.45Zm0,15.48V24.43c0-.43.4-.65,1.2-.65h.27c.8,0,1.2.22,1.2.65v12.5q0,.66-1.2.66h-.27Q320.22,37.59,320.22,36.93Z"/><path class="cls-1" d="M327.92,35.92a7.64,7.64,0,0,1-1.57-5.2,7.71,7.71,0,0,1,1.6-5.24,5.71,5.71,0,0,1,4.56-1.83A5.61,5.61,0,0,1,337,25.47a7.84,7.84,0,0,1,1.56,5.25,7.74,7.74,0,0,1-1.55,5.2,5.64,5.64,0,0,1-4.53,1.8A5.77,5.77,0,0,1,327.92,35.92ZM335,34.31a6.33,6.33,0,0,0,.83-3.61,6.4,6.4,0,0,0-.83-3.63,2.88,2.88,0,0,0-2.55-1.2,2.83,2.83,0,0,0-2.52,1.2,6.5,6.5,0,0,0-.81,3.63,6.44,6.44,0,0,0,.8,3.61,2.82,2.82,0,0,0,2.53,1.18A2.89,2.89,0,0,0,335,34.31Z"/><path class="cls-1" d="M342,36.93V28a14.89,14.89,0,0,0-.15-2.52,8.12,8.12,0,0,1-.16-.89c0-.24.22-.42.65-.52a5,5,0,0,1,1.21-.16.57.57,0,0,1,.56.37,3.77,3.77,0,0,1,.27.78c.06.28.1.47.11.58a6.11,6.11,0,0,1,1.86-1.46,5,5,0,0,1,2.18-.53,4.12,4.12,0,0,1,3.08,1.11,4.32,4.32,0,0,1,1.09,3.13v9c0,.44-.41.66-1.21.66h-.29q-1.2,0-1.2-.66V28.21a2.21,2.21,0,0,0-.61-1.67,2.4,2.4,0,0,0-1.75-.59,3,3,0,0,0-1.63.49,4.43,4.43,0,0,0-1.31,1.24v9.25q0,.66-1.2.66h-.29C342.4,37.59,342,37.37,342,36.93Z"/><path class="cls-1" d="M682.84,37.33a.9.9,0,0,1-.21-.66V20.06a.9.9,0,0,1,.21-.66.88.88,0,0,1,.65-.21h5.37a8,8,0,0,1,6,2.24q2.2,2.25,2.2,6.93t-2.2,6.93a8,8,0,0,1-6,2.25h-5.37A.88.88,0,0,1,682.84,37.33Zm5.89-2.21a5,5,0,0,0,4-1.66,7.54,7.54,0,0,0,1.47-5.1,7.53,7.53,0,0,0-1.47-5.09,5,5,0,0,0-4-1.67h-3.3V35.12Z"/><path class="cls-1" d="M700.84,36.71a3.64,3.64,0,0,1-1.15-2.9,3.76,3.76,0,0,1,2.2-3.7A14.71,14.71,0,0,1,708.05,29V27.89a1.86,1.86,0,0,0-.63-1.47,3.09,3.09,0,0,0-2-.55,6.46,6.46,0,0,0-1.87.25,9.38,9.38,0,0,0-1.37.53,3.29,3.29,0,0,1-.64.27c-.19,0-.41-.2-.67-.61a2.1,2.1,0,0,1-.38-.93c0-.25.23-.51.7-.78a7,7,0,0,1,1.83-.68,10.52,10.52,0,0,1,2.43-.27,6.09,6.09,0,0,1,3.94,1.11,3.77,3.77,0,0,1,1.35,3.08v5.61a13.92,13.92,0,0,0,.16,2.54c.1.52.15.82.15.89,0,.25-.21.42-.64.52a4.77,4.77,0,0,1-1.19.16.59.59,0,0,1-.59-.39,4.33,4.33,0,0,1-.26-.84l-.12-.6a5.93,5.93,0,0,1-1.77,1.41,5.05,5.05,0,0,1-2.48.58A4.63,4.63,0,0,1,700.84,36.71ZM706.45,35a6.13,6.13,0,0,0,1.6-1.28V31.09a14,14,0,0,0-4.07.48,2,2,0,0,0-1.52,2A1.77,1.77,0,0,0,703,35a2,2,0,0,0,1.45.48A4.1,4.1,0,0,0,706.45,35Z"/><path class="cls-1" d="M716.34,36.84a3.64,3.64,0,0,1-1-2.92V26.06h-1a.5.5,0,0,1-.46-.23,1.29,1.29,0,0,1-.15-.72v-.34a1.33,1.33,0,0,1,.15-.72.5.5,0,0,1,.46-.22h1l.35-2.67q.08-.66,1-.66h.42c.63,0,.94.22.94.66v2.67h1.94a.5.5,0,0,1,.46.22,1.33,1.33,0,0,1,.15.72v.34a1.29,1.29,0,0,1-.15.72.5.5,0,0,1-.46.23H718v7.73a2,2,0,0,0,.33,1.32,1.21,1.21,0,0,0,1,.38,2.62,2.62,0,0,0,.61-.06,1.47,1.47,0,0,1,.38-.07c.18,0,.33.19.45.56a3.12,3.12,0,0,1,.18.86c0,.62-.7.94-2.09.94A3.69,3.69,0,0,1,716.34,36.84Z"/><path class="cls-1" d="M724.08,36.71a3.64,3.64,0,0,1-1.15-2.9,3.76,3.76,0,0,1,2.2-3.7A14.71,14.71,0,0,1,731.29,29V27.89a1.86,1.86,0,0,0-.63-1.47,3.07,3.07,0,0,0-2-.55,6.51,6.51,0,0,0-1.87.25,9.22,9.22,0,0,0-1.36.53,3.24,3.24,0,0,1-.65.27c-.19,0-.41-.2-.66-.61a2,2,0,0,1-.38-.93q0-.37.69-.78a7.19,7.19,0,0,1,1.83-.68,10.58,10.58,0,0,1,2.43-.27,6.07,6.07,0,0,1,3.94,1.11A3.77,3.77,0,0,1,734,27.84v5.61a13.92,13.92,0,0,0,.16,2.54c.1.52.16.82.16.89,0,.25-.22.42-.65.52a4.71,4.71,0,0,1-1.19.16.6.6,0,0,1-.59-.39,4.33,4.33,0,0,1-.26-.84l-.12-.6a5.93,5.93,0,0,1-1.77,1.41,5,5,0,0,1-2.47.58A4.64,4.64,0,0,1,724.08,36.71ZM729.69,35a6,6,0,0,0,1.6-1.28V31.09a13.85,13.85,0,0,0-4.06.48,2,2,0,0,0-1.52,2,1.8,1.8,0,0,0,.51,1.38,2,2,0,0,0,1.45.48A4.1,4.1,0,0,0,729.69,35Z"/><path class="cls-1" d="M742.51,37.12a1.52,1.52,0,0,1,.07-.42l6.08-17.11c.11-.3.5-.45,1.18-.45h.92c.68,0,1.07.15,1.18.45L758,36.72a1.41,1.41,0,0,1,.08.4c0,.31-.4.47-1.18.47h-.47c-.67,0-1.06-.15-1.18-.45l-1.39-4h-7.26l-1.36,4c-.13.3-.49.45-1.1.45h-.4C742.92,37.59,742.51,37.43,742.51,37.12ZM753,30.75l-2.39-6.92c-.07-.24-.13-.53-.19-.86s-.11-.57-.15-.71h0a10.29,10.29,0,0,1-.39,1.57l-2.41,6.92Z"/><path class="cls-1" d="M761.21,36c-1.06-1.13-1.59-2.91-1.59-5.36s.58-4.25,1.74-5.36A6.4,6.4,0,0,1,766,23.65a9.2,9.2,0,0,1,2.8.4c.84.27,1.27.6,1.27,1a2.19,2.19,0,0,1-.37,1c-.25.41-.46.61-.66.61l-.34-.13a10.43,10.43,0,0,0-1.22-.44,5.15,5.15,0,0,0-1.45-.19A3.19,3.19,0,0,0,763.35,27a5.78,5.78,0,0,0-.9,3.58,6.44,6.44,0,0,0,.85,3.74,3.3,3.3,0,0,0,2.84,1.16,5.39,5.39,0,0,0,1.59-.2,8.76,8.76,0,0,0,1.27-.48l.34-.1c.19,0,.41.19.65.58a2,2,0,0,1,.37.94c0,.4-.46.75-1.37,1a9.21,9.21,0,0,1-2.87.45A6.45,6.45,0,0,1,761.21,36Z"/><path class="cls-1" d="M773.92,36c-1.06-1.13-1.59-2.91-1.59-5.36s.58-4.25,1.74-5.36a6.4,6.4,0,0,1,4.62-1.66,9.09,9.09,0,0,1,2.79.4c.85.27,1.28.6,1.28,1a2.19,2.19,0,0,1-.37,1c-.25.41-.46.61-.66.61l-.34-.13a11.13,11.13,0,0,0-1.22-.44,5.15,5.15,0,0,0-1.45-.19A3.19,3.19,0,0,0,776.06,27a5.78,5.78,0,0,0-.9,3.58,6.44,6.44,0,0,0,.85,3.74,3.28,3.28,0,0,0,2.84,1.16,5.39,5.39,0,0,0,1.59-.2,9.22,9.22,0,0,0,1.27-.48l.34-.1c.19,0,.41.19.65.58a2,2,0,0,1,.37.94c0,.4-.46.75-1.38,1a9.12,9.12,0,0,1-2.87.45A6.44,6.44,0,0,1,773.92,36Z"/><path class="cls-1" d="M785.09,30.77a7.79,7.79,0,0,1,1.6-5.33,5.82,5.82,0,0,1,4.58-1.79,4.85,4.85,0,0,1,4.12,1.78,8.23,8.23,0,0,1,1.36,5.06,1.4,1.4,0,0,1-.38.73c-.26.31-.46.47-.62.47h-7.83a4.45,4.45,0,0,0,1.07,2.9,3.65,3.65,0,0,0,2.67.9,6.09,6.09,0,0,0,1.75-.23,8.28,8.28,0,0,0,1.28-.52,2.88,2.88,0,0,1,.62-.27c.19,0,.41.2.67.6a2,2,0,0,1,.38.89c0,.28-.24.56-.7.83a6.79,6.79,0,0,1-1.79.67,9.91,9.91,0,0,1-2.23.26Q785.09,37.72,785.09,30.77ZM794,29.6a4.7,4.7,0,0,0-.7-2.77,2.4,2.4,0,0,0-2.08-1q-3,0-3.3,3.73Z"/><path class="cls-1" d="M801,37.51a5.18,5.18,0,0,1-1.56-.66c-.4-.26-.59-.52-.59-.78a1.84,1.84,0,0,1,.38-.93c.25-.4.47-.59.67-.59a3.06,3.06,0,0,1,.52.27,5.57,5.57,0,0,0,1.07.49,4.19,4.19,0,0,0,1.37.21,2.86,2.86,0,0,0,1.7-.43,1.52,1.52,0,0,0,.58-1.28,1.47,1.47,0,0,0-.59-1.25,6.89,6.89,0,0,0-1.88-.89,12.27,12.27,0,0,1-1.79-.82,3.47,3.47,0,0,1-1.22-1.22,3.82,3.82,0,0,1-.5-2.05,3.64,3.64,0,0,1,1.23-2.85,4.74,4.74,0,0,1,3.23-1.08,8.15,8.15,0,0,1,2.49.35c.75.24,1.12.53,1.12.88a2.29,2.29,0,0,1-.32,1c-.22.41-.43.61-.62.61a7.38,7.38,0,0,1-.71-.33,3.74,3.74,0,0,0-1.65-.3,2.6,2.6,0,0,0-1.49.39,1.27,1.27,0,0,0-.58,1.13,1.36,1.36,0,0,0,.46,1.1,5.2,5.2,0,0,0,1.64.78,8,8,0,0,1,2.85,1.58,3.48,3.48,0,0,1,1,2.72,4,4,0,0,1-.62,2.18,4.13,4.13,0,0,1-1.7,1.5,5.47,5.47,0,0,1-2.45.54A8,8,0,0,1,801,37.51Z"/><path class="cls-1" d="M811.79,37.51a5.18,5.18,0,0,1-1.56-.66c-.39-.26-.59-.52-.59-.78a1.94,1.94,0,0,1,.38-.93c.25-.4.48-.59.67-.59a3.06,3.06,0,0,1,.52.27,5.67,5.67,0,0,0,1.08.49,4.09,4.09,0,0,0,1.36.21,2.86,2.86,0,0,0,1.7-.43,1.5,1.5,0,0,0,.58-1.28,1.47,1.47,0,0,0-.59-1.25,6.8,6.8,0,0,0-1.87-.89,12,12,0,0,1-1.8-.82,3.47,3.47,0,0,1-1.22-1.22,3.82,3.82,0,0,1-.5-2.05,3.61,3.61,0,0,1,1.24-2.85,4.7,4.7,0,0,1,3.22-1.08,8.15,8.15,0,0,1,2.49.35c.75.24,1.13.53,1.13.88a2.19,2.19,0,0,1-.33,1c-.22.41-.43.61-.62.61s-.3-.13-.7-.33a3.82,3.82,0,0,0-1.66-.3,2.6,2.6,0,0,0-1.49.39,1.3,1.3,0,0,0-.58,1.13,1.39,1.39,0,0,0,.46,1.1,5.2,5.2,0,0,0,1.64.78,8,8,0,0,1,2.86,1.58,3.52,3.52,0,0,1,1,2.72,4,4,0,0,1-.62,2.18,4.13,4.13,0,0,1-1.7,1.5,5.44,5.44,0,0,1-2.45.54A8.15,8.15,0,0,1,811.79,37.51Z"/><path class="cls-1" d="M828.14,36.93V20.06a.75.75,0,0,1,.87-.87h4.61a8.2,8.2,0,0,1,4.78,1.15A4.12,4.12,0,0,1,840,23.91a4.46,4.46,0,0,1-.82,2.7A4.93,4.93,0,0,1,837,28.26v.1a2.49,2.49,0,0,1,1.2,1,10.14,10.14,0,0,1,1,2l2.13,5.32c.06.25.1.39.1.42q0,.45-1.26.45h-.5a2.16,2.16,0,0,1-.76-.12.67.67,0,0,1-.41-.33l-2-5.13a3.62,3.62,0,0,0-1.29-1.8,4.23,4.23,0,0,0-2.25-.48h-2v7.2q0,.66-1.2.66h-.39C828.54,37.59,828.14,37.37,828.14,36.93Zm6-9.64a2.86,2.86,0,0,0,2.1-.87,2.77,2.77,0,0,0,.88-2.07,2.48,2.48,0,0,0-.85-2.05,3.53,3.53,0,0,0-2.32-.7h-3v5.69Z"/><path class="cls-1" d="M843.13,30.77a7.79,7.79,0,0,1,1.6-5.33,5.82,5.82,0,0,1,4.58-1.79,4.85,4.85,0,0,1,4.12,1.78,8.17,8.17,0,0,1,1.36,5.06,1.4,1.4,0,0,1-.38.73c-.25.31-.46.47-.61.47H846a4.45,4.45,0,0,0,1.07,2.9,3.7,3.7,0,0,0,2.68.9,6.06,6.06,0,0,0,1.74-.23,7.53,7.53,0,0,0,1.28-.52,3.13,3.13,0,0,1,.62-.27c.19,0,.41.2.67.6a2,2,0,0,1,.38.89c0,.28-.23.56-.7.83a6.79,6.79,0,0,1-1.79.67,9.91,9.91,0,0,1-2.23.26Q843.13,37.72,843.13,30.77ZM852,29.6a4.62,4.62,0,0,0-.7-2.77,2.39,2.39,0,0,0-2.08-1q-3,0-3.3,3.73Z"/><path class="cls-1" d="M865.8,42.33V36.51a6.24,6.24,0,0,1-1.58.89,5.1,5.1,0,0,1-1.86.32,4.75,4.75,0,0,1-4-1.86,8.08,8.08,0,0,1-1.47-5.14,10.16,10.16,0,0,1,.63-3.71,5.63,5.63,0,0,1,1.78-2.49,4.32,4.32,0,0,1,2.67-.87,4.68,4.68,0,0,1,2.14.51A5.92,5.92,0,0,1,866,25.61a10.54,10.54,0,0,1,.39-1.41.52.52,0,0,1,.3-.33,1.84,1.84,0,0,1,.65-.09h.15c.69,0,1,.22,1,.65v17.9c0,.42-.41.63-1.21.63H867Q865.8,43,865.8,42.33Zm0-7.86V27.66a5.56,5.56,0,0,0-1.5-1.28,3.36,3.36,0,0,0-1.65-.45,2.39,2.39,0,0,0-2.19,1.27,7.32,7.32,0,0,0-.74,3.63,6.06,6.06,0,0,0,.81,3.43A2.75,2.75,0,0,0,863,35.44,4.38,4.38,0,0,0,865.8,34.47Z"/><path class="cls-1" d="M873.41,36.61a4.3,4.3,0,0,1-1.09-3.14v-9c0-.43.4-.65,1.21-.65h.29c.8,0,1.2.22,1.2.65v8.73a2.21,2.21,0,0,0,.6,1.66,2.39,2.39,0,0,0,1.76.59,3,3,0,0,0,1.62-.48,4.34,4.34,0,0,0,1.31-1.25V24.43c0-.43.41-.65,1.21-.65h.29c.8,0,1.2.22,1.2.65v9a14.91,14.91,0,0,0,.16,2.54,8.12,8.12,0,0,1,.16.89c0,.25-.22.42-.66.52a4.9,4.9,0,0,1-1.2.16.6.6,0,0,1-.57-.39,4.33,4.33,0,0,1-.26-.84l-.12-.6a5.53,5.53,0,0,1-1.83,1.45,4.86,4.86,0,0,1-2.2.54A4.11,4.11,0,0,1,873.41,36.61Z"/><path class="cls-1" d="M886.42,30.77a7.79,7.79,0,0,1,1.6-5.33,5.82,5.82,0,0,1,4.58-1.79,4.85,4.85,0,0,1,4.12,1.78,8.17,8.17,0,0,1,1.36,5.06,1.4,1.4,0,0,1-.38.73c-.25.31-.46.47-.61.47h-7.84a4.45,4.45,0,0,0,1.07,2.9,3.7,3.7,0,0,0,2.68.9,6.06,6.06,0,0,0,1.74-.23,7.53,7.53,0,0,0,1.28-.52,3.13,3.13,0,0,1,.62-.27c.19,0,.41.2.67.6a2,2,0,0,1,.38.89c0,.28-.23.56-.7.83a6.79,6.79,0,0,1-1.79.67,9.91,9.91,0,0,1-2.23.26Q886.42,37.72,886.42,30.77Zm8.91-1.17a4.62,4.62,0,0,0-.7-2.77,2.39,2.39,0,0,0-2.08-1q-3,0-3.3,3.73Z"/><path class="cls-1" d="M902.3,37.51a5.18,5.18,0,0,1-1.56-.66c-.39-.26-.59-.52-.59-.78a1.94,1.94,0,0,1,.38-.93c.25-.4.48-.59.67-.59a3.06,3.06,0,0,1,.52.27,5.67,5.67,0,0,0,1.08.49,4.09,4.09,0,0,0,1.36.21,2.86,2.86,0,0,0,1.7-.43,1.5,1.5,0,0,0,.58-1.28,1.47,1.47,0,0,0-.59-1.25,6.8,6.8,0,0,0-1.87-.89,12,12,0,0,1-1.8-.82A3.47,3.47,0,0,1,901,29.63a3.82,3.82,0,0,1-.5-2.05,3.64,3.64,0,0,1,1.24-2.85,4.7,4.7,0,0,1,3.22-1.08,8.15,8.15,0,0,1,2.49.35c.75.24,1.13.53,1.13.88a2.19,2.19,0,0,1-.33,1c-.22.41-.43.61-.62.61s-.3-.13-.71-.33a3.74,3.74,0,0,0-1.65-.3,2.6,2.6,0,0,0-1.49.39,1.3,1.3,0,0,0-.58,1.13,1.39,1.39,0,0,0,.46,1.1,5.2,5.2,0,0,0,1.64.78,8,8,0,0,1,2.86,1.58,3.52,3.52,0,0,1,1,2.72,4,4,0,0,1-.62,2.18,4.13,4.13,0,0,1-1.7,1.5,5.44,5.44,0,0,1-2.45.54A8.15,8.15,0,0,1,902.3,37.51Z"/><path class="cls-1" d="M913.63,36.84a3.63,3.63,0,0,1-1-2.92V26.06h-1.05a.51.51,0,0,1-.46-.23,1.3,1.3,0,0,1-.14-.72v-.34a1.34,1.34,0,0,1,.14-.72.51.51,0,0,1,.46-.22h1.05l.34-2.67q.07-.66,1-.66h.42c.63,0,.95.22.95.66v2.67h1.94a.48.48,0,0,1,.45.22,1.33,1.33,0,0,1,.15.72v.34a1.29,1.29,0,0,1-.15.72.49.49,0,0,1-.45.23H915.3v7.73a2.09,2.09,0,0,0,.32,1.32,1.21,1.21,0,0,0,1,.38,2.71,2.71,0,0,0,.62-.06,1.34,1.34,0,0,1,.38-.07c.17,0,.32.19.44.56a3.22,3.22,0,0,1,.19.86c0,.62-.7.94-2.1.94A3.69,3.69,0,0,1,913.63,36.84Z"/><path class="cls-1" d="M927.61,36.93V20.06a.75.75,0,0,1,.87-.87h4.61a8.2,8.2,0,0,1,4.78,1.15,4.12,4.12,0,0,1,1.59,3.57,4.4,4.4,0,0,1-.82,2.7,4.93,4.93,0,0,1-2.22,1.65v.1a2.49,2.49,0,0,1,1.2,1,10.14,10.14,0,0,1,1,2l2.13,5.32a3,3,0,0,1,.1.42q0,.45-1.26.45h-.49a2.13,2.13,0,0,1-.76-.12.73.73,0,0,1-.42-.33l-2-5.13a3.62,3.62,0,0,0-1.29-1.8,4.23,4.23,0,0,0-2.25-.48h-2v7.2c0,.44-.41.66-1.21.66h-.39C928,37.59,927.61,37.37,927.61,36.93Zm6-9.64a2.9,2.9,0,0,0,2.11-.87,2.8,2.8,0,0,0,.87-2.07,2.48,2.48,0,0,0-.85-2.05,3.51,3.51,0,0,0-2.32-.7h-3v5.69Z"/><path class="cls-1" d="M942.6,30.77a7.79,7.79,0,0,1,1.6-5.33,5.83,5.83,0,0,1,4.59-1.79,4.85,4.85,0,0,1,4.11,1.78,8.17,8.17,0,0,1,1.36,5.06,1.4,1.4,0,0,1-.38.73c-.25.31-.46.47-.61.47h-7.84a4.45,4.45,0,0,0,1.08,2.9,3.65,3.65,0,0,0,2.67.9,6.06,6.06,0,0,0,1.74-.23,8,8,0,0,0,1.29-.52,2.92,2.92,0,0,1,.61-.27c.19,0,.42.2.67.6a2,2,0,0,1,.38.89c0,.28-.23.56-.7.83a6.79,6.79,0,0,1-1.79.67,9.85,9.85,0,0,1-2.23.26Q942.6,37.72,942.6,30.77Zm8.91-1.17a4.7,4.7,0,0,0-.69-2.77,2.42,2.42,0,0,0-2.09-1q-3,0-3.3,3.73Z"/><path class="cls-1" d="M959.87,37.14l-4.19-12.5a.89.89,0,0,1-.11-.39c0-.32.42-.47,1.26-.47h.37c.68,0,1.06.15,1.15.44l2.28,7.16a29,29,0,0,1,.89,3.53h.11a28.59,28.59,0,0,1,1-3.82l2.18-6.87c.12-.29.52-.44,1.2-.44h.24c.77,0,1.15.15,1.15.47a1.94,1.94,0,0,1-.08.42l-4.22,12.47c-.08.3-.47.45-1.15.45h-.89C960.38,37.59,960,37.44,959.87,37.14Z"/><path class="cls-1" d="M970,21.45V19.74c0-.43.46-.65,1.39-.65s1.36.22,1.36.65v1.71c0,.43-.45.65-1.36.65S970,21.88,970,21.45Zm0,15.48V24.43c0-.43.41-.65,1.21-.65h.26c.81,0,1.21.22,1.21.65v12.5c0,.44-.4.66-1.21.66h-.26C970.39,37.59,970,37.37,970,36.93Z"/><path class="cls-1" d="M976.12,30.77a7.84,7.84,0,0,1,1.59-5.33,5.86,5.86,0,0,1,4.59-1.79,4.83,4.83,0,0,1,4.11,1.78,8.17,8.17,0,0,1,1.37,5.06,1.4,1.4,0,0,1-.38.73c-.26.31-.46.47-.62.47H979a4.45,4.45,0,0,0,1.07,2.9,3.65,3.65,0,0,0,2.67.9,6.09,6.09,0,0,0,1.75-.23,8.28,8.28,0,0,0,1.28-.52,2.88,2.88,0,0,1,.62-.27q.28,0,.66.6a1.92,1.92,0,0,1,.38.89c0,.28-.23.56-.69.83a6.74,6.74,0,0,1-1.8.67,9.76,9.76,0,0,1-2.22.26Q976.12,37.72,976.12,30.77ZM985,29.6a4.7,4.7,0,0,0-.7-2.77,2.4,2.4,0,0,0-2.08-1q-3,0-3.3,3.73Z"/><path class="cls-1" d="M992.89,37.14l-3.44-12.37a1.57,1.57,0,0,1-.1-.47c0-.35.45-.52,1.34-.52s1.26.15,1.33.44l2,7.84c.09.35.27,1.27.55,2.78h.11c.21-1.21.39-2.14.55-2.81l2-7.78c.1-.32.49-.47,1.15-.47h.31c.69,0,1.06.15,1.13.47l2,7.81a24.56,24.56,0,0,1,.58,2.83h.05l.1-.63c.18-1,.33-1.72.45-2.18l2-7.86c.07-.29.47-.44,1.2-.44s1.21.17,1.21.52a1.06,1.06,0,0,1-.06.37L1004,37.14a.49.49,0,0,1-.37.34,2.5,2.5,0,0,1-.79.11h-.94c-.68,0-1.06-.15-1.13-.45l-1.91-7.57c-.12-.51-.24-1.21-.36-2.12h-.08c-.16,1-.28,1.74-.37,2.09l-1.91,7.6c-.07.3-.47.45-1.18.45H994C993.34,37.59,993,37.44,992.89,37.14Z"/><path class="cls-1" d="M1248.2,37.33a.9.9,0,0,1-.21-.66V20.06a.9.9,0,0,1,.21-.66.88.88,0,0,1,.65-.21h5.37a8,8,0,0,1,6,2.24q2.21,2.25,2.2,6.93t-2.2,6.93a8,8,0,0,1-6,2.25h-5.37A.88.88,0,0,1,1248.2,37.33Zm5.89-2.21a5,5,0,0,0,4-1.66,7.54,7.54,0,0,0,1.47-5.1,7.53,7.53,0,0,0-1.47-5.09,5,5,0,0,0-4-1.67h-3.3V35.12Z"/><path class="cls-1" d="M1266.2,36.71a3.64,3.64,0,0,1-1.15-2.9,3.76,3.76,0,0,1,2.2-3.7,14.71,14.71,0,0,1,6.16-1.09V27.89a1.86,1.86,0,0,0-.63-1.47,3.07,3.07,0,0,0-2-.55,6.46,6.46,0,0,0-1.87.25,9.38,9.38,0,0,0-1.37.53,3.29,3.29,0,0,1-.64.27c-.19,0-.41-.2-.67-.61a2.1,2.1,0,0,1-.38-.93c0-.25.23-.51.7-.78a7,7,0,0,1,1.83-.68,10.52,10.52,0,0,1,2.43-.27,6.07,6.07,0,0,1,3.94,1.11,3.77,3.77,0,0,1,1.35,3.08v5.61a13.92,13.92,0,0,0,.16,2.54c.1.52.15.82.15.89,0,.25-.21.42-.64.52a4.77,4.77,0,0,1-1.19.16.59.59,0,0,1-.59-.39,4.33,4.33,0,0,1-.26-.84l-.12-.6a5.93,5.93,0,0,1-1.77,1.41,5.05,5.05,0,0,1-2.48.58A4.63,4.63,0,0,1,1266.2,36.71Zm5.61-1.72a6.13,6.13,0,0,0,1.6-1.28V31.09a14,14,0,0,0-4.07.48,2,2,0,0,0-1.52,2,1.81,1.81,0,0,0,.52,1.38,2,2,0,0,0,1.45.48A4.1,4.1,0,0,0,1271.81,35Z"/><path class="cls-1" d="M1281.7,36.84a3.63,3.63,0,0,1-1-2.92V26.06h-1.05a.5.5,0,0,1-.46-.23,1.29,1.29,0,0,1-.15-.72v-.34a1.33,1.33,0,0,1,.15-.72.5.5,0,0,1,.46-.22h1.05l.34-2.67q.08-.66,1-.66h.42c.63,0,.94.22.94.66v2.67h1.94a.5.5,0,0,1,.46.22,1.33,1.33,0,0,1,.15.72v.34a1.29,1.29,0,0,1-.15.72.5.5,0,0,1-.46.23h-1.94v7.73a2,2,0,0,0,.33,1.32,1.21,1.21,0,0,0,1,.38,2.62,2.62,0,0,0,.61-.06,1.47,1.47,0,0,1,.38-.07c.18,0,.33.19.45.56a3.12,3.12,0,0,1,.18.86c0,.62-.7.94-2.09.94A3.69,3.69,0,0,1,1281.7,36.84Z"/><path class="cls-1" d="M1289.44,36.71a3.64,3.64,0,0,1-1.15-2.9,3.76,3.76,0,0,1,2.2-3.7,14.71,14.71,0,0,1,6.16-1.09V27.89a1.86,1.86,0,0,0-.63-1.47,3.07,3.07,0,0,0-2-.55,6.51,6.51,0,0,0-1.87.25,9.22,9.22,0,0,0-1.36.53,3.59,3.59,0,0,1-.64.27c-.2,0-.42-.2-.67-.61a2,2,0,0,1-.38-.93q0-.37.69-.78a7.13,7.13,0,0,1,1.84-.68,10.43,10.43,0,0,1,2.42-.27,6.07,6.07,0,0,1,3.94,1.11,3.77,3.77,0,0,1,1.35,3.08v5.61a14.91,14.91,0,0,0,.16,2.54,8.12,8.12,0,0,1,.16.89c0,.25-.22.42-.64.52a4.84,4.84,0,0,1-1.2.16.6.6,0,0,1-.59-.39,4.33,4.33,0,0,1-.26-.84l-.12-.6a5.93,5.93,0,0,1-1.77,1.41,5,5,0,0,1-2.47.58A4.64,4.64,0,0,1,1289.44,36.71Zm5.61-1.72a6,6,0,0,0,1.6-1.28V31.09a13.9,13.9,0,0,0-4.06.48,2,2,0,0,0-1.52,2,1.8,1.8,0,0,0,.51,1.38,2,2,0,0,0,1.45.48A4.1,4.1,0,0,0,1295.05,35Z"/><path class="cls-1" d="M1307.87,37.12a1.52,1.52,0,0,1,.07-.42L1314,19.59c.11-.3.5-.45,1.18-.45h.92c.68,0,1.07.15,1.18.45l6.08,17.13a1.41,1.41,0,0,1,.08.4c0,.31-.4.47-1.18.47h-.47c-.67,0-1.06-.15-1.18-.45l-1.39-4H1312l-1.36,4c-.13.3-.49.45-1.1.45h-.4C1308.29,37.59,1307.87,37.43,1307.87,37.12Zm10.53-6.37L1316,23.83a8.59,8.59,0,0,1-.2-.86c-.06-.34-.11-.57-.15-.71h-.05a10.29,10.29,0,0,1-.39,1.57l-2.41,6.92Z"/><path class="cls-1" d="M1326.58,36c-1.07-1.13-1.6-2.91-1.6-5.36s.58-4.25,1.74-5.36a6.4,6.4,0,0,1,4.62-1.66,9.2,9.2,0,0,1,2.8.4c.84.27,1.27.6,1.27,1a2.19,2.19,0,0,1-.37,1c-.24.41-.46.61-.66.61l-.34-.13a11,11,0,0,0-1.21-.44,5.22,5.22,0,0,0-1.46-.19,3.19,3.19,0,0,0-2.66,1.14,5.78,5.78,0,0,0-.9,3.58,6.44,6.44,0,0,0,.85,3.74,3.3,3.3,0,0,0,2.84,1.16,5.39,5.39,0,0,0,1.59-.2,8.76,8.76,0,0,0,1.27-.48l.34-.1c.19,0,.41.19.65.58a2,2,0,0,1,.37.94c0,.4-.46.75-1.37,1a9.21,9.21,0,0,1-2.87.45A6.41,6.41,0,0,1,1326.58,36Z"/><path class="cls-1" d="M1339.28,36c-1.06-1.13-1.59-2.91-1.59-5.36s.58-4.25,1.74-5.36a6.4,6.4,0,0,1,4.62-1.66,9.09,9.09,0,0,1,2.79.4c.85.27,1.28.6,1.28,1a2.19,2.19,0,0,1-.37,1c-.25.41-.46.61-.66.61l-.34-.13a11.13,11.13,0,0,0-1.22-.44,5.15,5.15,0,0,0-1.45-.19,3.19,3.19,0,0,0-2.66,1.14,5.78,5.78,0,0,0-.9,3.58,6.44,6.44,0,0,0,.85,3.74,3.3,3.3,0,0,0,2.84,1.16,5.39,5.39,0,0,0,1.59-.2,8.76,8.76,0,0,0,1.27-.48l.34-.1c.19,0,.41.19.65.58a2,2,0,0,1,.37.94c0,.4-.46.75-1.38,1a9.12,9.12,0,0,1-2.87.45A6.44,6.44,0,0,1,1339.28,36Z"/><path class="cls-1" d="M1350.45,30.77a7.79,7.79,0,0,1,1.6-5.33,5.82,5.82,0,0,1,4.58-1.79,4.85,4.85,0,0,1,4.12,1.78,8.23,8.23,0,0,1,1.36,5.06,1.4,1.4,0,0,1-.38.73c-.25.31-.46.47-.62.47h-7.83a4.45,4.45,0,0,0,1.07,2.9,3.66,3.66,0,0,0,2.68.9,6.06,6.06,0,0,0,1.74-.23,7.89,7.89,0,0,0,1.28-.52,3.13,3.13,0,0,1,.62-.27c.19,0,.41.2.67.6a2,2,0,0,1,.38.89c0,.28-.24.56-.7.83a6.79,6.79,0,0,1-1.79.67,9.91,9.91,0,0,1-2.23.26Q1350.45,37.72,1350.45,30.77Zm8.91-1.17a4.62,4.62,0,0,0-.7-2.77,2.39,2.39,0,0,0-2.08-1q-3,0-3.3,3.73Z"/><path class="cls-1" d="M1366.33,37.51a5.18,5.18,0,0,1-1.56-.66c-.39-.26-.59-.52-.59-.78a1.84,1.84,0,0,1,.38-.93c.25-.4.47-.59.67-.59a3.06,3.06,0,0,1,.52.27,5.67,5.67,0,0,0,1.08.49,4.09,4.09,0,0,0,1.36.21,2.86,2.86,0,0,0,1.7-.43,1.5,1.5,0,0,0,.58-1.28,1.47,1.47,0,0,0-.59-1.25,6.8,6.8,0,0,0-1.87-.89,12,12,0,0,1-1.8-.82,3.47,3.47,0,0,1-1.22-1.22,3.82,3.82,0,0,1-.5-2.05,3.64,3.64,0,0,1,1.23-2.85,4.74,4.74,0,0,1,3.23-1.08,8.15,8.15,0,0,1,2.49.35c.75.24,1.12.53,1.12.88a2.16,2.16,0,0,1-.32,1c-.22.41-.43.61-.62.61a7.38,7.38,0,0,1-.71-.33,3.74,3.74,0,0,0-1.65-.3,2.6,2.6,0,0,0-1.49.39,1.27,1.27,0,0,0-.58,1.13,1.36,1.36,0,0,0,.46,1.1,5.2,5.2,0,0,0,1.64.78,8,8,0,0,1,2.85,1.58,3.48,3.48,0,0,1,1,2.72,4,4,0,0,1-.62,2.18,4.13,4.13,0,0,1-1.7,1.5,5.44,5.44,0,0,1-2.45.54A8,8,0,0,1,1366.33,37.51Z"/><path class="cls-1" d="M1377.15,37.51a5.18,5.18,0,0,1-1.56-.66c-.39-.26-.59-.52-.59-.78a1.94,1.94,0,0,1,.38-.93c.25-.4.48-.59.67-.59a3.06,3.06,0,0,1,.52.27,6,6,0,0,0,1.08.49,4.09,4.09,0,0,0,1.36.21,2.86,2.86,0,0,0,1.7-.43,1.5,1.5,0,0,0,.58-1.28,1.47,1.47,0,0,0-.59-1.25,6.8,6.8,0,0,0-1.87-.89,12,12,0,0,1-1.8-.82,3.47,3.47,0,0,1-1.22-1.22,3.82,3.82,0,0,1-.49-2.05,3.64,3.64,0,0,1,1.23-2.85,4.7,4.7,0,0,1,3.22-1.08,8.15,8.15,0,0,1,2.49.35c.75.24,1.13.53,1.13.88a2.19,2.19,0,0,1-.33,1c-.22.41-.43.61-.62.61s-.3-.13-.7-.33a3.8,3.8,0,0,0-1.65-.3,2.61,2.61,0,0,0-1.5.39,1.3,1.3,0,0,0-.58,1.13,1.39,1.39,0,0,0,.46,1.1,5.2,5.2,0,0,0,1.64.78,8,8,0,0,1,2.86,1.58,3.52,3.52,0,0,1,1,2.72,4,4,0,0,1-.62,2.18,4.13,4.13,0,0,1-1.7,1.5,5.44,5.44,0,0,1-2.45.54A8.15,8.15,0,0,1,1377.15,37.51Z"/><path class="cls-1" d="M1393.5,36.93V20.06a.75.75,0,0,1,.87-.87H1399a8.2,8.2,0,0,1,4.78,1.15,4.12,4.12,0,0,1,1.59,3.57,4.46,4.46,0,0,1-.82,2.7,4.93,4.93,0,0,1-2.22,1.65v.1a2.49,2.49,0,0,1,1.2,1,10.14,10.14,0,0,1,1,2l2.13,5.32a3,3,0,0,1,.1.42q0,.45-1.26.45H1405a2.13,2.13,0,0,1-.76-.12.73.73,0,0,1-.42-.33l-2-5.13a3.62,3.62,0,0,0-1.29-1.8,4.23,4.23,0,0,0-2.25-.48h-2v7.2q0,.66-1.2.66h-.39C1393.9,37.59,1393.5,37.37,1393.5,36.93Zm6-9.64a2.9,2.9,0,0,0,2.11-.87,2.8,2.8,0,0,0,.87-2.07,2.48,2.48,0,0,0-.85-2.05,3.53,3.53,0,0,0-2.32-.7h-3v5.69Z"/><path class="cls-1" d="M1408.49,30.77a7.79,7.79,0,0,1,1.6-5.33,5.82,5.82,0,0,1,4.58-1.79,4.85,4.85,0,0,1,4.12,1.78,8.17,8.17,0,0,1,1.36,5.06,1.4,1.4,0,0,1-.38.73c-.25.31-.46.47-.61.47h-7.84a4.45,4.45,0,0,0,1.07,2.9,3.7,3.7,0,0,0,2.68.9,6.06,6.06,0,0,0,1.74-.23,7.53,7.53,0,0,0,1.28-.52,3.13,3.13,0,0,1,.62-.27c.19,0,.42.2.67.6a2,2,0,0,1,.38.89c0,.28-.23.56-.7.83a6.79,6.79,0,0,1-1.79.67,9.85,9.85,0,0,1-2.23.26Q1408.49,37.72,1408.49,30.77Zm8.91-1.17a4.7,4.7,0,0,0-.69-2.77,2.42,2.42,0,0,0-2.09-1q-3,0-3.3,3.73Z"/><path class="cls-1" d="M1431.16,42.33V36.51a6.36,6.36,0,0,1-1.57.89,5.2,5.2,0,0,1-1.87.32,4.77,4.77,0,0,1-4-1.86,8.08,8.08,0,0,1-1.47-5.14,10.16,10.16,0,0,1,.63-3.71,5.63,5.63,0,0,1,1.78-2.49,4.32,4.32,0,0,1,2.67-.87,4.68,4.68,0,0,1,2.14.51,5.92,5.92,0,0,1,1.82,1.45,10.54,10.54,0,0,1,.39-1.41.53.53,0,0,1,.31-.33,1.74,1.74,0,0,1,.64-.09h.15c.69,0,1,.22,1,.65v17.9c0,.42-.41.63-1.21.63h-.29Q1431.16,43,1431.16,42.33Zm0-7.86V27.66a5.42,5.42,0,0,0-1.5-1.28,3.36,3.36,0,0,0-1.65-.45,2.39,2.39,0,0,0-2.19,1.27,7.32,7.32,0,0,0-.74,3.63,6.06,6.06,0,0,0,.81,3.43,2.75,2.75,0,0,0,2.44,1.18A4.38,4.38,0,0,0,1431.16,34.47Z"/><path class="cls-1" d="M1438.77,36.61a4.34,4.34,0,0,1-1.09-3.14v-9c0-.43.4-.65,1.21-.65h.29c.8,0,1.2.22,1.2.65v8.73a2.21,2.21,0,0,0,.6,1.66,2.4,2.4,0,0,0,1.76.59,3,3,0,0,0,1.62-.48,4.23,4.23,0,0,0,1.31-1.25V24.43c0-.43.41-.65,1.21-.65h.29c.8,0,1.2.22,1.2.65v9a14.91,14.91,0,0,0,.16,2.54,8.12,8.12,0,0,1,.16.89c0,.25-.22.42-.66.52a4.9,4.9,0,0,1-1.2.16.6.6,0,0,1-.57-.39,4.33,4.33,0,0,1-.26-.84l-.12-.6a5.53,5.53,0,0,1-1.83,1.45,4.86,4.86,0,0,1-2.2.54A4.11,4.11,0,0,1,1438.77,36.61Z"/><path class="cls-1" d="M1451.78,30.77a7.79,7.79,0,0,1,1.6-5.33,5.82,5.82,0,0,1,4.58-1.79,4.85,4.85,0,0,1,4.12,1.78,8.17,8.17,0,0,1,1.36,5.06,1.4,1.4,0,0,1-.38.73c-.25.31-.46.47-.61.47h-7.84a4.45,4.45,0,0,0,1.07,2.9,3.7,3.7,0,0,0,2.68.9,6.06,6.06,0,0,0,1.74-.23,7.53,7.53,0,0,0,1.28-.52,3.13,3.13,0,0,1,.62-.27c.19,0,.42.2.67.6a2,2,0,0,1,.38.89c0,.28-.23.56-.7.83a6.79,6.79,0,0,1-1.79.67,9.85,9.85,0,0,1-2.23.26Q1451.78,37.72,1451.78,30.77Zm8.91-1.17a4.7,4.7,0,0,0-.69-2.77,2.42,2.42,0,0,0-2.09-1q-3,0-3.3,3.73Z"/><path class="cls-1" d="M1467.66,37.51a5.18,5.18,0,0,1-1.56-.66c-.39-.26-.59-.52-.59-.78a1.94,1.94,0,0,1,.38-.93c.25-.4.48-.59.67-.59a3.06,3.06,0,0,1,.52.27,6,6,0,0,0,1.08.49,4.09,4.09,0,0,0,1.36.21,2.86,2.86,0,0,0,1.7-.43,1.5,1.5,0,0,0,.58-1.28,1.47,1.47,0,0,0-.59-1.25,6.8,6.8,0,0,0-1.87-.89,12,12,0,0,1-1.8-.82,3.56,3.56,0,0,1-1.22-1.22,3.82,3.82,0,0,1-.49-2.05,3.64,3.64,0,0,1,1.23-2.85,4.7,4.7,0,0,1,3.22-1.08,8.15,8.15,0,0,1,2.49.35c.75.24,1.13.53,1.13.88a2.19,2.19,0,0,1-.33,1c-.22.41-.42.61-.62.61s-.3-.13-.7-.33a3.82,3.82,0,0,0-1.66-.3,2.62,2.62,0,0,0-1.49.39,1.3,1.3,0,0,0-.58,1.13,1.39,1.39,0,0,0,.46,1.1,5.32,5.32,0,0,0,1.64.78,8,8,0,0,1,2.86,1.58,3.52,3.52,0,0,1,1,2.72,4,4,0,0,1-.62,2.18,4.07,4.07,0,0,1-1.7,1.5,5.41,5.41,0,0,1-2.45.54A8.15,8.15,0,0,1,1467.66,37.51Z"/><path class="cls-1" d="M1479,36.84a3.63,3.63,0,0,1-1-2.92V26.06h-1a.51.51,0,0,1-.46-.23,1.3,1.3,0,0,1-.14-.72v-.34a1.34,1.34,0,0,1,.14-.72.51.51,0,0,1,.46-.22h1l.34-2.67q.08-.66,1-.66h.42c.63,0,1,.22,1,.66v2.67h1.94a.48.48,0,0,1,.45.22,1.33,1.33,0,0,1,.15.72v.34a1.29,1.29,0,0,1-.15.72.49.49,0,0,1-.45.23h-1.94v7.73a2.09,2.09,0,0,0,.32,1.32,1.21,1.21,0,0,0,1,.38,2.71,2.71,0,0,0,.62-.06,1.34,1.34,0,0,1,.38-.07c.17,0,.32.19.44.56a2.86,2.86,0,0,1,.19.86c0,.62-.7.94-2.1.94A3.69,3.69,0,0,1,1479,36.84Z"/><path class="cls-1" d="M1490.88,37.12a1.27,1.27,0,0,1,.08-.42L1497,19.59q.15-.45,1.17-.45h.92c.68,0,1.08.15,1.18.45l6.08,17.13a1.41,1.41,0,0,1,.08.4c0,.31-.39.47-1.18.47h-.47c-.67,0-1.06-.15-1.18-.45l-1.39-4H1495l-1.36,4c-.12.3-.49.45-1.1.45h-.4C1491.3,37.59,1490.88,37.43,1490.88,37.12Zm10.53-6.37L1499,23.83a8.59,8.59,0,0,1-.2-.86c-.06-.34-.11-.57-.14-.71h-.06a10.29,10.29,0,0,1-.39,1.57l-2.41,6.92Z"/><path class="cls-1" d="M1508.83,42.33V28a14.64,14.64,0,0,0-.16-2.52,8.12,8.12,0,0,1-.16-.89c0-.24.22-.42.66-.52a4.9,4.9,0,0,1,1.2-.16.61.61,0,0,1,.58.38,3.6,3.6,0,0,1,.27.78,5.46,5.46,0,0,1,.12.54,5.92,5.92,0,0,1,1.82-1.45,4.71,4.71,0,0,1,2.14-.51,4.31,4.31,0,0,1,2.69.87,5.51,5.51,0,0,1,1.74,2.48,10.52,10.52,0,0,1,.6,3.7,8.18,8.18,0,0,1-1.45,5.16,4.72,4.72,0,0,1-3.92,1.86,5.1,5.1,0,0,1-1.86-.32,6.19,6.19,0,0,1-1.57-.89v5.82c0,.42-.41.63-1.21.63H1510Q1508.83,43,1508.83,42.33Zm7.92-8.07a6.06,6.06,0,0,0,.8-3.43,7.33,7.33,0,0,0-.73-3.63,2.34,2.34,0,0,0-2.15-1.27,3.36,3.36,0,0,0-1.65.45,5.38,5.38,0,0,0-1.49,1.28v6.81a4.34,4.34,0,0,0,2.83,1A2.69,2.69,0,0,0,1516.75,34.26Z"/><path class="cls-1" d="M1523.84,42.33V28a13.67,13.67,0,0,0-.16-2.52c-.1-.52-.15-.82-.15-.89,0-.24.22-.42.65-.52a5,5,0,0,1,1.21-.16.6.6,0,0,1,.57.38,3.17,3.17,0,0,1,.28.78c.06.28.1.45.12.54a5.92,5.92,0,0,1,1.82-1.45,4.64,4.64,0,0,1,2.13-.51,4.29,4.29,0,0,1,2.69.87,5.51,5.51,0,0,1,1.74,2.48,10.51,10.51,0,0,1,.61,3.7,8.18,8.18,0,0,1-1.46,5.16,4.71,4.71,0,0,1-3.92,1.86,5.14,5.14,0,0,1-1.86-.32,6.36,6.36,0,0,1-1.57-.89v5.82q0,.63-1.2.63h-.29C1524.24,43,1523.84,42.75,1523.84,42.33Zm7.93-8.07a6.14,6.14,0,0,0,.8-3.43,7.44,7.44,0,0,0-.73-3.63,2.34,2.34,0,0,0-2.15-1.27,3.36,3.36,0,0,0-1.65.45,5.42,5.42,0,0,0-1.5,1.28v6.81a4.36,4.36,0,0,0,2.83,1A2.69,2.69,0,0,0,1531.77,34.26Z"/><path class="cls-1" d="M1539.77,36.84a3.67,3.67,0,0,1-1-2.92V18.46c0-.44.4-.66,1.18-.66h.29c.8,0,1.21.22,1.21.66V33.79a2,2,0,0,0,.34,1.32,1.2,1.2,0,0,0,.94.38,2.77,2.77,0,0,0,.62-.06,1.34,1.34,0,0,1,.38-.07c.17,0,.32.19.44.56a3.12,3.12,0,0,1,.18.86c0,.62-.7.94-2.09.94A3.67,3.67,0,0,1,1539.77,36.84Z"/><path class="cls-1" d="M1546.64,21.45V19.74c0-.43.46-.65,1.39-.65s1.36.22,1.36.65v1.71c0,.43-.45.65-1.36.65S1546.64,21.88,1546.64,21.45Zm0,15.48V24.43c0-.43.4-.65,1.2-.65h.26c.81,0,1.21.22,1.21.65v12.5c0,.44-.4.66-1.21.66h-.26Q1546.67,37.59,1546.67,36.93Z"/><path class="cls-1" d="M1554.34,36c-1.06-1.13-1.59-2.91-1.59-5.36s.58-4.25,1.74-5.36a6.4,6.4,0,0,1,4.62-1.66,9.09,9.09,0,0,1,2.79.4c.85.27,1.27.6,1.27,1a2.15,2.15,0,0,1-.36,1c-.25.41-.46.61-.66.61l-.34-.13a11.13,11.13,0,0,0-1.22-.44,5.15,5.15,0,0,0-1.45-.19,3.19,3.19,0,0,0-2.66,1.14,5.78,5.78,0,0,0-.9,3.58,6.44,6.44,0,0,0,.85,3.74,3.3,3.3,0,0,0,2.84,1.16,5.39,5.39,0,0,0,1.59-.2,9.22,9.22,0,0,0,1.27-.48l.34-.1c.19,0,.41.19.65.58a2,2,0,0,1,.37.94c0,.4-.46.75-1.38,1a9.12,9.12,0,0,1-2.87.45A6.44,6.44,0,0,1,1554.34,36Z"/><path class="cls-1" d="M1566.56,36.71a3.64,3.64,0,0,1-1.16-2.9,3.77,3.77,0,0,1,2.2-3.7,14.71,14.71,0,0,1,6.16-1.09V27.89a1.86,1.86,0,0,0-.63-1.47,3.06,3.06,0,0,0-2-.55,6.53,6.53,0,0,0-1.88.25,9.22,9.22,0,0,0-1.36.53,3.59,3.59,0,0,1-.64.27c-.2,0-.42-.2-.67-.61a2.1,2.1,0,0,1-.38-.93q0-.37.69-.78a7.28,7.28,0,0,1,1.84-.68,10.5,10.5,0,0,1,2.42-.27,6.12,6.12,0,0,1,3.95,1.11,3.8,3.8,0,0,1,1.34,3.08v5.61a14.91,14.91,0,0,0,.16,2.54,8.12,8.12,0,0,1,.16.89c0,.25-.21.42-.64.52a4.83,4.83,0,0,1-1.19.16.59.59,0,0,1-.59-.39,3.75,3.75,0,0,1-.27-.84c-.06-.3-.1-.5-.11-.6a6.19,6.19,0,0,1-1.77,1.41,5.08,5.08,0,0,1-2.48.58A4.59,4.59,0,0,1,1566.56,36.71Zm5.6-1.72a6,6,0,0,0,1.6-1.28V31.09a13.9,13.9,0,0,0-4.06.48,2,2,0,0,0-1.52,2,1.8,1.8,0,0,0,.51,1.38,2.06,2.06,0,0,0,1.46.48A4.06,4.06,0,0,0,1572.16,35Z"/><path class="cls-1" d="M1582.06,36.84a3.64,3.64,0,0,1-1-2.92V26.06h-1a.51.51,0,0,1-.46-.23,1.4,1.4,0,0,1-.14-.72v-.34a1.45,1.45,0,0,1,.14-.72.51.51,0,0,1,.46-.22h1l.34-2.67c.05-.44.39-.66,1-.66h.42c.63,0,.94.22.94.66v2.67h1.94a.51.51,0,0,1,.46.22,1.45,1.45,0,0,1,.14.72v.34a1.4,1.4,0,0,1-.14.72.51.51,0,0,1-.46.23h-1.94v7.73a2,2,0,0,0,.33,1.32,1.19,1.19,0,0,0,1,.38,2.71,2.71,0,0,0,.62-.06,1.4,1.4,0,0,1,.38-.07c.17,0,.32.19.45.56a3.12,3.12,0,0,1,.18.86c0,.62-.7.94-2.1.94A3.67,3.67,0,0,1,1582.06,36.84Z"/><path class="cls-1" d="M1589.54,21.45V19.74c0-.43.46-.65,1.39-.65s1.36.22,1.36.65v1.71c0,.43-.46.65-1.36.65S1589.54,21.88,1589.54,21.45Zm0,15.48V24.43c0-.43.4-.65,1.21-.65h.26c.8,0,1.21.22,1.21.65v12.5c0,.44-.41.66-1.21.66h-.26C1590,37.59,1589.56,37.37,1589.56,36.93Z"/><path class="cls-1" d="M1597.27,35.92a7.64,7.64,0,0,1-1.57-5.2,7.76,7.76,0,0,1,1.59-5.24,5.74,5.74,0,0,1,4.56-1.83,5.6,5.6,0,0,1,4.52,1.82,7.84,7.84,0,0,1,1.56,5.25,7.74,7.74,0,0,1-1.54,5.2,5.66,5.66,0,0,1-4.54,1.8A5.75,5.75,0,0,1,1597.27,35.92Zm7.09-1.61a6.34,6.34,0,0,0,.82-3.61,6.41,6.41,0,0,0-.82-3.63,2.9,2.9,0,0,0-2.56-1.2,2.82,2.82,0,0,0-2.51,1.2,6.41,6.41,0,0,0-.82,3.63,6.52,6.52,0,0,0,.8,3.61,2.83,2.83,0,0,0,2.53,1.18A2.91,2.91,0,0,0,1604.36,34.31Z"/><path class="cls-1" d="M1611.34,36.93V28a13.67,13.67,0,0,0-.16-2.52c-.1-.52-.16-.82-.16-.89,0-.24.22-.42.66-.52a5,5,0,0,1,1.2-.16.57.57,0,0,1,.57.37,3.76,3.76,0,0,1,.26.78c.06.28.1.47.12.58a5.88,5.88,0,0,1,1.86-1.46,4.92,4.92,0,0,1,2.17-.53,4.11,4.11,0,0,1,3.08,1.11,4.27,4.27,0,0,1,1.09,3.13v9q0,.66-1.2.66h-.29c-.81,0-1.21-.22-1.21-.66V28.21a2.25,2.25,0,0,0-.6-1.67A2.43,2.43,0,0,0,1617,26a3,3,0,0,0-1.62.49,4.31,4.31,0,0,0-1.31,1.24v9.25c0,.44-.4.66-1.21.66h-.29Q1611.34,37.59,1611.34,36.93Z"/><path class="cls-2" d="M53.45,170.25a.91.91,0,0,1-.21-.67V155.94a.76.76,0,0,1,.88-.88h4.71a6.73,6.73,0,0,1,5.22,2,9.87,9.87,0,0,1,0,11.42,6.7,6.7,0,0,1-5.22,2H54.12A.91.91,0,0,1,53.45,170.25Zm5.38-2.67a3.09,3.09,0,0,0,2.66-1.23,7.59,7.59,0,0,0,0-7.17A3.09,3.09,0,0,0,58.83,158H56.65v9.63Z"/><path class="cls-2" d="M66.86,170a2.34,2.34,0,0,1,.08-.39l4.85-14.15c.11-.31.53-.46,1.25-.46h1.14c.74,0,1.15.15,1.26.46l4.84,14.15a1.48,1.48,0,0,1,.06.39c0,.33-.36.49-1.1.49h-1c-.72,0-1.13-.16-1.24-.46l-.88-2.69H71l-.88,2.69c-.1.3-.44.46-1,.46H68.2C67.3,170.51,66.86,170.35,66.86,170Zm8.36-5.56L74,160.54a10.81,10.81,0,0,1-.33-1.41h-.08c0,.09,0,.29-.1.59a3.93,3.93,0,0,1-.24.82l-1.29,3.92Z"/><path class="cls-2" d="M83.8,169.8V158H80.3a.55.55,0,0,1-.51-.27,1.77,1.77,0,0,1-.15-.84v-.68a1.72,1.72,0,0,1,.15-.83.55.55,0,0,1,.51-.27H90.71a.53.53,0,0,1,.5.27,1.72,1.72,0,0,1,.15.83v.68a1.77,1.77,0,0,1-.15.84.53.53,0,0,1-.5.27h-3.5V169.8c0,.47-.44.71-1.32.71h-.77C84.24,170.51,83.8,170.27,83.8,169.8Z"/><path class="cls-2" d="M90.66,170a1.83,1.83,0,0,1,.09-.39l4.84-14.15c.12-.31.53-.46,1.25-.46H98c.73,0,1.15.15,1.25.46l4.84,14.15a1.54,1.54,0,0,1,.07.39c0,.33-.37.49-1.1.49h-1c-.72,0-1.13-.16-1.23-.46l-.88-2.69h-5.2l-.88,2.69c-.1.3-.44.46-1,.46H92C91.11,170.51,90.66,170.35,90.66,170ZM99,164.46l-1.25-3.92a8.26,8.26,0,0,1-.33-1.41h-.09c0,.09,0,.29-.1.59a3.93,3.93,0,0,1-.23.82l-1.3,3.92Z"/><path class="cls-2" d="M9.14,196.2V182.34a.93.93,0,0,1,.21-.67.91.91,0,0,1,.67-.21h4.29q5.48,0,5.48,4.14a3.43,3.43,0,0,1-.69,2.14,4.15,4.15,0,0,1-1.89,1.36v.09a2,2,0,0,1,.86.73,5.44,5.44,0,0,1,.73,1.29l1.93,4.84a1.17,1.17,0,0,1,.11.42c0,.13-.11.24-.33.32a3.07,3.07,0,0,1-1,.12h-.9c-.72,0-1.14-.16-1.27-.46l-1.74-4.29a2.81,2.81,0,0,0-.8-1,2.57,2.57,0,0,0-1.42-.29h-.86v5.36c0,.47-.44.71-1.32.71h-.75C9.58,196.91,9.14,196.67,9.14,196.2Zm5.48-8.29a1.57,1.57,0,0,0,1.19-.55,1.94,1.94,0,0,0,.5-1.34,1.55,1.55,0,0,0-.49-1.22,1.94,1.94,0,0,0-1.36-.45H12.53v3.56Z"/><path class="cls-2" d="M23,196.65a.91.91,0,0,1-.21-.67V182.34a.93.93,0,0,1,.21-.67.9.9,0,0,1,.67-.21h7.72a.53.53,0,0,1,.5.27,1.6,1.6,0,0,1,.16.83v.69a1.6,1.6,0,0,1-.16.83.53.53,0,0,1-.5.27H26.12v3.19h4.62a.53.53,0,0,1,.51.26,1.77,1.77,0,0,1,.15.84v.68a1.72,1.72,0,0,1-.15.83.54.54,0,0,1-.51.27H26.12V194h5.24a.56.56,0,0,1,.51.27,1.72,1.72,0,0,1,.15.83v.68a1.8,1.8,0,0,1-.15.84.55.55,0,0,1-.51.26H23.62A.9.9,0,0,1,23,196.65Z"/><path class="cls-2" d="M46.2,188.51a.94.94,0,0,1,.21.68v6.11c0,.66-.55,1.12-1.65,1.37a16.28,16.28,0,0,1-3.48.37q-3.69,0-5.46-1.93t-1.78-6q0-7.83,7.35-7.83a11.14,11.14,0,0,1,2.11.2,7.13,7.13,0,0,1,1.85.55c.5.23.75.49.75.79a2,2,0,0,1-.24.8,4.19,4.19,0,0,1-.58.88.92.92,0,0,1-.61.39,3.65,3.65,0,0,1-.55-.2,7.54,7.54,0,0,0-2.79-.51,3.37,3.37,0,0,0-2.87,1.23,6.09,6.09,0,0,0-.94,3.72q0,5,3.76,5A8.88,8.88,0,0,0,43,194v-2.79H41.06a.54.54,0,0,1-.5-.26,1.66,1.66,0,0,1-.16-.84v-.7a1.64,1.64,0,0,1,.16-.84.52.52,0,0,1,.5-.26h4.47A1,1,0,0,1,46.2,188.51Z"/><path class="cls-2" d="M49.25,196.2V182.12q0-.72,1.32-.72h.77q1.32,0,1.32.72V196.2c0,.49-.44.73-1.32.73h-.77C49.69,196.93,49.25,196.69,49.25,196.2Z"/><path class="cls-2" d="M57,196.73a5.4,5.4,0,0,1-1.83-.79c-.41-.28-.61-.56-.61-.84a1.79,1.79,0,0,1,.24-.79,3.45,3.45,0,0,1,.57-.81.88.88,0,0,1,.55-.35,1.78,1.78,0,0,1,.62.26,11.36,11.36,0,0,0,1.27.55,4.22,4.22,0,0,0,1.35.2,3,3,0,0,0,1.46-.34,1.27,1.27,0,0,0,.6-1.2,1.28,1.28,0,0,0-.56-1.11,9.19,9.19,0,0,0-1.81-.92l-1-.44a6,6,0,0,1-2.18-1.64,4.3,4.3,0,0,1-.79-2.78,4.11,4.11,0,0,1,.73-2.5,4.42,4.42,0,0,1,1.93-1.47,6.92,6.92,0,0,1,2.55-.47,8.06,8.06,0,0,1,2,.23,4.4,4.4,0,0,1,1.44.6,1,1,0,0,1,.48.71,2.13,2.13,0,0,1-.2.77,3.15,3.15,0,0,1-.48.8.76.76,0,0,1-.53.34,1,1,0,0,1-.36-.11l-.43-.17a5.1,5.1,0,0,0-1.65-.27,2.57,2.57,0,0,0-1.6.38,1.07,1.07,0,0,0-.45.85,1.43,1.43,0,0,0,.31,1,2.31,2.31,0,0,0,.75.6c.29.16.72.36,1.3.61a16.25,16.25,0,0,1,2,1,4.36,4.36,0,0,1,1.38,1.36,4.11,4.11,0,0,1,.58,2.28A5,5,0,0,1,64,195a4.22,4.22,0,0,1-1.84,1.57,6.11,6.11,0,0,1-2.42.48A10.57,10.57,0,0,1,57,196.73Z"/><path class="cls-2" d="M69.4,196.2V184.35H65.9a.56.56,0,0,1-.51-.27,1.72,1.72,0,0,1-.15-.83v-.69a1.72,1.72,0,0,1,.15-.83.56.56,0,0,1,.51-.27H76.31a.53.53,0,0,1,.5.27,1.71,1.71,0,0,1,.16.83v.69a1.71,1.71,0,0,1-.16.83.53.53,0,0,1-.5.27h-3.5V196.2c0,.47-.44.71-1.32.71h-.77C69.84,196.91,69.4,196.67,69.4,196.2Z"/><path class="cls-2" d="M78.66,196.2V182.34a.93.93,0,0,1,.21-.67.91.91,0,0,1,.67-.21h4.29q5.48,0,5.48,4.14a3.38,3.38,0,0,1-.7,2.14,4.07,4.07,0,0,1-1.88,1.36v.09a2,2,0,0,1,.86.73,5.82,5.82,0,0,1,.73,1.29l1.93,4.84a1.17,1.17,0,0,1,.11.42c0,.13-.11.24-.33.32a3.07,3.07,0,0,1-1,.12h-.9c-.72,0-1.14-.16-1.27-.46l-1.74-4.29a2.72,2.72,0,0,0-.81-1,2.51,2.51,0,0,0-1.41-.29h-.86v5.36c0,.47-.44.71-1.32.71H80C79.1,196.91,78.66,196.67,78.66,196.2Zm5.48-8.29a1.57,1.57,0,0,0,1.19-.55,1.94,1.94,0,0,0,.5-1.34,1.55,1.55,0,0,0-.49-1.22,1.94,1.94,0,0,0-1.36-.45H82.05v3.56Z"/><path class="cls-2" d="M90.56,196.42a2,2,0,0,1,.09-.39l4.84-14.15c.12-.31.54-.46,1.25-.46h1.15c.73,0,1.15.15,1.25.46L104,196a1.19,1.19,0,0,1,.07.39c0,.33-.37.49-1.1.49h-1c-.72,0-1.13-.16-1.23-.46l-.88-2.69H94.68l-.88,2.69c-.11.3-.44.46-1,.46H91.9C91,196.91,90.56,196.75,90.56,196.42Zm8.36-5.56-1.25-3.92a9.36,9.36,0,0,1-.33-1.41h-.09c0,.09,0,.29-.1.59a3.93,3.93,0,0,1-.23.82l-1.3,3.92Z"/><path class="cls-2" d="M107.5,196.2V184.35H104a.53.53,0,0,1-.5-.27,1.6,1.6,0,0,1-.16-.83v-.69a1.6,1.6,0,0,1,.16-.83.53.53,0,0,1,.5-.27h10.41a.56.56,0,0,1,.51.27,1.72,1.72,0,0,1,.15.83v.69a1.72,1.72,0,0,1-.15.83.56.56,0,0,1-.51.27h-3.5V196.2c0,.47-.44.71-1.32.71h-.77C107.94,196.91,107.5,196.67,107.5,196.2Z"/><path class="cls-2" d="M116.65,196.2V182.12q0-.72,1.32-.72h.77q1.32,0,1.32.72V196.2c0,.49-.44.73-1.32.73H118C117.09,196.93,116.65,196.69,116.65,196.2Z"/><path class="cls-2" d="M124.29,195a10.23,10.23,0,0,1,0-11.68,7.75,7.75,0,0,1,10.46,0,10.33,10.33,0,0,1,0,11.68,7.72,7.72,0,0,1-10.46,0Zm7.9-2.12a6.42,6.42,0,0,0,.9-3.72,6.35,6.35,0,0,0-.9-3.7,3.44,3.44,0,0,0-5.34,0,6.28,6.28,0,0,0-.91,3.7,6.34,6.34,0,0,0,.91,3.72,3.42,3.42,0,0,0,5.34,0Z"/><path class="cls-2" d="M139.07,196.2V182.12c0-.47.44-.7,1.32-.7h1a2.79,2.79,0,0,1,.88.12,1.12,1.12,0,0,1,.57.47l5,7.64a11.55,11.55,0,0,1,.79,1.3l.09,0c0-.33-.05-.83-.05-1.49v-7.31c0-.47.44-.7,1.32-.7h.64c.88,0,1.32.23,1.32.7V196.2c0,.47-.44.71-1.32.71h-.83a2.71,2.71,0,0,1-.88-.12,1.08,1.08,0,0,1-.58-.48l-5.06-7.74c-.29-.43-.55-.86-.79-1.3l-.09,0c0,.34,0,.84,0,1.5v7.41c0,.47-.44.71-1.32.71h-.64C139.51,196.91,139.07,196.67,139.07,196.2Z"/><path class="cls-2" d="M1580.23,170.25a.91.91,0,0,1-.21-.67V155.94a.76.76,0,0,1,.88-.88h4.71a6.73,6.73,0,0,1,5.22,2,9.87,9.87,0,0,1,0,11.42,6.7,6.7,0,0,1-5.22,2h-4.71A.91.91,0,0,1,1580.23,170.25Zm5.38-2.67a3.09,3.09,0,0,0,2.66-1.23,7.59,7.59,0,0,0,0-7.17,3.09,3.09,0,0,0-2.66-1.23h-2.18v9.63Z"/><path class="cls-2" d="M1593.64,170a2.34,2.34,0,0,1,.08-.39l4.85-14.15c.11-.31.53-.46,1.25-.46H1601c.74,0,1.15.15,1.26.46l4.84,14.15a1.48,1.48,0,0,1,.06.39c0,.33-.36.49-1.1.49h-1c-.71,0-1.12-.16-1.23-.46l-.88-2.69h-5.19l-.88,2.69c-.1.3-.44.46-1,.46H1595C1594.08,170.51,1593.64,170.35,1593.64,170Zm8.36-5.56-1.26-3.92a10.81,10.81,0,0,1-.33-1.41h-.08c0,.09,0,.29-.1.59a4.65,4.65,0,0,1-.23.82l-1.3,3.92Z"/><path class="cls-2" d="M1610.58,169.8V158h-3.5a.55.55,0,0,1-.51-.27,1.77,1.77,0,0,1-.15-.84v-.68a1.72,1.72,0,0,1,.15-.83.55.55,0,0,1,.51-.27h10.41a.53.53,0,0,1,.5.27,1.72,1.72,0,0,1,.15.83v.68a1.77,1.77,0,0,1-.15.84.53.53,0,0,1-.5.27H1614V169.8c0,.47-.44.71-1.32.71h-.77C1611,170.51,1610.58,170.27,1610.58,169.8Z"/><path class="cls-2" d="M1617.44,170a1.83,1.83,0,0,1,.09-.39l4.84-14.15c.12-.31.53-.46,1.25-.46h1.15c.73,0,1.15.15,1.25.46l4.84,14.15a1.54,1.54,0,0,1,.07.39c0,.33-.37.49-1.1.49h-1c-.72,0-1.13-.16-1.23-.46l-.88-2.69h-5.2l-.88,2.69c-.1.3-.44.46-1,.46h-.88C1617.89,170.51,1617.44,170.35,1617.44,170Zm8.36-5.56-1.25-3.92a8.26,8.26,0,0,1-.33-1.41h-.09c0,.09-.05.29-.1.59a3.93,3.93,0,0,1-.23.82l-1.3,3.92Z"/><path class="cls-2" d="M1542.63,196.2V182.34a.93.93,0,0,1,.21-.67.91.91,0,0,1,.67-.21h4.29q5.48,0,5.48,4.14a3.43,3.43,0,0,1-.69,2.14,4.15,4.15,0,0,1-1.89,1.36v.09a2,2,0,0,1,.86.73,5.44,5.44,0,0,1,.73,1.29l1.93,4.84a1.24,1.24,0,0,1,.12.42c0,.13-.12.24-.33.32a3.19,3.19,0,0,1-1,.12h-.9c-.72,0-1.14-.16-1.27-.46l-1.74-4.29a2.81,2.81,0,0,0-.8-1,2.57,2.57,0,0,0-1.42-.29H1546v5.36c0,.47-.44.71-1.32.71H1544C1543.07,196.91,1542.63,196.67,1542.63,196.2Zm5.48-8.29a1.57,1.57,0,0,0,1.19-.55,1.94,1.94,0,0,0,.5-1.34,1.55,1.55,0,0,0-.49-1.22,1.94,1.94,0,0,0-1.36-.45H1546v3.56Z"/><path class="cls-2" d="M1556.44,196.65a.91.91,0,0,1-.21-.67V182.34a.93.93,0,0,1,.21-.67.9.9,0,0,1,.67-.21h7.72a.53.53,0,0,1,.5.27,1.6,1.6,0,0,1,.16.83v.69a1.6,1.6,0,0,1-.16.83.53.53,0,0,1-.5.27h-5.22v3.19h4.62a.53.53,0,0,1,.51.26,1.77,1.77,0,0,1,.15.84v.68a1.72,1.72,0,0,1-.15.83.54.54,0,0,1-.51.27h-4.62V194h5.24a.55.55,0,0,1,.51.27,1.72,1.72,0,0,1,.15.83v.68a1.8,1.8,0,0,1-.15.84.54.54,0,0,1-.51.26h-7.74A.9.9,0,0,1,1556.44,196.65Z"/><path class="cls-2" d="M1580,199.84c-.39-.15-.65-.25-.79-.29q-1.56-.65-7.65-3a5.62,5.62,0,0,1-3-2.64,9.72,9.72,0,0,1-1-4.71,8.46,8.46,0,0,1,1.83-5.84,7.75,7.75,0,0,1,10.46,0,8.51,8.51,0,0,1,1.82,5.84,9.79,9.79,0,0,1-.89,4.38,5.77,5.77,0,0,1-2.57,2.64v.09l3.37,1.21c.2.07.31.19.31.35a3,3,0,0,1-.18.78,4.68,4.68,0,0,1-.45,1c-.18.3-.38.46-.58.46A3.41,3.41,0,0,1,1580,199.84Zm-2.72-6.89a6.65,6.65,0,0,0,.9-3.79,6.35,6.35,0,0,0-.9-3.7,3,3,0,0,0-2.66-1.27,3.08,3.08,0,0,0-2.68,1.27,6.28,6.28,0,0,0-.91,3.7,6.57,6.57,0,0,0,.91,3.79,3.08,3.08,0,0,0,2.68,1.3A3,3,0,0,0,1577.26,193Z"/><path class="cls-2" d="M1585.75,195.64a4.82,4.82,0,0,1-1.67-3.93v-9.59c0-.47.44-.7,1.32-.7h.75c.88,0,1.32.23,1.32.7v9.38a2.44,2.44,0,0,0,.83,1.91,3.12,3.12,0,0,0,2.16.75,3.16,3.16,0,0,0,2.17-.75,2.45,2.45,0,0,0,.84-1.91v-9.38c0-.47.44-.7,1.32-.7h.73c.88,0,1.32.23,1.32.7v9.59a4.85,4.85,0,0,1-1.67,3.93,8.62,8.62,0,0,1-9.42,0Z"/><path class="cls-2" d="M1600.19,196.65a.91.91,0,0,1-.21-.67V182.34a.76.76,0,0,1,.88-.88h7.73a.53.53,0,0,1,.5.27,1.71,1.71,0,0,1,.16.83v.69a1.71,1.71,0,0,1-.16.83.53.53,0,0,1-.5.27h-5.22v3.19H1608a.54.54,0,0,1,.51.26,1.77,1.77,0,0,1,.15.84v.68a1.72,1.72,0,0,1-.15.83.55.55,0,0,1-.51.27h-4.62V194h5.24a.53.53,0,0,1,.5.27,1.6,1.6,0,0,1,.16.83v.68a1.66,1.66,0,0,1-.16.84.52.52,0,0,1-.5.26h-7.75A.93.93,0,0,1,1600.19,196.65Z"/><path class="cls-2" d="M1613.23,196.73a5.4,5.4,0,0,1-1.83-.79c-.41-.28-.61-.56-.61-.84a1.79,1.79,0,0,1,.24-.79,3.45,3.45,0,0,1,.57-.81c.22-.24.4-.35.55-.35a1.86,1.86,0,0,1,.62.26,10.62,10.62,0,0,0,1.27.55,4.15,4.15,0,0,0,1.34.2,3,3,0,0,0,1.47-.34,1.27,1.27,0,0,0,.6-1.2,1.3,1.3,0,0,0-.56-1.11,9.19,9.19,0,0,0-1.81-.92l-1-.44a6,6,0,0,1-2.17-1.64,4.3,4.3,0,0,1-.8-2.78,4.12,4.12,0,0,1,.74-2.5,4.37,4.37,0,0,1,1.93-1.47,6.92,6.92,0,0,1,2.55-.47,8,8,0,0,1,2,.23,4.22,4.22,0,0,1,1.44.6c.33.24.49.47.49.71a2.13,2.13,0,0,1-.2.77,3.15,3.15,0,0,1-.48.8c-.2.23-.37.34-.53.34a.94.94,0,0,1-.37-.11l-.42-.17a5.1,5.1,0,0,0-1.65-.27,2.55,2.55,0,0,0-1.6.38,1.07,1.07,0,0,0-.45.85,1.43,1.43,0,0,0,.31,1,2.21,2.21,0,0,0,.75.6c.29.16.72.36,1.29.61a15.79,15.79,0,0,1,2,1,4.23,4.23,0,0,1,1.37,1.36,4.11,4.11,0,0,1,.59,2.28,4.89,4.89,0,0,1-.72,2.77,4.2,4.2,0,0,1-1.83,1.57,6.11,6.11,0,0,1-2.42.48A10.52,10.52,0,0,1,1613.23,196.73Z"/><path class="cls-2" d="M1625.64,196.2V184.35h-3.5a.54.54,0,0,1-.51-.27,1.72,1.72,0,0,1-.15-.83v-.69a1.72,1.72,0,0,1,.15-.83.54.54,0,0,1,.51-.27h10.4a.54.54,0,0,1,.51.27,1.72,1.72,0,0,1,.15.83v.69a1.72,1.72,0,0,1-.15.83.54.54,0,0,1-.51.27h-3.49V196.2c0,.47-.44.71-1.32.71H1627C1626.08,196.91,1625.64,196.67,1625.64,196.2Z"/><path class="cls-2" d="M1635.76,195a10.23,10.23,0,0,1,0-11.68,7.75,7.75,0,0,1,10.46,0,10.33,10.33,0,0,1,0,11.68,7.72,7.72,0,0,1-10.46,0Zm7.89-2.12a6.34,6.34,0,0,0,.91-3.72,6.28,6.28,0,0,0-.91-3.7,3,3,0,0,0-2.66-1.27,3.08,3.08,0,0,0-2.67,1.27,6.28,6.28,0,0,0-.91,3.7,6.34,6.34,0,0,0,.91,3.72,3.08,3.08,0,0,0,2.67,1.28A3,3,0,0,0,1643.65,192.88Z"/><path class="cls-2" d="M1650.54,196.2V182.34a.93.93,0,0,1,.21-.67.91.91,0,0,1,.67-.21h4.29q5.47,0,5.48,4.14a3.38,3.38,0,0,1-.7,2.14,4.07,4.07,0,0,1-1.88,1.36v.09a2,2,0,0,1,.86.73,5.82,5.82,0,0,1,.73,1.29l1.93,4.84a1.17,1.17,0,0,1,.11.42c0,.13-.11.24-.33.32a3.07,3.07,0,0,1-1,.12h-.9c-.72,0-1.14-.16-1.27-.46l-1.74-4.29a2.72,2.72,0,0,0-.81-1,2.51,2.51,0,0,0-1.41-.29h-.86v5.36c0,.47-.44.71-1.32.71h-.75C1651,196.91,1650.54,196.67,1650.54,196.2Zm5.48-8.29a1.57,1.57,0,0,0,1.19-.55,1.94,1.94,0,0,0,.5-1.34,1.55,1.55,0,0,0-.49-1.22,1.94,1.94,0,0,0-1.36-.45h-1.93v3.56Z"/><path class="cls-2" d="M1665.37,196.73a5.4,5.4,0,0,1-1.83-.79c-.41-.28-.62-.56-.62-.84a1.82,1.82,0,0,1,.25-.79,3.45,3.45,0,0,1,.57-.81c.22-.24.4-.35.55-.35a1.76,1.76,0,0,1,.61.26,11.44,11.44,0,0,0,1.28.55,4.15,4.15,0,0,0,1.34.2,3.07,3.07,0,0,0,1.47-.34,1.27,1.27,0,0,0,.6-1.2,1.3,1.3,0,0,0-.56-1.11,9,9,0,0,0-1.82-.92l-1-.44a6.11,6.11,0,0,1-2.18-1.64,4.36,4.36,0,0,1-.79-2.78,4.12,4.12,0,0,1,.74-2.5,4.39,4.39,0,0,1,1.92-1.47,7,7,0,0,1,2.56-.47,8,8,0,0,1,2,.23,4.22,4.22,0,0,1,1.44.6c.33.24.49.47.49.71a2.13,2.13,0,0,1-.2.77,2.91,2.91,0,0,1-.49.8.74.74,0,0,1-.52.34.94.94,0,0,1-.37-.11l-.43-.17a5,5,0,0,0-1.64-.27,2.55,2.55,0,0,0-1.6.38,1.07,1.07,0,0,0-.45.85,1.43,1.43,0,0,0,.31,1,2.28,2.28,0,0,0,.74.6c.3.16.73.36,1.3.61a15.79,15.79,0,0,1,2,1,4.33,4.33,0,0,1,1.37,1.36,4.11,4.11,0,0,1,.59,2.28,4.89,4.89,0,0,1-.72,2.77,4.17,4.17,0,0,1-1.84,1.57,6,6,0,0,1-2.42.48A10.44,10.44,0,0,1,1665.37,196.73Z"/><path class="cls-3" d="M648.46,178l-2.7-4.84c-.19-.32-.35-.61-.49-.86l-.08,0v9.11c0,.47-.44.71-1.32.71h-.64c-.88,0-1.32-.24-1.32-.71V167.35c0-.47.44-.7,1.32-.7h1.16a1.46,1.46,0,0,1,1.39.59l3.65,6.51.22.38.2-.38,3.72-6.51a1.45,1.45,0,0,1,1.38-.59h1.15c.88,0,1.32.23,1.32.7v14.08c0,.47-.44.71-1.32.71h-.64c-.88,0-1.32-.24-1.32-.71v-9.11l-.09,0c-.13.25-.29.54-.48.86L650.86,178a1,1,0,0,1-.88.42h-.64A1,1,0,0,1,648.46,178Z"/><path class="cls-3" d="M658.94,181.65a1.59,1.59,0,0,1,.08-.39l4.84-14.15c.12-.31.54-.46,1.26-.46h1.14c.73,0,1.15.15,1.26.46l4.84,14.15a1.43,1.43,0,0,1,.06.39c0,.32-.37.49-1.1.49h-1c-.72,0-1.13-.16-1.23-.47l-.88-2.68h-5.19l-.88,2.68c-.1.31-.44.47-1,.47h-.88C659.38,182.14,658.94,182,658.94,181.65Zm8.36-5.56L666,172.17a10.81,10.81,0,0,1-.33-1.41h-.09c0,.09,0,.28-.1.58a3.36,3.36,0,0,1-.23.83L664,176.09Z"/><path class="cls-3" d="M675.88,181.43V169.57h-3.5a.53.53,0,0,1-.51-.26,1.77,1.77,0,0,1-.15-.84v-.68a1.72,1.72,0,0,1,.15-.83.54.54,0,0,1,.51-.27h10.4a.54.54,0,0,1,.51.27,1.72,1.72,0,0,1,.15.83v.68a1.77,1.77,0,0,1-.15.84.53.53,0,0,1-.51.26h-3.49v11.86c0,.47-.44.71-1.32.71h-.77C676.32,182.14,675.88,181.9,675.88,181.43Z"/><path class="cls-3" d="M685.94,180.34q-1.77-1.92-1.77-6,0-7.83,7.35-7.83a10.85,10.85,0,0,1,2.24.23,5.74,5.74,0,0,1,1.78.6c.38.22.58.46.58.71a2,2,0,0,1-.25.8,3.84,3.84,0,0,1-.58.88.9.9,0,0,1-.6.38,2.61,2.61,0,0,1-.53-.19,6.73,6.73,0,0,0-1.12-.36,7.28,7.28,0,0,0-1.59-.15,3.37,3.37,0,0,0-2.87,1.23,6.14,6.14,0,0,0-.93,3.72c0,3.34,1.25,5,3.76,5a6.58,6.58,0,0,0,1.71-.2,8.45,8.45,0,0,0,1.41-.51,1.31,1.31,0,0,1,.49-.17.81.81,0,0,1,.62.37,3.37,3.37,0,0,1,.49.85,2.17,2.17,0,0,1,.18.69c0,.38-.25.72-.77,1a5.85,5.85,0,0,1-1.91.63,12.76,12.76,0,0,1-2.22.21Q687.71,182.27,685.94,180.34Z"/><path class="cls-3" d="M698.49,181.43V167.35c0-.47.44-.7,1.32-.7h.77c.88,0,1.32.23,1.32.7v5.44h5.94v-5.44c0-.47.44-.7,1.32-.7h.77c.88,0,1.32.23,1.32.7v14.08c0,.47-.44.71-1.32.71h-.77c-.88,0-1.32-.24-1.32-.71v-5.74H701.9v5.74c0,.47-.44.71-1.32.71h-.77C698.93,182.14,698.49,181.9,698.49,181.43Z"/><path class="cls-3" d="M714.33,181.43V167.35q0-.72,1.32-.72h.77q1.32,0,1.32.72v14.08c0,.49-.44.73-1.32.73h-.77C714.77,182.16,714.33,181.92,714.33,181.43Z"/><path class="cls-3" d="M720.67,181.43V167.35c0-.47.44-.7,1.32-.7h.94a2.75,2.75,0,0,1,.88.12,1,1,0,0,1,.57.47l5,7.64a12.49,12.49,0,0,1,.8,1.29l.08,0c0-.34,0-.83,0-1.49v-7.31c0-.47.44-.7,1.32-.7h.64c.88,0,1.32.23,1.32.7v14.08c0,.47-.44.71-1.32.71h-.84a2.51,2.51,0,0,1-.88-.13,1.07,1.07,0,0,1-.57-.47l-5.06-7.74a13.67,13.67,0,0,1-.79-1.3l-.09,0c0,.34,0,.84,0,1.5v7.41c0,.47-.44.71-1.32.71H722C721.11,182.14,720.67,181.9,720.67,181.43Z"/><path class="cls-3" d="M748.11,173.74a.93.93,0,0,1,.21.67v6.12c0,.66-.55,1.11-1.65,1.36a15.66,15.66,0,0,1-3.48.38q-3.69,0-5.46-1.93t-1.77-6q0-7.83,7.34-7.83a12.18,12.18,0,0,1,2.12.19,7.91,7.91,0,0,1,1.84.55c.5.24.75.5.75.8a2,2,0,0,1-.24.8,3.84,3.84,0,0,1-.58.88.89.89,0,0,1-.61.38,3.35,3.35,0,0,1-.55-.19,7.12,7.12,0,0,0-1.17-.36,7.77,7.77,0,0,0-1.62-.15,3.37,3.37,0,0,0-2.87,1.23,6.07,6.07,0,0,0-.94,3.72c0,3.34,1.26,5,3.76,5a8.88,8.88,0,0,0,1.72-.16v-2.79H743a.53.53,0,0,1-.5-.27,1.72,1.72,0,0,1-.15-.83v-.71a1.72,1.72,0,0,1,.15-.83.53.53,0,0,1,.5-.27h4.47A.91.91,0,0,1,748.11,173.74Z"/><path class="cls-3" d="M634.59,208.05a1.83,1.83,0,0,1,.09-.39l4.84-14.15c.12-.31.54-.46,1.26-.46h1.14c.73,0,1.15.15,1.25.46L648,207.66a1.15,1.15,0,0,1,.07.39c0,.33-.37.49-1.1.49h-1c-.72,0-1.13-.16-1.23-.47l-.88-2.68h-5.19l-.88,2.68c-.11.31-.44.47-1,.47h-.88C635,208.54,634.59,208.38,634.59,208.05Zm8.36-5.56-1.25-3.92a10.81,10.81,0,0,1-.33-1.41h-.09c0,.09,0,.28-.1.59a3.93,3.93,0,0,1-.23.82l-1.3,3.92Z"/><path class="cls-3" d="M650,208.28a.91.91,0,0,1-.21-.67V193.75c0-.47.44-.7,1.32-.7h.75c.88,0,1.32.23,1.32.7v11.86h4.75a.56.56,0,0,1,.51.26,1.8,1.8,0,0,1,.15.84v.68a1.8,1.8,0,0,1-.15.84.56.56,0,0,1-.51.26h-7.26A.91.91,0,0,1,650,208.28Z"/><path class="cls-3" d="M671.43,200.14a.93.93,0,0,1,.21.67v6.12c0,.66-.55,1.12-1.65,1.36a15.64,15.64,0,0,1-3.47.38q-3.71,0-5.47-1.93t-1.77-6q0-7.83,7.35-7.83a12.16,12.16,0,0,1,2.11.19,8.16,8.16,0,0,1,1.85.55c.49.24.74.5.74.8a2,2,0,0,1-.24.8,3.84,3.84,0,0,1-.58.88.89.89,0,0,1-.61.38,3.35,3.35,0,0,1-.55-.19,7.12,7.12,0,0,0-1.17-.36,7.77,7.77,0,0,0-1.62-.15,3.37,3.37,0,0,0-2.87,1.23,6.07,6.07,0,0,0-.94,3.72c0,3.34,1.26,5,3.77,5a8.85,8.85,0,0,0,1.71-.16v-2.79H666.3a.54.54,0,0,1-.51-.27,1.72,1.72,0,0,1-.15-.83V201a1.72,1.72,0,0,1,.15-.83.54.54,0,0,1,.51-.27h4.46A.91.91,0,0,1,671.43,200.14Z"/><path class="cls-3" d="M675.89,206.63a10.23,10.23,0,0,1,0-11.68,7.75,7.75,0,0,1,10.46,0,10.33,10.33,0,0,1,0,11.68,7.72,7.72,0,0,1-10.46,0Zm7.9-2.12a6.42,6.42,0,0,0,.9-3.72,6.33,6.33,0,0,0-.9-3.7,3.44,3.44,0,0,0-5.34,0,6.25,6.25,0,0,0-.91,3.7,6.34,6.34,0,0,0,.91,3.72,3.42,3.42,0,0,0,5.34,0Z"/><path class="cls-3" d="M690.67,207.83V194a.76.76,0,0,1,.88-.88h4.29q5.48,0,5.48,4.14a3.45,3.45,0,0,1-.69,2.14,4.15,4.15,0,0,1-1.89,1.36v.08a2.09,2.09,0,0,1,.86.74,5.44,5.44,0,0,1,.73,1.29l1.93,4.84a1.24,1.24,0,0,1,.12.42c0,.13-.12.24-.33.32a3.19,3.19,0,0,1-1,.12h-.9c-.72,0-1.14-.16-1.27-.47l-1.74-4.29a2.85,2.85,0,0,0-.8-1,2.56,2.56,0,0,0-1.42-.3h-.86v5.37c0,.47-.44.71-1.32.71H692C691.11,208.54,690.67,208.3,690.67,207.83Zm5.48-8.29a1.6,1.6,0,0,0,1.19-.55,2,2,0,0,0,.5-1.34,1.59,1.59,0,0,0-.49-1.23A2,2,0,0,0,696,196h-1.93v3.57Z"/><path class="cls-3" d="M704,207.83V193.75q0-.72,1.32-.72h.77q1.32,0,1.32.72v14.08c0,.49-.44.73-1.32.73h-.77C704.42,208.56,704,208.32,704,207.83Z"/><path class="cls-3" d="M713.13,207.83V196h-3.5a.52.52,0,0,1-.5-.26,1.75,1.75,0,0,1-.16-.84v-.68a1.71,1.71,0,0,1,.16-.83.53.53,0,0,1,.5-.27H720a.55.55,0,0,1,.51.27,1.72,1.72,0,0,1,.15.83v.68a1.77,1.77,0,0,1-.15.84.54.54,0,0,1-.51.26h-3.5v11.86c0,.47-.44.71-1.32.71h-.77C713.57,208.54,713.13,208.3,713.13,207.83Z"/><path class="cls-3" d="M722.57,207.83V193.75c0-.47.44-.7,1.32-.7h.77c.88,0,1.32.23,1.32.7v5.44h5.94v-5.44c0-.47.44-.7,1.32-.7H734c.88,0,1.32.23,1.32.7v14.08c0,.47-.44.71-1.32.71h-.77c-.88,0-1.32-.24-1.32-.71v-5.74H726v5.74c0,.47-.44.71-1.32.71h-.77C723,208.54,722.57,208.3,722.57,207.83Z"/><path class="cls-3" d="M745.08,204.4l-2.71-4.84c-.19-.32-.35-.61-.48-.86l-.09,0v9.11c0,.47-.44.71-1.32.71h-.64c-.88,0-1.32-.24-1.32-.71V193.75c0-.47.44-.7,1.32-.7H741a1.45,1.45,0,0,1,1.38.59l3.65,6.51.22.38.2-.38,3.72-6.51a1.46,1.46,0,0,1,1.39-.59h1.14c.88,0,1.32.23,1.32.7v14.08c0,.47-.44.71-1.32.71h-.64c-.88,0-1.32-.24-1.32-.71v-9.11l-.09,0c-.13.25-.29.54-.48.86l-2.71,4.84a1,1,0,0,1-.88.42H746A1,1,0,0,1,745.08,204.4Z"/><path class="cls-4" d="M898.36,181.88a.91.91,0,0,1-.2-.67V167.57a.91.91,0,0,1,.2-.67.94.94,0,0,1,.68-.21h4.7a6.74,6.74,0,0,1,5.23,2,9.91,9.91,0,0,1,0,11.42,6.7,6.7,0,0,1-5.23,2H899A.94.94,0,0,1,898.36,181.88Zm5.38-2.67a3.11,3.11,0,0,0,2.67-1.23,7.59,7.59,0,0,0,0-7.17,3.09,3.09,0,0,0-2.67-1.24h-2.17v9.64Z"/><path class="cls-4" d="M911.77,181.65a1.83,1.83,0,0,1,.09-.39l4.84-14.15c.12-.31.54-.46,1.26-.46h1.14c.73,0,1.15.15,1.25.46l4.84,14.15a1.15,1.15,0,0,1,.07.39c0,.32-.37.49-1.1.49h-1c-.72,0-1.13-.16-1.23-.47l-.88-2.68h-5.19l-.88,2.68c-.1.31-.44.47-1,.47h-.88C912.22,182.14,911.77,182,911.77,181.65Zm8.36-5.56-1.25-3.92a10.81,10.81,0,0,1-.33-1.41h-.09c0,.09-.05.28-.1.58a3.86,3.86,0,0,1-.23.83l-1.3,3.92Z"/><path class="cls-4" d="M928.71,181.43V169.57h-3.49a.53.53,0,0,1-.51-.26,1.77,1.77,0,0,1-.15-.84v-.68a1.72,1.72,0,0,1,.15-.83.54.54,0,0,1,.51-.27h10.4a.55.55,0,0,1,.51.27,1.72,1.72,0,0,1,.15.83v.68a1.77,1.77,0,0,1-.15.84.54.54,0,0,1-.51.26h-3.5v11.86c0,.47-.44.71-1.32.71H930C929.15,182.14,928.71,181.9,928.71,181.43Z"/><path class="cls-4" d="M935.58,181.65a1.83,1.83,0,0,1,.09-.39l4.84-14.15c.11-.31.53-.46,1.25-.46h1.14c.74,0,1.15.15,1.26.46L949,181.26a1.43,1.43,0,0,1,.06.39c0,.32-.36.49-1.1.49h-1c-.72,0-1.13-.16-1.24-.47l-.88-2.68h-5.19l-.88,2.68c-.1.31-.44.47-1,.47h-.88C936,182.14,935.58,182,935.58,181.65Zm8.36-5.56-1.26-3.92a10.81,10.81,0,0,1-.33-1.41h-.08c0,.09,0,.28-.1.58a3.86,3.86,0,0,1-.23.83l-1.3,3.92Z"/><path class="cls-4" d="M954.34,181.65a1.83,1.83,0,0,1,.09-.39l4.84-14.15c.12-.31.54-.46,1.26-.46h1.14c.73,0,1.15.15,1.25.46l4.84,14.15a1.15,1.15,0,0,1,.07.39c0,.32-.37.49-1.1.49h-1c-.72,0-1.13-.16-1.23-.47l-.88-2.68h-5.19l-.88,2.68c-.11.31-.44.47-1,.47h-.88C954.79,182.14,954.34,182,954.34,181.65Zm8.36-5.56-1.25-3.92a10.81,10.81,0,0,1-.33-1.41H961c0,.09,0,.28-.1.58a3.86,3.86,0,0,1-.23.83l-1.3,3.92Z"/><path class="cls-4" d="M970.59,180.34q-1.77-1.92-1.77-6,0-7.83,7.35-7.83a10.85,10.85,0,0,1,2.24.23,5.74,5.74,0,0,1,1.78.6c.38.22.58.46.58.71a2,2,0,0,1-.25.8,3.84,3.84,0,0,1-.58.88.9.9,0,0,1-.6.38,2.61,2.61,0,0,1-.53-.19,6.73,6.73,0,0,0-1.12-.36,7.28,7.28,0,0,0-1.59-.15,3.37,3.37,0,0,0-2.87,1.23,6.14,6.14,0,0,0-.93,3.72c0,3.34,1.25,5,3.76,5a6.58,6.58,0,0,0,1.71-.2,8.45,8.45,0,0,0,1.41-.51,1.31,1.31,0,0,1,.49-.17.81.81,0,0,1,.62.37,3.37,3.37,0,0,1,.49.85,2.17,2.17,0,0,1,.18.69c0,.38-.25.72-.77,1a5.85,5.85,0,0,1-1.91.63,12.76,12.76,0,0,1-2.22.21Q972.36,182.27,970.59,180.34Z"/><path class="cls-4" d="M983.77,180.34q-1.77-1.92-1.77-6,0-7.83,7.34-7.83a10.88,10.88,0,0,1,2.25.23,5.74,5.74,0,0,1,1.78.6c.38.22.57.46.57.71a2,2,0,0,1-.24.8,3.84,3.84,0,0,1-.58.88.89.89,0,0,1-.61.38,2.64,2.64,0,0,1-.52-.19,6.87,6.87,0,0,0-1.13-.36,7.18,7.18,0,0,0-1.58-.15,3.37,3.37,0,0,0-2.87,1.23,6.07,6.07,0,0,0-.94,3.72c0,3.34,1.26,5,3.77,5a6.58,6.58,0,0,0,1.71-.2,8.79,8.79,0,0,0,1.41-.51,1.29,1.29,0,0,1,.48-.17.82.82,0,0,1,.63.37,3.07,3.07,0,0,1,.48.85,2,2,0,0,1,.19.69c0,.38-.26.72-.77,1a5.85,5.85,0,0,1-1.91.63,12.85,12.85,0,0,1-2.22.21Q985.54,182.27,983.77,180.34Z"/><path class="cls-4" d="M996.53,181.88a.91.91,0,0,1-.21-.67V167.57a.76.76,0,0,1,.88-.88h7.72a.55.55,0,0,1,.51.27,1.72,1.72,0,0,1,.15.83v.68a1.77,1.77,0,0,1-.15.84.54.54,0,0,1-.51.26h-5.21v3.19h4.62a.53.53,0,0,1,.5.27,1.6,1.6,0,0,1,.16.83v.69a1.6,1.6,0,0,1-.16.83.53.53,0,0,1-.5.27h-4.62v3.56h5.23a.55.55,0,0,1,.51.26,1.8,1.8,0,0,1,.15.84V181a1.8,1.8,0,0,1-.15.84.55.55,0,0,1-.51.26H997.2A.91.91,0,0,1,996.53,181.88Z"/><path class="cls-4" d="M1009.56,182a5.64,5.64,0,0,1-1.82-.79c-.41-.28-.62-.56-.62-.84a1.79,1.79,0,0,1,.24-.79,3.45,3.45,0,0,1,.57-.81c.23-.24.41-.36.56-.36a2,2,0,0,1,.61.27,11.44,11.44,0,0,0,1.28.55,4.15,4.15,0,0,0,1.34.2,3,3,0,0,0,1.46-.34,1.26,1.26,0,0,0,.61-1.2,1.33,1.33,0,0,0-.56-1.12,9.42,9.42,0,0,0-1.82-.91l-1-.44a6,6,0,0,1-2.18-1.64,4.3,4.3,0,0,1-.79-2.78,4.05,4.05,0,0,1,.74-2.5,4.32,4.32,0,0,1,1.92-1.47,6.72,6.72,0,0,1,2.55-.47,8.06,8.06,0,0,1,2,.23,4.22,4.22,0,0,1,1.44.6,1,1,0,0,1,.48.71,2.08,2.08,0,0,1-.19.77,3.72,3.72,0,0,1-.49.8.76.76,0,0,1-.53.34,1.19,1.19,0,0,1-.36-.11l-.43-.18a5.37,5.37,0,0,0-1.65-.26,2.61,2.61,0,0,0-1.59.37,1.11,1.11,0,0,0-.45.86,1.48,1.48,0,0,0,.3.95,2.43,2.43,0,0,0,.75.6c.29.16.73.36,1.3.61a15.59,15.59,0,0,1,2,1,4.25,4.25,0,0,1,1.38,1.36,4.11,4.11,0,0,1,.58,2.28,5,5,0,0,1-.71,2.77,4.13,4.13,0,0,1-1.84,1.56,5.92,5.92,0,0,1-2.42.49A10.57,10.57,0,0,1,1009.56,182Z"/><path class="cls-4" d="M1020.56,182a5.64,5.64,0,0,1-1.82-.79c-.41-.28-.62-.56-.62-.84a1.79,1.79,0,0,1,.24-.79,3.45,3.45,0,0,1,.57-.81c.23-.24.41-.36.56-.36a2,2,0,0,1,.61.27,11.44,11.44,0,0,0,1.28.55,4.15,4.15,0,0,0,1.34.2,3,3,0,0,0,1.46-.34,1.26,1.26,0,0,0,.61-1.2,1.33,1.33,0,0,0-.56-1.12,9.42,9.42,0,0,0-1.82-.91l-1-.44a6,6,0,0,1-2.18-1.64,4.3,4.3,0,0,1-.79-2.78,4.05,4.05,0,0,1,.74-2.5,4.32,4.32,0,0,1,1.92-1.47,6.72,6.72,0,0,1,2.55-.47,8.06,8.06,0,0,1,2,.23,4.22,4.22,0,0,1,1.44.6,1,1,0,0,1,.48.71,2.08,2.08,0,0,1-.19.77,3.72,3.72,0,0,1-.49.8.76.76,0,0,1-.53.34,1.19,1.19,0,0,1-.36-.11l-.43-.18a5.37,5.37,0,0,0-1.65-.26,2.61,2.61,0,0,0-1.59.37,1.11,1.11,0,0,0-.45.86,1.48,1.48,0,0,0,.3.95,2.43,2.43,0,0,0,.75.6c.29.16.73.36,1.3.61a15.59,15.59,0,0,1,2,1,4.25,4.25,0,0,1,1.38,1.36,4.11,4.11,0,0,1,.58,2.28,5,5,0,0,1-.71,2.77,4.13,4.13,0,0,1-1.84,1.56,5.92,5.92,0,0,1-2.42.49A10.57,10.57,0,0,1,1020.56,182Z"/><path class="cls-4" d="M877.41,206.74q-1.77-1.92-1.77-6,0-7.83,7.35-7.83a10.85,10.85,0,0,1,2.24.23,5.74,5.74,0,0,1,1.78.6c.38.22.58.46.58.71a2,2,0,0,1-.25.8,3.84,3.84,0,0,1-.58.88.9.9,0,0,1-.6.38,2.61,2.61,0,0,1-.53-.19,6.73,6.73,0,0,0-1.12-.36,7.28,7.28,0,0,0-1.59-.15,3.37,3.37,0,0,0-2.87,1.23,6.14,6.14,0,0,0-.93,3.72c0,3.34,1.25,5,3.76,5a6.58,6.58,0,0,0,1.71-.2,8.45,8.45,0,0,0,1.41-.51,1.31,1.31,0,0,1,.49-.17.81.81,0,0,1,.62.37,3.37,3.37,0,0,1,.49.85,2.17,2.17,0,0,1,.18.69c0,.38-.25.72-.77,1a5.85,5.85,0,0,1-1.91.63,12.76,12.76,0,0,1-2.22.21Q879.18,208.67,877.41,206.74Z"/><path class="cls-4" d="M890.64,206.63a10.28,10.28,0,0,1,0-11.68,7.75,7.75,0,0,1,10.46,0,10.28,10.28,0,0,1,0,11.68,7.72,7.72,0,0,1-10.46,0Zm7.9-2.12a6.42,6.42,0,0,0,.9-3.72,6.33,6.33,0,0,0-.9-3.7,3.43,3.43,0,0,0-5.33,0,6.25,6.25,0,0,0-.92,3.7,6.34,6.34,0,0,0,.92,3.72,3.41,3.41,0,0,0,5.33,0Z"/><path class="cls-4" d="M912,204.4l-2.7-4.84c-.19-.32-.36-.61-.49-.86l-.09,0v9.11c0,.47-.44.71-1.32.71h-.63c-.88,0-1.32-.24-1.32-.71V193.75c0-.47.44-.7,1.32-.7h1.16a1.46,1.46,0,0,1,1.39.59l3.65,6.51.22.38.2-.38,3.72-6.51a1.45,1.45,0,0,1,1.38-.59h1.15c.88,0,1.32.23,1.32.7v14.08c0,.47-.44.71-1.32.71H919c-.88,0-1.32-.24-1.32-.71v-9.11l-.09,0c-.13.25-.29.54-.48.86l-2.71,4.84a1,1,0,0,1-.88.42h-.64A1,1,0,0,1,912,204.4Z"/><path class="cls-4" d="M923.86,207.83V193.75q0-.72,1.32-.72H926q1.32,0,1.32.72v14.08c0,.49-.44.73-1.32.73h-.77C924.3,208.56,923.86,208.32,923.86,207.83Z"/><path class="cls-4" d="M936.75,204.4l-2.7-4.84c-.19-.32-.35-.61-.49-.86l-.08,0v9.11c0,.47-.44.71-1.32.71h-.64c-.88,0-1.32-.24-1.32-.71V193.75c0-.47.44-.7,1.32-.7h1.16a1.46,1.46,0,0,1,1.39.59l3.65,6.51.22.38.2-.38,3.72-6.51a1.45,1.45,0,0,1,1.38-.59h1.15c.88,0,1.32.23,1.32.7v14.08c0,.47-.44.71-1.32.71h-.64c-.88,0-1.32-.24-1.32-.71v-9.11l-.09,0c-.13.25-.29.54-.48.86l-2.71,4.84a1,1,0,0,1-.88.42h-.64A1,1,0,0,1,936.75,204.4Z"/><path class="cls-4" d="M948.63,207.83V193.75q0-.72,1.32-.72h.77q1.32,0,1.32.72v14.08c0,.49-.44.73-1.32.73H950C949.07,208.56,948.63,208.32,948.63,207.83Z"/><path class="cls-4" d="M957.79,207.83V196h-3.5a.53.53,0,0,1-.51-.26,1.77,1.77,0,0,1-.15-.84v-.68a1.72,1.72,0,0,1,.15-.83.54.54,0,0,1,.51-.27h10.4a.54.54,0,0,1,.51.27,1.72,1.72,0,0,1,.15.83v.68a1.77,1.77,0,0,1-.15.84.53.53,0,0,1-.51.26H961.2v11.86c0,.47-.44.71-1.32.71h-.77C958.23,208.54,957.79,208.3,957.79,207.83Z"/><path class="cls-4" d="M967.43,208.28a.91.91,0,0,1-.21-.67V194a.91.91,0,0,1,.21-.67.93.93,0,0,1,.67-.21h7.73a.53.53,0,0,1,.5.27,1.71,1.71,0,0,1,.16.83v.68a1.75,1.75,0,0,1-.16.84.52.52,0,0,1-.5.26h-5.22v3.19h4.62a.55.55,0,0,1,.51.27,1.72,1.72,0,0,1,.15.83V201a1.72,1.72,0,0,1-.15.83.55.55,0,0,1-.51.27h-4.62v3.56h5.24a.54.54,0,0,1,.5.26,1.66,1.66,0,0,1,.16.84v.68a1.66,1.66,0,0,1-.16.84.54.54,0,0,1-.5.26H968.1A.93.93,0,0,1,967.43,208.28Z"/><path class="cls-4" d="M979.44,208.28a.91.91,0,0,1-.2-.67V194a.91.91,0,0,1,.2-.67.94.94,0,0,1,.68-.21h7.72a.53.53,0,0,1,.5.27,1.6,1.6,0,0,1,.16.83v.68a1.64,1.64,0,0,1-.16.84.52.52,0,0,1-.5.26h-5.22v3.19h4.62a.54.54,0,0,1,.51.27,1.72,1.72,0,0,1,.15.83V201a1.72,1.72,0,0,1-.15.83.54.54,0,0,1-.51.27h-4.62v3.56h5.24a.57.57,0,0,1,.51.26,1.8,1.8,0,0,1,.15.84v.68a1.8,1.8,0,0,1-.15.84.57.57,0,0,1-.51.26h-7.74A.94.94,0,0,1,979.44,208.28Z"/><path class="cls-4" d="M999.26,212.72a18.29,18.29,0,0,1-3.3-10.54,18.77,18.77,0,0,1,.83-5.61,16.65,16.65,0,0,1,2.47-4.95.72.72,0,0,1,.59-.35,1.42,1.42,0,0,1,.8.33.88.88,0,0,1,.45.68.82.82,0,0,1-.11.44,20.88,20.88,0,0,0-1.89,4.71,19.2,19.2,0,0,0-.57,4.75,19.76,19.76,0,0,0,.56,4.78,19.56,19.56,0,0,0,1.9,4.66.8.8,0,0,1,.11.44.9.9,0,0,1-.45.68,1.42,1.42,0,0,1-.8.33A.74.74,0,0,1,999.26,212.72Z"/><path class="cls-4" d="M1003.34,208.28a.91.91,0,0,1-.21-.67V194a.91.91,0,0,1,.21-.67.9.9,0,0,1,.67-.21h4.7a6.74,6.74,0,0,1,5.23,2,9.87,9.87,0,0,1,0,11.42,6.7,6.7,0,0,1-5.23,2H1004A.9.9,0,0,1,1003.34,208.28Zm5.37-2.67a3.1,3.1,0,0,0,2.67-1.23,7.59,7.59,0,0,0,0-7.17,3.08,3.08,0,0,0-2.67-1.24h-2.17v9.64Z"/><path class="cls-4" d="M1016.75,208.05a1.59,1.59,0,0,1,.08-.39l4.84-14.15c.12-.31.54-.46,1.26-.46h1.14c.73,0,1.15.15,1.26.46l4.84,14.15a1.43,1.43,0,0,1,.06.39c0,.33-.37.49-1.1.49h-1c-.72,0-1.13-.16-1.23-.47l-.88-2.68h-5.19l-.88,2.68c-.1.31-.44.47-1,.47h-.88C1017.19,208.54,1016.75,208.38,1016.75,208.05Zm8.35-5.56-1.25-3.92a10.81,10.81,0,0,1-.33-1.41h-.09c0,.09,0,.28-.1.59a3.4,3.4,0,0,1-.23.82l-1.3,3.92Z"/><path class="cls-4" d="M1033,206.74q-1.77-1.92-1.77-6,0-7.83,7.35-7.83a10.85,10.85,0,0,1,2.24.23,5.65,5.65,0,0,1,1.78.6c.39.22.58.46.58.71a1.87,1.87,0,0,1-.25.8,3.84,3.84,0,0,1-.58.88.9.9,0,0,1-.6.38,2.61,2.61,0,0,1-.53-.19,6.73,6.73,0,0,0-1.12-.36,7.28,7.28,0,0,0-1.59-.15,3.38,3.38,0,0,0-2.87,1.23,6.14,6.14,0,0,0-.93,3.72c0,3.34,1.25,5,3.76,5a6.58,6.58,0,0,0,1.71-.2,8.45,8.45,0,0,0,1.41-.51,1.31,1.31,0,0,1,.49-.17.79.79,0,0,1,.62.37,3.37,3.37,0,0,1,.49.85,2.17,2.17,0,0,1,.18.69c0,.38-.25.72-.77,1a5.85,5.85,0,0,1-1.91.63,12.76,12.76,0,0,1-2.22.21C1036,208.67,1034.17,208,1033,206.74Z"/><path class="cls-4" d="M1044.59,212.74a.79.79,0,0,1-.35-1.12,21.25,21.25,0,0,0,1.9-4.7,19.12,19.12,0,0,0,.57-4.74,20,20,0,0,0-.56-4.82,19,19,0,0,0-1.91-4.64.93.93,0,0,1-.11-.44.87.87,0,0,1,.46-.68,1.4,1.4,0,0,1,.8-.33.72.72,0,0,1,.59.35,18.29,18.29,0,0,1,3.3,10.56,19.11,19.11,0,0,1-.83,5.59,16.89,16.89,0,0,1-2.47,4.95.74.74,0,0,1-.59.35A1.4,1.4,0,0,1,1044.59,212.74Z"/><path class="cls-2" d="M59.58,121.51v-6.75H61.5V113H51.62v1.77h1.77v6.75l-2.5,4h3a.89.89,0,0,1,0,1.77H49.78l-1.38,2.22h3a.89.89,0,0,1,0,1.77H47.29l-1.39,2.21H49a.89.89,0,0,1,0,1.77H44.79l-1.67,2.66a.9.9,0,0,0,0,.9.89.89,0,0,0,.77.46H55.94a3.32,3.32,0,0,0,.54,0v0H69.09a.88.88,0,0,0,.75-1.36Z"/><path class="cls-2" d="M80.63,102.65A14.82,14.82,0,1,0,65.81,87.84,14.81,14.81,0,0,0,80.63,102.65Z"/><polygon class="cls-2" points="82.25 110.69 83.35 106.52 77.91 106.52 79.01 110.69 82.25 110.69"/><path class="cls-2" d="M89.43,108.09l-8.8,25.24-8.81-25.24A22.58,22.58,0,0,0,65,112.66v4.66H63V122l8.91,14.22H103v-7.54A22.36,22.36,0,0,0,89.43,108.09Z"/><polygon class="cls-2" points="80.63 127.22 83.68 118.46 82.38 112.7 78.87 112.7 77.61 118.55 80.63 127.22"/><polygon class="cls-5" points="218.93 105.54 233.63 105.54 233.63 101.09 246.63 108.59 233.63 116.1 233.63 111.56 218.93 111.56 218.93 105.54"/><polygon class="cls-5" points="218.93 133.78 233.63 133.78 233.63 129.33 246.63 136.84 233.63 144.34 233.63 139.81 218.93 139.81 218.93 133.78"/><polygon class="cls-5" points="458.69 105.54 473.39 105.54 473.39 101.09 486.39 108.59 473.39 116.1 473.39 111.56 458.69 111.56 458.69 105.54"/><polygon class="cls-5" points="458.69 133.78 473.39 133.78 473.39 129.33 486.39 136.84 473.39 144.34 473.39 139.81 458.69 139.81 458.69 133.78"/><polygon class="cls-5" points="1231 104.46 1216.29 104.46 1216.29 100.01 1203.3 107.51 1216.29 115.02 1216.29 110.48 1231 110.48 1231 104.46"/><polygon class="cls-5" points="1231 132.7 1216.29 132.7 1216.29 128.25 1203.3 135.75 1216.29 143.26 1216.29 138.72 1231 138.72 1231 132.7"/><polygon class="cls-5" points="1497.32 104.46 1482.62 104.46 1482.62 100.01 1469.62 107.51 1482.62 115.02 1482.62 110.48 1497.32 110.48 1497.32 104.46"/><polygon class="cls-5" points="1497.32 132.7 1482.62 132.7 1482.62 128.25 1469.62 135.75 1482.62 143.26 1482.62 138.72 1497.32 138.72 1497.32 132.7"/><path class="cls-6" d="M350.78,146A19.51,19.51,0,0,0,383.21,160l-2.65-1.75,10.05-5-.67,11.22-2.86-1.89A23.86,23.86,0,0,1,367,169.21a25.17,25.17,0,0,1-5.34-1.39,24,24,0,0,1-15.38-21.75Z"/><path class="cls-6" d="M383,144.66a1.19,1.19,0,0,0-.84-.39l-2.26-.1a10.34,10.34,0,0,0-1.11-3l1.67-1.53a1.2,1.2,0,0,0,.07-1.7l-1.66-1.81a1.18,1.18,0,0,0-.83-.38,1.22,1.22,0,0,0-.86.31l-1.67,1.53a10.43,10.43,0,0,0-2.95-1.37l.1-2.26a1.2,1.2,0,0,0-1.15-1.25l-2.45-.11a1.22,1.22,0,0,0-1.26,1.15l-.09,2.27a10.07,10.07,0,0,0-3.05,1.11l-1.53-1.67a1.2,1.2,0,0,0-1.7-.07L359.64,137a1.2,1.2,0,0,0-.07,1.7l1.53,1.67a10.43,10.43,0,0,0-1.37,2.95l-2.26-.1a1.21,1.21,0,0,0-1.26,1.15l-.1,2.45a1.22,1.22,0,0,0,.31.86,1.19,1.19,0,0,0,.84.39l2.26.1a10.63,10.63,0,0,0,1.11,3.05L359,152.74a1.18,1.18,0,0,0-.39.83,1.21,1.21,0,0,0,.31.87l1.66,1.81a1.22,1.22,0,0,0,.84.38,1.21,1.21,0,0,0,.86-.31l1.67-1.53a10.65,10.65,0,0,0,2.94,1.37l-.09,2.26a1.2,1.2,0,0,0,1.15,1.25l2.44.11h.06a1.17,1.17,0,0,0,.81-.32,1.19,1.19,0,0,0,.39-.83l.09-2.26a10.53,10.53,0,0,0,3.06-1.12l1.53,1.67a1.15,1.15,0,0,0,.83.39A1.22,1.22,0,0,0,378,157l1.8-1.65a1.2,1.2,0,0,0,.08-1.7L378.34,152a10.43,10.43,0,0,0,1.37-2.95l2.27.1a1.2,1.2,0,0,0,1.25-1.15l.1-2.45A1.17,1.17,0,0,0,383,144.66Zm-13.54,7.1a5.6,5.6,0,0,1,.24-11.2H370a5.6,5.6,0,1,1-.48,11.19Z"/><path class="cls-6" d="M389.54,115.91a.84.84,0,0,0-.6-.22l-1.57.06a7.1,7.1,0,0,0-.93-2l1.06-1.15a.83.83,0,0,0,0-1.17l-1.25-1.15a.82.82,0,0,0-.59-.22.84.84,0,0,0-.58.26L384,111.43a7.25,7.25,0,0,0-2.11-.78l-.06-1.56a.83.83,0,0,0-.86-.8l-1.7.07a.83.83,0,0,0-.79.86l.06,1.56a7.27,7.27,0,0,0-2,.94l-1.15-1.06a.83.83,0,0,0-.6-.22.84.84,0,0,0-.58.26L373,112a.82.82,0,0,0,.05,1.17l1.15,1.06a7.25,7.25,0,0,0-.78,2.11l-1.56.06a.83.83,0,0,0-.8.86l.06,1.7a.84.84,0,0,0,.87.79l1.56-.06a6.89,6.89,0,0,0,.94,2l-1.06,1.15a.83.83,0,0,0-.22.6.78.78,0,0,0,.26.57l1.24,1.16a.89.89,0,0,0,.6.22.86.86,0,0,0,.58-.27L377,124a7.25,7.25,0,0,0,2.11.78l.06,1.56a.82.82,0,0,0,.86.8l1.69-.06h0a.82.82,0,0,0,.54-.26.83.83,0,0,0,.22-.6l-.06-1.56a7.13,7.13,0,0,0,2-.94l1.15,1.06a.81.81,0,0,0,.59.23.84.84,0,0,0,.58-.27l1.15-1.24a.85.85,0,0,0,0-1.18l-1.15-1.06a7.23,7.23,0,0,0,.77-2.11l1.57-.06a.83.83,0,0,0,.8-.86l-.07-1.69A.84.84,0,0,0,389.54,115.91Zm-8.93,5.66a3.87,3.87,0,0,1-.47-7.73h.17a3.87,3.87,0,0,1,.3,7.74Z"/><path class="cls-6" d="M358.62,115.63A1.19,1.19,0,0,0,358,115l-3.25-1.23a13.89,13.89,0,0,0-.15-5l3.16-1.42a1.2,1.2,0,0,0,.63-.68,1.11,1.11,0,0,0,0-.91l-1.38-3.07a1.2,1.2,0,0,0-1.59-.61l-3.16,1.43a13.78,13.78,0,0,0-3.66-3.44l1.23-3.25a1.2,1.2,0,0,0-.7-1.55l-3.15-1.19a1.22,1.22,0,0,0-.92,0,1.2,1.2,0,0,0-.62.67L343.12,98a13.84,13.84,0,0,0-5,.16L336.68,95a1.19,1.19,0,0,0-.67-.63,1.22,1.22,0,0,0-.92,0L332,95.77a1.21,1.21,0,0,0-.6,1.59l1.43,3.17a13.89,13.89,0,0,0-3.44,3.65L326.16,103a1.22,1.22,0,0,0-.92,0,1.19,1.19,0,0,0-.63.67l-1.19,3.15a1.19,1.19,0,0,0,.69,1.55l3.25,1.23a14.12,14.12,0,0,0,.15,5L324.35,116a1.25,1.25,0,0,0-.63.67,1.22,1.22,0,0,0,0,.92l1.38,3.07a1.22,1.22,0,0,0,1.59.61l3.17-1.43a13.59,13.59,0,0,0,3.65,3.44l-1.23,3.25a1.21,1.21,0,0,0,.7,1.55l3.15,1.19a1.17,1.17,0,0,0,.92,0,1.19,1.19,0,0,0,.63-.67l1.23-3.25a13.61,13.61,0,0,0,5-.15l1.43,3.17a1.2,1.2,0,0,0,1.59.6l3.07-1.39a1.18,1.18,0,0,0,.6-1.58l-1.42-3.17a13.94,13.94,0,0,0,3.44-3.66l3.24,1.24a1.2,1.2,0,0,0,1.55-.7l1.19-3.15A1.18,1.18,0,0,0,358.62,115.63Zm-10-1.07a8.19,8.19,0,0,1-7.62,5.27,8,8,0,0,1-2.89-.54,8.14,8.14,0,0,1-4.73-10.5,8.14,8.14,0,0,1,10.51-4.74,8.16,8.16,0,0,1,4.73,10.51Z"/><path class="cls-6" d="M360.47,118.65l-.69,11,9.89-4.92-2.49-1.65a28.53,28.53,0,0,0-44.57-33.21l3.25,3.84a23.5,23.5,0,0,1,37.05,26.53Z"/><path class="cls-6" d="M1344.64,146A19.51,19.51,0,0,1,1312.21,160l2.65-1.75-10-5,.67,11.22,2.86-1.89a23.86,23.86,0,0,0,20.09,6.64,24.93,24.93,0,0,0,5.33-1.39,23.93,23.93,0,0,0,15.38-21.75Z"/><path class="cls-6" d="M1312.08,145.52l.11,2.45a1.2,1.2,0,0,0,1.25,1.15l2.27-.1a10.43,10.43,0,0,0,1.37,2.95l-1.54,1.67a1.2,1.2,0,0,0,.08,1.7l1.8,1.65a1.21,1.21,0,0,0,.86.32,1.17,1.17,0,0,0,.84-.39l1.53-1.67a10.32,10.32,0,0,0,3.06,1.12l.09,2.26a1.15,1.15,0,0,0,.39.83,1.17,1.17,0,0,0,.81.32h0l2.45-.11a1.2,1.2,0,0,0,1.15-1.25l-.09-2.26a10.65,10.65,0,0,0,2.94-1.37l1.67,1.53a1.19,1.19,0,0,0,.86.31,1.22,1.22,0,0,0,.84-.38l1.65-1.81a1.22,1.22,0,0,0,.32-.87,1.18,1.18,0,0,0-.39-.83l-1.67-1.53a10.36,10.36,0,0,0,1.12-3.05l2.26-.1a1.19,1.19,0,0,0,.84-.39,1.22,1.22,0,0,0,.31-.86l-.11-2.45a1.19,1.19,0,0,0-1.25-1.15l-2.26.1a10.43,10.43,0,0,0-1.37-2.95l1.53-1.67a1.2,1.2,0,0,0-.07-1.7l-1.81-1.65a1.2,1.2,0,0,0-1.7.07l-1.53,1.67a10.07,10.07,0,0,0-3-1.11l-.1-2.27a1.2,1.2,0,0,0-1.25-1.15l-2.45.11a1.2,1.2,0,0,0-1.15,1.25l.1,2.26a10.31,10.31,0,0,0-2.95,1.37l-1.67-1.53a1.22,1.22,0,0,0-.86-.31,1.18,1.18,0,0,0-.83.38l-1.66,1.81a1.2,1.2,0,0,0,.07,1.7l1.67,1.53a10.34,10.34,0,0,0-1.11,3l-2.26.1a1.21,1.21,0,0,0-1.16,1.25Zm8,.89a5.6,5.6,0,0,1,5.36-5.84h.24a5.6,5.6,0,1,1-5.6,5.85Z"/><path class="cls-6" d="M1305.62,116.49l-.07,1.69a.83.83,0,0,0,.8.86l1.56.06a7.55,7.55,0,0,0,.78,2.11l-1.15,1.06a.85.85,0,0,0,0,1.18l1.15,1.24a.83.83,0,0,0,.57.27.82.82,0,0,0,.6-.23l1.15-1.06a7.13,7.13,0,0,0,2,.94l-.06,1.56a.83.83,0,0,0,.22.6.82.82,0,0,0,.54.26h0l1.69.06a.83.83,0,0,0,.86-.8l.06-1.56a7.25,7.25,0,0,0,2.11-.78l1.06,1.15a.82.82,0,0,0,1.17,0L1322,124a.78.78,0,0,0,.26-.57.83.83,0,0,0-.22-.6l-1.06-1.15a6.89,6.89,0,0,0,.94-2l1.56.06a.84.84,0,0,0,.87-.79l.06-1.7a.83.83,0,0,0-.8-.86l-1.56-.06a7.25,7.25,0,0,0-.78-2.11l1.15-1.06a.82.82,0,0,0,0-1.17l-1.15-1.25a.83.83,0,0,0-1.17,0l-1.15,1.06a7.27,7.27,0,0,0-2-.94l.06-1.56a.83.83,0,0,0-.8-.86l-1.69-.07a.83.83,0,0,0-.86.8l-.06,1.56a7.25,7.25,0,0,0-2.11.78l-1.06-1.15a.84.84,0,0,0-.58-.26.82.82,0,0,0-.59.22l-1.25,1.15a.83.83,0,0,0,0,1.17l1.06,1.15a7.13,7.13,0,0,0-.94,2l-1.56-.06a.84.84,0,0,0-.6.22A.8.8,0,0,0,1305.62,116.49Zm5.47,1.06a3.88,3.88,0,0,1,4-3.72h.16a3.87,3.87,0,1,1-4.18,3.71Z"/><path class="cls-6" d="M1336.77,116.55l1.2,3.15a1.2,1.2,0,0,0,1.54.7l3.25-1.24a13.78,13.78,0,0,0,3.44,3.66l-1.43,3.17a1.19,1.19,0,0,0,.61,1.58l3.07,1.39a1.2,1.2,0,0,0,1.59-.6l1.42-3.17a13.67,13.67,0,0,0,5,.15l1.23,3.25a1.19,1.19,0,0,0,.63.67,1.17,1.17,0,0,0,.92,0l3.15-1.19a1.21,1.21,0,0,0,.7-1.55l-1.23-3.25a13.89,13.89,0,0,0,3.65-3.44l3.17,1.43a1.22,1.22,0,0,0,1.59-.61l1.38-3.07a1.22,1.22,0,0,0,0-.92,1.25,1.25,0,0,0-.63-.67l-3.17-1.42a13.89,13.89,0,0,0,.16-5l3.24-1.23a1.2,1.2,0,0,0,.7-1.55l-1.19-3.15a1.19,1.19,0,0,0-.63-.67,1.22,1.22,0,0,0-.92,0l-3.25,1.23a13.89,13.89,0,0,0-3.44-3.65l1.43-3.17a1.21,1.21,0,0,0-.6-1.59l-3.07-1.38a1.22,1.22,0,0,0-.92,0,1.19,1.19,0,0,0-.67.63l-1.43,3.17a13.84,13.84,0,0,0-5-.16l-1.24-3.24a1.19,1.19,0,0,0-.63-.67,1.22,1.22,0,0,0-.92,0l-3.14,1.19a1.19,1.19,0,0,0-.7,1.55l1.23,3.25a13.78,13.78,0,0,0-3.66,3.44l-3.16-1.43a1.2,1.2,0,0,0-1.59.61l-1.39,3.07a1.2,1.2,0,0,0,0,.91,1.25,1.25,0,0,0,.64.68l3.16,1.42a13.89,13.89,0,0,0-.15,5l-3.25,1.23a1.19,1.19,0,0,0-.67.63A1.22,1.22,0,0,0,1336.77,116.55Zm10.19-8.22a8.09,8.09,0,0,1,4.54-4.28,8.15,8.15,0,1,1,5.78,15.24,8,8,0,0,1-2.89.54,8.19,8.19,0,0,1-7.62-5.27A8.06,8.06,0,0,1,1347,108.33Z"/><path class="cls-6" d="M1334.94,118.65l.69,11-9.88-4.92,2.49-1.65a28.53,28.53,0,0,1,44.57-33.21l-3.25,3.84a23.5,23.5,0,0,0-37,26.53Z"/><path class="cls-3" d="M695.07,71.63a36.64,36.64,0,0,0-35,47.45h0a36.75,36.75,0,0,0,28.69,25.24l.09.12.11-.08a37.19,37.19,0,0,0,6.1.51,36.63,36.63,0,0,0,0-73.25Zm34.43,36.62a34.11,34.11,0,0,1-2.92,13.86l-8.4-18.6a5.1,5.1,0,0,0-.95-8.46l2.92-10.36A34.3,34.3,0,0,1,729.5,108.25Zm-21.07,14.56a5.1,5.1,0,0,0-1.84-3.34l7.16-14.9a5.5,5.5,0,0,0,1.16.13,5,5,0,0,0,1.29-.17l8.44,18.67ZM683.23,127a5.1,5.1,0,0,0-4.44-2.87l-1.64-12a5.14,5.14,0,0,0,2-1.3l19.31,11.37a5.72,5.72,0,0,0-.17,1.26Zm-22.57-19.79,9.67.8a5.1,5.1,0,0,0,4.62,4.4l1.65,12.14a5.27,5.27,0,0,0-1.52,1l-13.15-7.93a34.4,34.4,0,0,1-1.29-9.36C660.64,107.89,660.65,107.53,660.66,107.18Zm2.7-12.34,24.26-5.25a5.23,5.23,0,0,0,.57.94l-10.42,12.25a5,5,0,0,0-2.39-.59,5.1,5.1,0,0,0-4.87,3.58L660.8,105A34.22,34.22,0,0,1,663.36,94.84Zm40,23.48a5.1,5.1,0,0,0-3.93,1.85l-19.19-11.31a4.82,4.82,0,0,0,.24-1.43l29.75-5.79a5.05,5.05,0,0,0,1.52,2l-7.14,14.88A5.16,5.16,0,0,0,703.36,118.32ZM689.87,92a5.11,5.11,0,0,0,6.25-1.18L710,98.22a5.09,5.09,0,0,0-.18,1.24l-29.75,5.79a5.08,5.08,0,0,0-.61-1Zm25,2.52A5.11,5.11,0,0,0,711,96.26l-13.87-7.43a5.21,5.21,0,0,0,.2-1.37,5,5,0,0,0-.79-2.71l10.7-8.69a34.35,34.35,0,0,1,11.07,6.85L715.08,94.5ZM704.79,75.22,695,83.16a5.13,5.13,0,0,0-2.76-.81,5.07,5.07,0,0,0-2.75.81l-6.82-7a34.17,34.17,0,0,1,12.38-2.31A34.66,34.66,0,0,1,704.79,75.22ZM680.5,77.06l7.44,7.67a5.14,5.14,0,0,0-.79,2.69l-22.59,4.89A34.73,34.73,0,0,1,680.5,77.06ZM663,120.87l10.82,6.54a5.1,5.1,0,0,0,4.78,6.9,5.22,5.22,0,0,0,2.13-.47l6,7.82A34.54,34.54,0,0,1,663,120.87Zm27,21.44-7.48-9.82a5.1,5.1,0,0,0,1.21-3.29s0,0,0-.07l15-3.55a5.1,5.1,0,0,0,3.38,2.79L701.75,142a34.24,34.24,0,0,1-6.68.65A33.63,33.63,0,0,1,690,142.31Zm14-.8.35-13.07a5.14,5.14,0,0,0,3.88-3.42l16.69.41A34.56,34.56,0,0,1,704,141.51Z"/><rect class="cls-2" x="1637.07" y="111.92" width="3.69" height="6.72" transform="translate(719.64 1477) rotate(-60)"/><polygon class="cls-2" points="1628.57 129.57 1631.98 131.53 1633.68 131.08 1634.55 129.58 1634.55 129.58 1628.73 126.22 1628.73 126.22 1628.36 126.86 1627.87 127.72 1628.32 129.42 1628.57 129.57"/><path class="cls-2" d="M1642.4,145.27a16.15,16.15,0,0,0-3.49-23.24l.9-1.56-5.82-3.36-4.16,7.21h0l5.82,3.36,1.87-3.25a13.35,13.35,0,0,1,4.57,15.95,5.33,5.33,0,0,0-9-1.56l-4.46-2.57-6.33-3.66-.83,1.43,6,3.49,4.72,2.72a5.23,5.23,0,0,0-.42,2.06,5.35,5.35,0,0,0,.91,3h-15.08V148h28.54v-2.75Zm-5.29-.39a2.59,2.59,0,1,1,2.58-2.59A2.59,2.59,0,0,1,1637.11,144.88Z"/><path class="cls-2" d="M1605.52,104.25a15.62,15.62,0,1,0-15.61-15.61A15.62,15.62,0,0,0,1605.52,104.25Z"/><path class="cls-2" d="M1592.81,110.77l-.29,5,4.32,1.51-1.79,4.72,5.82,15.52h3L1595.94,109A22.69,22.69,0,0,0,1592.81,110.77Z"/><path class="cls-2" d="M1593.84,118.65l-3.71-1,.31-5.12a22.93,22.93,0,0,0-8,17.47v7.47h16l-5.89-15.7Z"/><path class="cls-2" d="M1600.15,115.73l5.36,19.35,5.35-19.33A13.31,13.31,0,0,1,1600.15,115.73Z"/><path class="cls-2" d="M1614.18,117.27l4.32-1.51-.29-5a22.78,22.78,0,0,0-3.14-1.75l-7.89,28.49h3L1616,122Z"/><path class="cls-2" d="M1620.46,135.69l-1.66-1,1-1.67.83-1.43,1-1.67,1.66,1,5.37,3.1v-2.24l-1.22-.7-.69-.4-.21-.77-.45-1.71-.21-.77.4-.68,1-1.74.59-1a23,23,0,0,0-7.21-11.43l.3,5.12-3.71,1,1.27,3.16-5.88,15.7h11Z"/><path class="cls-4" d="M968.73,86.43a6.28,6.28,0,1,1-6.27-6.28A6.27,6.27,0,0,1,968.73,86.43Z"/><path class="cls-4" d="M947.26,95.89a6.91,6.91,0,1,1-6.91-6.9A6.92,6.92,0,0,1,947.26,95.89Z"/><path class="cls-4" d="M977.66,95.89a6.91,6.91,0,1,0,6.9-6.9A6.91,6.91,0,0,0,977.66,95.89Z"/><path class="cls-4" d="M1000.63,107.12a7.6,7.6,0,1,0,7.6,7.59A7.59,7.59,0,0,0,1000.63,107.12Z"/><path class="cls-4" d="M928.52,144.47l6.14-9.93a10.39,10.39,0,0,0-20.77.31h0v10.66h14Z"/><path class="cls-4" d="M936.31,131.86l12.87-20.81a9.44,9.44,0,0,0-16.84-1.63,9.61,9.61,0,0,1-1.44,12.3v2.79a12.77,12.77,0,0,1,2.1,1.66A12.33,12.33,0,0,1,936.31,131.86Z"/><path class="cls-4" d="M988.67,131.64a12.42,12.42,0,0,1,3.24-5.47,12.84,12.84,0,0,1,2.11-1.66v-2.79a9.61,9.61,0,0,1-1.44-12.3,9.45,9.45,0,0,0-16.77,1.43Z"/><path class="cls-4" d="M1011,134.85a10.39,10.39,0,0,0-20.75-.62l6.33,10.24.65,1H1011V134.85Z"/><path class="cls-4" d="M962.56,109.83h8.49v-6.69h0a8.59,8.59,0,0,0-17.18,0h0v6.69Z"/><polygon class="cls-4" points="962.56 111.87 951.08 111.87 930.26 145.54 962.56 145.54 994.86 145.54 974.04 111.87 962.56 111.87"/><circle class="cls-4" cx="924.28" cy="114.71" r="7.6" transform="translate(-1.3 11.01) rotate(-0.68)"/><line class="cls-7" x1="545.94" x2="545.94" y2="213"/><line class="cls-7" x1="1145.36" x2="1145.36" y2="213"/><rect class="cls-8" width="1705" height="213"/></svg>