<?xml version="1.0" encoding="utf-8"?>
<!-- Generator: Adobe Illustrator 15.0.0, SVG Export Plug-In . SVG Version: 6.00 Build 0)  -->
<!DOCTYPE svg PUBLIC "-//W3C//DTD SVG 1.1//EN" "http://www.w3.org/Graphics/SVG/1.1/DTD/svg11.dtd">
<svg version="1.1" id="Capa_1" xmlns="http://www.w3.org/2000/svg" xmlns:xlink="http://www.w3.org/1999/xlink" x="0px" y="0px"
	 width="694.231px" height="280.667px" viewBox="0 0 694.231 280.667" enable-background="new 0 0 694.231 280.667"
	 xml:space="preserve">
<g>
	<g opacity="0.8">
		<polygon fill="#333333" points="333.232,148.879 333.232,159.81 337.709,159.81 337.709,148.879 341.021,148.879 335.441,139.212 
			329.859,148.879 		"/>
		<polygon fill="#333333" points="356.332,148.879 356.332,159.81 360.809,159.81 360.809,148.879 364.121,148.879 358.543,139.212 
			352.959,148.879 		"/>
	</g>
	<path fill="#B22439" d="M347.115,3.112c-20.676,0-37.5,16.821-37.5,37.5c0,3.858,0.586,7.582,1.674,11.087v0.004l0.002,0.002
		c4.119,13.28,15.438,23.422,29.369,25.85l0.094,0.123l0.117-0.088c2.031,0.342,4.117,0.522,6.244,0.522
		c20.676,0,37.5-16.821,37.5-37.5S367.791,3.112,347.115,3.112z M382.367,40.612c0,5.046-1.064,9.847-2.982,14.19l-8.604-19.048
		c1.146-0.958,1.875-2.397,1.875-4.01c0-2.032-1.162-3.788-2.855-4.655l2.998-10.602C378.73,22.8,382.367,31.289,382.367,40.612z
		 M360.791,55.517c-0.164-1.372-0.861-2.582-1.879-3.416l7.332-15.265c0.379,0.087,0.775,0.138,1.182,0.138
		c0.461,0,0.902-0.065,1.328-0.176l8.638,19.118L360.791,55.517z M334.992,59.777c-0.828-1.699-2.543-2.882-4.549-2.939
		l-1.676-12.311c0.771-0.285,1.456-0.744,2.006-1.333l19.771,11.646c-0.105,0.413-0.168,0.845-0.172,1.292L334.992,59.777z
		 M311.881,39.508l9.9,0.827c0.326,2.41,2.289,4.296,4.736,4.5l1.689,12.43c-0.586,0.255-1.113,0.614-1.563,1.053l-13.46-8.125
		c-0.862-3.048-1.323-6.26-1.323-9.58C311.861,40.242,311.869,39.875,311.881,39.508z M314.645,26.88l24.846-5.374
		c0.158,0.341,0.352,0.661,0.576,0.957l-10.67,12.541c-0.727-0.385-1.557-0.605-2.439-0.605c-2.344,0-4.332,1.544-4.992,3.671
		l-9.941-0.83C312.371,33.598,313.271,30.115,314.645,26.88z M355.604,50.919c-1.619,0-3.066,0.736-4.023,1.891l-19.647-11.572
		c0.147-0.465,0.233-0.958,0.245-1.47l30.457-5.931c0.348,0.794,0.885,1.483,1.559,2.014l-7.314,15.232
		C356.471,50.979,356.043,50.919,355.604,50.919z M341.795,23.94c0.727,0.385,1.559,0.605,2.443,0.605
		c1.582,0,2.996-0.707,3.955-1.818l14.201,7.61c-0.111,0.405-0.178,0.828-0.189,1.267l-30.457,5.931
		c-0.164-0.378-0.377-0.729-0.623-1.055L341.795,23.94z M367.426,26.516c-1.582,0-2.998,0.707-3.959,1.819l-14.197-7.611
		c0.123-0.448,0.195-0.918,0.195-1.407c0-1.02-0.297-1.968-0.803-2.772l10.953-8.895c4.227,1.607,8.067,4.005,11.338,7.013
		l-3.353,11.863C367.539,26.522,367.484,26.516,367.426,26.516z M357.066,6.791l-10.008,8.128c-0.818-0.523-1.783-0.832-2.82-0.832
		c-1.039,0-2.004,0.307-2.816,0.827l-6.987-7.196c3.937-1.522,8.212-2.36,12.681-2.36C350.57,5.357,353.91,5.86,357.066,6.791z
		 M332.197,8.676l7.621,7.851c-0.508,0.8-0.804,1.743-0.811,2.758l-23.133,5.004C319.455,17.468,325.201,11.956,332.197,8.676z
		 M314.313,53.529l11.088,6.693c-0.215,0.573-0.338,1.19-0.338,1.837c0,2.888,2.34,5.229,5.229,5.229
		c0.781,0,1.52-0.177,2.185-0.482l6.103,8.013C327.484,72.05,318.453,64.013,314.313,53.529z M341.941,75.487l-7.654-10.058
		c0.768-0.911,1.232-2.085,1.232-3.37c0-0.023-0.002-0.047-0.002-0.07l15.348-3.638c0.66,1.412,1.924,2.478,3.463,2.862
		L353.951,75.2c-2.213,0.437-4.498,0.667-6.836,0.667C345.357,75.867,343.631,75.736,341.941,75.487z M356.238,74.668l0.363-13.388
		c1.869-0.362,3.379-1.717,3.967-3.495l17.096,0.411C373.039,66.198,365.363,72.221,356.238,74.668z"/>
	<g>
		<g opacity="0.8">
			<polygon fill="#333333" points="93.282,27.843 120.214,27.843 120.214,24.531 129.88,30.112 120.214,35.694 120.214,32.32 
				93.282,32.32 			"/>
			<polygon fill="#333333" points="93.282,48.843 120.214,48.843 120.214,45.531 129.88,51.112 120.214,56.694 120.214,53.32 
				93.282,53.32 			"/>
		</g>
		<g opacity="0.8">
			<polygon fill="#333333" points="248.282,27.843 275.214,27.843 275.214,24.531 284.88,30.112 275.214,35.694 275.214,32.32 
				248.282,32.32 			"/>
			<polygon fill="#333333" points="248.282,48.843 275.214,48.843 275.214,45.531 284.88,51.112 275.214,56.694 275.214,53.32 
				248.282,53.32 			"/>
		</g>
		<g>
			<path opacity="0.8" fill="#333333" d="M182.899,63.59c0.217,7.844,5.088,14.733,12.41,17.552
				c6.854,2.639,14.416,1.22,19.805-3.567l-2.629-1.734l9.982-4.998l-0.666,11.145l-2.842-1.876
				c-5.357,5.252-12.705,7.615-19.953,6.591c-1.785-0.253-3.564-0.71-5.305-1.382c-9.016-3.468-15.014-11.95-15.281-21.605
				L182.899,63.59z"/>
			<path fill="#016798" d="M214.931,62.311c-0.217-0.233-0.514-0.372-0.832-0.385l-2.246-0.098c-0.209-1.063-0.58-2.086-1.107-3.032
				l1.66-1.522c0.486-0.445,0.516-1.201,0.072-1.688l-1.648-1.795c-0.215-0.232-0.514-0.371-0.83-0.385
				c-0.314-0.011-0.623,0.1-0.855,0.313l-1.658,1.522c-0.896-0.605-1.887-1.064-2.93-1.362l0.098-2.249
				c0.029-0.659-0.482-1.215-1.143-1.244l-2.432-0.104c-0.656-0.025-1.219,0.482-1.246,1.142l-0.096,2.249
				c-1.061,0.206-2.084,0.581-3.031,1.106l-1.521-1.659c-0.215-0.233-0.514-0.372-0.83-0.386c-0.316-0.013-0.623,0.101-0.857,0.313
				l-1.795,1.646c-0.488,0.447-0.52,1.202-0.072,1.688l1.521,1.658c-0.605,0.898-1.064,1.887-1.361,2.927l-2.25-0.097
				c-0.654-0.026-1.215,0.482-1.242,1.143l-0.105,2.433c-0.014,0.317,0.098,0.625,0.313,0.858c0.213,0.234,0.512,0.373,0.83,0.386
				l2.248,0.098c0.207,1.061,0.58,2.086,1.105,3.031l-1.656,1.523c-0.232,0.213-0.371,0.512-0.387,0.827
				c-0.014,0.317,0.1,0.625,0.314,0.858l1.646,1.795c0.213,0.233,0.512,0.371,0.828,0.386c0.316,0.013,0.625-0.099,0.859-0.313
				l1.656-1.521c0.9,0.604,1.889,1.064,2.928,1.361l-0.096,2.25c-0.029,0.658,0.48,1.215,1.143,1.243l2.432,0.104
				c0.018,0,0.033,0.001,0.051,0.001c0.299,0,0.588-0.111,0.809-0.314c0.234-0.214,0.373-0.513,0.385-0.828l0.096-2.249
				c1.064-0.208,2.088-0.581,3.033-1.106l1.521,1.659c0.215,0.233,0.514,0.372,0.832,0.385c0.316,0.014,0.623-0.1,0.857-0.313
				l1.793-1.647c0.486-0.446,0.52-1.202,0.074-1.687l-1.523-1.659c0.604-0.898,1.063-1.886,1.359-2.926l2.25,0.096
				c0.658,0.025,1.215-0.482,1.246-1.142l0.104-2.434C215.255,62.853,215.144,62.543,214.931,62.311z M201.479,69.371
				c-3.066-0.132-5.457-2.735-5.326-5.802c0.129-2.989,2.57-5.33,5.561-5.33c0.078,0,0.162,0.002,0.242,0.006
				c3.068,0.132,5.457,2.734,5.324,5.802C207.149,67.115,204.571,69.501,201.479,69.371z"/>
			<path fill="#016798" d="M221.405,33.748c-0.162-0.149-0.375-0.227-0.592-0.219l-1.557,0.061c-0.199-0.721-0.516-1.404-0.93-2.026
				l1.057-1.142c0.309-0.334,0.287-0.856-0.045-1.167l-1.236-1.144c-0.162-0.148-0.377-0.227-0.592-0.217
				c-0.219,0.009-0.426,0.103-0.574,0.263L215.88,29.3c-0.652-0.367-1.359-0.628-2.094-0.774l-0.059-1.555
				c-0.018-0.455-0.4-0.809-0.857-0.792l-1.682,0.065c-0.451,0.02-0.811,0.401-0.793,0.856l0.063,1.555
				c-0.719,0.201-1.406,0.517-2.027,0.932l-1.143-1.056c-0.162-0.149-0.375-0.229-0.592-0.22c-0.219,0.008-0.426,0.104-0.574,0.264
				l-1.143,1.235c-0.311,0.334-0.289,0.857,0.045,1.165l1.141,1.058c-0.363,0.652-0.625,1.358-0.773,2.092l-1.553,0.06
				c-0.455,0.02-0.811,0.401-0.793,0.857l0.064,1.682c0.01,0.219,0.104,0.424,0.264,0.573s0.375,0.228,0.594,0.219l1.555-0.06
				c0.201,0.719,0.518,1.404,0.934,2.026l-1.059,1.142c-0.148,0.16-0.229,0.374-0.217,0.592c0.006,0.219,0.1,0.425,0.262,0.574
				l1.236,1.144c0.16,0.148,0.373,0.227,0.59,0.219c0.221-0.009,0.428-0.104,0.576-0.265l1.055-1.141
				c0.652,0.365,1.361,0.627,2.092,0.773l0.063,1.555c0.016,0.455,0.398,0.81,0.854,0.792l1.684-0.065
				c0.012-0.001,0.023-0.001,0.035-0.001c0.205-0.018,0.398-0.111,0.539-0.264c0.148-0.159,0.227-0.373,0.219-0.591l-0.061-1.555
				c0.719-0.203,1.404-0.518,2.027-0.933l1.141,1.057c0.162,0.149,0.373,0.228,0.594,0.219c0.219-0.008,0.424-0.104,0.572-0.263
				l1.145-1.237c0.309-0.334,0.287-0.855-0.047-1.165l-1.141-1.057c0.363-0.653,0.625-1.359,0.771-2.092l1.557-0.062
				c0.455-0.019,0.811-0.399,0.789-0.855l-0.064-1.682C221.661,34.104,221.565,33.896,221.405,33.748z M212.538,39.367
				c-2.119,0.082-3.91-1.576-3.992-3.695c-0.082-2.065,1.467-3.816,3.527-3.984c0.057-0.005,0.113-0.007,0.168-0.009
				c2.121-0.082,3.912,1.577,3.994,3.696C216.317,37.496,214.675,39.283,212.538,39.367z"/>
			<g>
				<g>
					<path fill="#016798" d="M190.685,33.468c-0.131-0.289-0.369-0.515-0.664-0.626l-3.227-1.223
						c0.254-1.654,0.201-3.347-0.152-4.983l3.145-1.417c0.291-0.131,0.516-0.37,0.627-0.667c0.111-0.295,0.102-0.624-0.029-0.913
						l-1.375-3.051c-0.268-0.602-0.979-0.869-1.578-0.599l-3.145,1.417c-0.992-1.351-2.223-2.511-3.633-3.417l1.223-3.226
						c0.234-0.617-0.076-1.307-0.693-1.54l-3.129-1.187c-0.295-0.111-0.625-0.101-0.914,0.028c-0.287,0.131-0.516,0.37-0.625,0.666
						l-1.225,3.226c-1.654-0.255-3.35-0.203-4.982,0.153l-1.416-3.146c-0.133-0.29-0.371-0.515-0.666-0.626
						c-0.297-0.112-0.627-0.104-0.914,0.028l-3.053,1.373c-0.6,0.271-0.867,0.979-0.598,1.58l1.418,3.146
						c-1.35,0.991-2.51,2.224-3.416,3.631l-3.227-1.222c-0.297-0.112-0.625-0.102-0.914,0.027c-0.287,0.131-0.514,0.37-0.625,0.666
						l-1.188,3.128c-0.232,0.617,0.078,1.307,0.693,1.541l3.227,1.222c-0.254,1.655-0.201,3.348,0.152,4.984l-3.145,1.417
						c-0.289,0.131-0.514,0.369-0.625,0.666c-0.113,0.296-0.104,0.625,0.027,0.914l1.373,3.051c0.129,0.287,0.369,0.514,0.666,0.626
						s0.623,0.103,0.914-0.028l3.145-1.417c0.992,1.351,2.225,2.512,3.631,3.417l-1.221,3.226c-0.234,0.617,0.076,1.306,0.693,1.541
						l3.131,1.185c0.135,0.053,0.279,0.078,0.42,0.078c0.168,0,0.336-0.035,0.492-0.106c0.287-0.129,0.514-0.369,0.625-0.666
						l1.221-3.226c1.66,0.255,3.354,0.203,4.986-0.151l1.418,3.146c0.131,0.288,0.367,0.514,0.664,0.626s0.627,0.103,0.912-0.028
						l3.055-1.375c0.6-0.271,0.867-0.978,0.598-1.578l-1.418-3.146c1.35-0.991,2.512-2.224,3.418-3.633l3.227,1.224
						c0.617,0.233,1.307-0.077,1.539-0.693l1.184-3.131C190.825,34.085,190.815,33.757,190.685,33.468z M180.782,32.407
						c-1.184,3.129-4.227,5.231-7.572,5.231c-0.979,0-1.943-0.179-2.867-0.528c-2.023-0.767-3.625-2.274-4.514-4.246
						c-0.887-1.972-0.955-4.171-0.188-6.194c1.184-3.128,4.227-5.229,7.572-5.229c0.979,0,1.941,0.178,2.865,0.527
						c2.025,0.767,3.627,2.273,4.516,4.246C181.481,28.186,181.55,30.385,180.782,32.407z"/>
				</g>
			</g>
			<path opacity="0.8" fill="#333333" d="M192.53,36.467l-0.686,10.947l9.824-4.88l-2.479-1.646
				c1.568-3.581,2.371-7.391,2.371-11.35c0-15.632-12.717-28.35-28.35-28.35c-6.699,0-13.199,2.38-18.307,6.701l3.23,3.816
				c4.205-3.559,9.559-5.518,15.076-5.518c12.875,0,23.35,10.475,23.35,23.35c0,2.963-0.549,5.822-1.615,8.531L192.53,36.467z"/>
		</g>
	</g>
	<g>
		<g opacity="0.8">
			<polygon fill="#333333" points="600.948,27.842 574.017,27.842 574.017,24.53 564.351,30.111 574.017,35.693 574.017,32.319 
				600.948,32.319 			"/>
			<polygon fill="#333333" points="600.948,48.842 574.017,48.842 574.017,45.53 564.351,51.111 574.017,56.693 574.017,53.319 
				600.948,53.319 			"/>
		</g>
		<g opacity="0.8">
			<polygon fill="#333333" points="445.948,27.842 419.017,27.842 419.017,24.53 409.351,30.111 419.017,35.693 419.017,32.319 
				445.948,32.319 			"/>
			<polygon fill="#333333" points="445.948,48.842 419.017,48.842 419.017,45.53 409.351,51.111 419.017,56.693 419.017,53.319 
				445.948,53.319 			"/>
		</g>
		<g>
			<path opacity="0.8" fill="#333333" d="M511.331,63.589c-0.217,7.844-5.088,14.733-12.41,17.552
				c-6.854,2.639-14.416,1.22-19.805-3.567l2.629-1.734l-9.982-4.998l0.666,11.145l2.842-1.876
				c5.357,5.252,12.705,7.615,19.953,6.591c1.785-0.253,3.564-0.71,5.305-1.382c9.016-3.468,15.014-11.95,15.281-21.605
				L511.331,63.589z"/>
			<path fill="#016798" d="M479.3,62.31c0.217-0.233,0.514-0.372,0.832-0.385l2.246-0.098c0.209-1.063,0.58-2.086,1.107-3.032
				l-1.66-1.522c-0.486-0.445-0.516-1.201-0.072-1.688l1.648-1.795c0.215-0.232,0.514-0.371,0.83-0.385
				c0.314-0.011,0.623,0.1,0.855,0.313l1.658,1.522c0.896-0.605,1.887-1.064,2.93-1.362l-0.098-2.249
				c-0.029-0.659,0.482-1.215,1.143-1.244l2.432-0.104c0.656-0.025,1.219,0.482,1.246,1.142l0.096,2.249
				c1.061,0.206,2.084,0.581,3.031,1.106l1.521-1.659c0.215-0.233,0.514-0.372,0.83-0.386c0.316-0.013,0.623,0.101,0.857,0.313
				l1.795,1.646c0.488,0.447,0.52,1.202,0.072,1.688l-1.521,1.658c0.605,0.898,1.064,1.887,1.361,2.927l2.25-0.097
				c0.654-0.026,1.215,0.482,1.242,1.143l0.105,2.433c0.014,0.317-0.098,0.625-0.313,0.858c-0.213,0.234-0.512,0.373-0.83,0.386
				l-2.248,0.098c-0.207,1.061-0.58,2.086-1.105,3.031l1.656,1.523c0.232,0.213,0.371,0.512,0.387,0.827
				c0.014,0.317-0.1,0.625-0.314,0.858l-1.646,1.795c-0.213,0.233-0.512,0.371-0.828,0.386c-0.316,0.013-0.625-0.099-0.859-0.313
				l-1.656-1.521c-0.9,0.604-1.889,1.064-2.928,1.361l0.096,2.25c0.029,0.658-0.48,1.215-1.143,1.243l-2.432,0.104
				c-0.018,0-0.033,0.001-0.051,0.001c-0.299,0-0.588-0.111-0.809-0.314c-0.234-0.214-0.373-0.513-0.385-0.828l-0.096-2.249
				c-1.064-0.208-2.088-0.581-3.033-1.106l-1.521,1.659c-0.215,0.233-0.514,0.372-0.832,0.385c-0.316,0.014-0.623-0.1-0.857-0.313
				l-1.793-1.647c-0.486-0.446-0.52-1.202-0.074-1.687l1.523-1.659c-0.604-0.898-1.063-1.886-1.359-2.926l-2.25,0.096
				c-0.658,0.025-1.215-0.482-1.246-1.142l-0.104-2.434C478.976,62.852,479.087,62.542,479.3,62.31z M492.751,69.37
				c3.066-0.132,5.457-2.735,5.326-5.802c-0.129-2.989-2.57-5.33-5.561-5.33c-0.078,0-0.162,0.002-0.242,0.006
				c-3.068,0.132-5.457,2.734-5.324,5.802C487.081,67.114,489.659,69.5,492.751,69.37z"/>
			<path fill="#016798" d="M472.825,33.747c0.162-0.148,0.375-0.227,0.592-0.219l1.557,0.061c0.199-0.721,0.516-1.404,0.93-2.026
				l-1.057-1.142c-0.309-0.334-0.287-0.856,0.045-1.167l1.236-1.144c0.162-0.148,0.377-0.227,0.592-0.217
				c0.219,0.009,0.426,0.103,0.574,0.263l1.057,1.143c0.652-0.367,1.359-0.628,2.094-0.774l0.059-1.555
				c0.018-0.454,0.4-0.809,0.857-0.792l1.682,0.065c0.451,0.02,0.811,0.401,0.793,0.856l-0.063,1.555
				c0.719,0.201,1.406,0.517,2.027,0.932l1.143-1.056c0.162-0.149,0.375-0.229,0.592-0.22c0.219,0.008,0.426,0.104,0.574,0.264
				l1.143,1.235c0.311,0.334,0.289,0.857-0.045,1.165l-1.141,1.058c0.363,0.652,0.625,1.358,0.773,2.092l1.553,0.06
				c0.455,0.02,0.811,0.401,0.793,0.857l-0.064,1.682c-0.01,0.219-0.104,0.424-0.264,0.573s-0.375,0.228-0.594,0.219l-1.555-0.06
				c-0.201,0.719-0.518,1.404-0.934,2.026l1.059,1.142c0.148,0.16,0.229,0.374,0.217,0.592c-0.006,0.219-0.1,0.425-0.262,0.574
				l-1.236,1.144c-0.16,0.148-0.373,0.227-0.59,0.219c-0.221-0.009-0.428-0.104-0.576-0.265l-1.055-1.141
				c-0.652,0.365-1.361,0.627-2.092,0.773l-0.063,1.555c-0.016,0.455-0.398,0.81-0.854,0.792l-1.684-0.065
				c-0.012-0.001-0.023-0.001-0.035-0.001c-0.205-0.018-0.398-0.111-0.539-0.264c-0.148-0.159-0.227-0.373-0.219-0.591l0.061-1.555
				c-0.719-0.203-1.404-0.518-2.027-0.933l-1.141,1.057c-0.162,0.149-0.373,0.228-0.594,0.219c-0.219-0.008-0.424-0.104-0.572-0.263
				l-1.145-1.237c-0.309-0.334-0.287-0.855,0.047-1.165l1.141-1.057c-0.363-0.653-0.625-1.359-0.771-2.092l-1.557-0.062
				c-0.455-0.019-0.811-0.399-0.789-0.855l0.064-1.682C472.569,34.103,472.665,33.896,472.825,33.747z M481.692,39.366
				c2.119,0.082,3.91-1.576,3.992-3.695c0.082-2.065-1.467-3.816-3.527-3.984c-0.057-0.005-0.113-0.007-0.168-0.009
				c-2.121-0.082-3.912,1.577-3.994,3.696C477.913,37.495,479.556,39.282,481.692,39.366z"/>
			<g>
				<g>
					<path fill="#016798" d="M503.546,33.467c0.131-0.289,0.369-0.515,0.664-0.626l3.227-1.223
						c-0.254-1.654-0.201-3.347,0.152-4.983l-3.145-1.417c-0.291-0.131-0.516-0.37-0.627-0.667
						c-0.111-0.295-0.102-0.624,0.029-0.913l1.375-3.051c0.268-0.602,0.979-0.869,1.578-0.599l3.145,1.417
						c0.992-1.351,2.223-2.511,3.633-3.417l-1.223-3.226c-0.234-0.617,0.076-1.307,0.693-1.54l3.129-1.187
						c0.295-0.111,0.625-0.101,0.914,0.028c0.287,0.131,0.516,0.37,0.625,0.666l1.225,3.226c1.654-0.255,3.35-0.203,4.982,0.153
						l1.416-3.146c0.133-0.29,0.371-0.515,0.666-0.626c0.297-0.112,0.627-0.104,0.914,0.028l3.053,1.373
						c0.6,0.271,0.867,0.979,0.598,1.58l-1.418,3.146c1.35,0.991,2.51,2.224,3.416,3.631l3.227-1.222
						c0.297-0.112,0.625-0.102,0.914,0.027c0.287,0.131,0.514,0.37,0.625,0.666l1.188,3.128c0.232,0.617-0.078,1.307-0.693,1.541
						l-3.227,1.222c0.254,1.655,0.201,3.348-0.152,4.984l3.145,1.417c0.289,0.131,0.514,0.369,0.625,0.666
						c0.113,0.296,0.104,0.625-0.027,0.914l-1.373,3.051c-0.129,0.287-0.369,0.514-0.666,0.626s-0.623,0.103-0.914-0.028
						l-3.145-1.417c-0.992,1.351-2.225,2.512-3.631,3.417l1.221,3.226c0.234,0.617-0.076,1.306-0.693,1.541l-3.131,1.185
						c-0.135,0.053-0.279,0.078-0.42,0.078c-0.168,0-0.336-0.035-0.492-0.106c-0.287-0.129-0.514-0.369-0.625-0.666l-1.221-3.226
						c-1.66,0.255-3.354,0.203-4.986-0.151l-1.418,3.146c-0.131,0.288-0.367,0.514-0.664,0.626s-0.627,0.103-0.912-0.028
						l-3.055-1.375c-0.6-0.271-0.867-0.978-0.598-1.578l1.418-3.146c-1.35-0.991-2.512-2.224-3.418-3.633l-3.227,1.224
						c-0.617,0.233-1.307-0.077-1.539-0.693l-1.184-3.131C503.405,34.084,503.415,33.756,503.546,33.467z M513.448,32.406
						c1.184,3.129,4.227,5.231,7.572,5.231c0.979,0,1.943-0.179,2.867-0.528c2.023-0.767,3.625-2.274,4.514-4.246
						c0.887-1.972,0.955-4.171,0.188-6.194c-1.184-3.128-4.227-5.229-7.572-5.229c-0.979,0-1.941,0.178-2.865,0.527
						c-2.025,0.767-3.627,2.273-4.516,4.246C512.749,28.185,512.681,30.384,513.448,32.406z"/>
				</g>
			</g>
			<path opacity="0.8" fill="#333333" d="M501.7,36.466l0.686,10.947l-9.824-4.88l2.479-1.646c-1.568-3.581-2.371-7.391-2.371-11.35
				c0-15.632,12.717-28.35,28.35-28.35c6.699,0,13.199,2.38,18.307,6.701l-3.23,3.816c-4.205-3.559-9.559-5.518-15.076-5.518
				c-12.875,0-23.35,10.475-23.35,23.35c0,2.963,0.549,5.822,1.615,8.531L501.7,36.466z"/>
		</g>
	</g>
	<circle fill="#016798" cx="42.216" cy="16.685" r="16.685"/>
	<polygon fill="#016798" points="44.042,42.419 45.28,37.723 39.149,37.723 40.39,42.419 	"/>
	<path fill="#016798" d="M52.132,39.494L42.216,67.92l-9.918-28.426c-2.875,1.232-5.467,2.99-7.674,5.144v0.844v2.137v2.27h-2.268
		H22.31v5.233l10.035,16.013h35.055v-8.485C67.399,52.263,61.11,43.345,52.132,39.494z"/>
	<polygon fill="#016798" points="42.216,61.032 45.655,51.172 44.194,44.688 40.235,44.688 38.812,51.274 	"/>
	<path fill="#016798" d="M20.042,55.773v-8.155h2.314v-2.137H10.421v2.137h2.139v8.155l-3.012,4.805h3.656
		c0.592,0,1.068,0.479,1.068,1.069c0,0.591-0.477,1.069-1.068,1.069H8.206l-1.672,2.672h3.598c0.59,0,1.07,0.479,1.07,1.068
		c0,0.591-0.48,1.069-1.07,1.069H5.192l-1.672,2.672h3.736c0.594,0,1.07,0.479,1.07,1.069c0,0.591-0.477,1.069-1.07,1.069H2.179
		l-2.016,3.218c-0.205,0.329-0.219,0.744-0.031,1.085c0.189,0.341,0.549,0.552,0.936,0.552h14.578c0.205,0,0.434,0,0.654-0.025
		v0.025h15.23c0.389,0,0.748-0.211,0.938-0.552c0.188-0.341,0.176-0.756-0.029-1.085L20.042,55.773z"/>
	<g>
		<path d="M27.138,102.81v-9.242h2.729c0.816,0,1.541,0.182,2.174,0.546s1.123,0.88,1.47,1.549s0.521,1.435,0.521,2.298v0.463
			c0,0.876-0.175,1.646-0.523,2.311c-0.35,0.665-0.847,1.176-1.492,1.536s-1.385,0.54-2.218,0.54H27.138z M28.744,94.862v6.652
			h1.048c0.842,0,1.488-0.263,1.939-0.789c0.45-0.526,0.68-1.281,0.688-2.265v-0.513c0-1.001-0.218-1.766-0.654-2.293
			c-0.436-0.528-1.068-0.792-1.897-0.792H28.744z"/>
		<path d="M40.671,100.658h-3.58l-0.75,2.152h-1.669l3.491-9.242h1.441l3.497,9.242h-1.676L40.671,100.658z M37.542,99.363h2.679
			l-1.34-3.834L37.542,99.363z"/>
		<path d="M50.066,94.862h-2.882v7.947h-1.593v-7.947h-2.857v-1.295h7.332V94.862z"/>
		<path d="M55.691,100.658h-3.58l-0.75,2.152h-1.669l3.491-9.242h1.441l3.497,9.242h-1.676L55.691,100.658z M52.561,99.363h2.679
			l-1.34-3.834L52.561,99.363z"/>
		<path d="M4.601,118.41v-9.242h2.729c0.816,0,1.541,0.182,2.174,0.546s1.123,0.88,1.47,1.549s0.521,1.435,0.521,2.298v0.463
			c0,0.876-0.175,1.646-0.523,2.311c-0.35,0.665-0.847,1.176-1.492,1.536s-1.385,0.54-2.218,0.54H4.601z M6.207,110.462v6.652h1.048
			c0.842,0,1.488-0.263,1.939-0.789c0.45-0.526,0.68-1.281,0.688-2.265v-0.513c0-1.001-0.218-1.766-0.654-2.293
			c-0.436-0.528-1.068-0.792-1.897-0.792H6.207z"/>
		<path d="M18.496,114.284h-3.795v2.831h4.437v1.295h-6.043v-9.242h5.999v1.295h-4.393v2.552h3.795V114.284z"/>
		<path d="M22.05,114.982v3.428h-1.605v-9.242h3.535c1.033,0,1.853,0.269,2.46,0.807s0.911,1.25,0.911,2.135
			c0,0.907-0.297,1.612-0.892,2.116c-0.595,0.504-1.428,0.756-2.498,0.756H22.05z M22.05,113.687h1.93
			c0.572,0,1.008-0.134,1.309-0.403c0.3-0.269,0.45-0.657,0.45-1.165c0-0.5-0.152-0.898-0.457-1.196
			c-0.305-0.299-0.724-0.452-1.257-0.46H22.05V113.687z"/>
		<path d="M36.129,114.03c0,0.906-0.156,1.7-0.47,2.383c-0.313,0.684-0.761,1.208-1.343,1.574c-0.582,0.366-1.251,0.549-2.009,0.549
			c-0.749,0-1.417-0.183-2.003-0.549c-0.586-0.366-1.039-0.887-1.358-1.564s-0.481-1.458-0.485-2.342v-0.521
			c0-0.901,0.16-1.697,0.479-2.387s0.77-1.218,1.352-1.583c0.582-0.366,1.25-0.549,2.003-0.549s1.421,0.181,2.003,0.542
			c0.582,0.362,1.031,0.883,1.349,1.562c0.317,0.68,0.479,1.47,0.482,2.371V114.03z M34.523,113.547c0-1.024-0.193-1.809-0.58-2.355
			c-0.388-0.546-0.937-0.819-1.647-0.819c-0.694,0-1.236,0.272-1.628,0.816c-0.392,0.543-0.592,1.313-0.6,2.307v0.533
			c0,1.016,0.197,1.801,0.593,2.355s0.945,0.832,1.647,0.832c0.711,0,1.258-0.271,1.641-0.813s0.574-1.333,0.574-2.374V113.547z"/>
		<path d="M42.56,116.029c0-0.406-0.143-0.719-0.428-0.939c-0.286-0.22-0.801-0.442-1.546-0.667s-1.337-0.474-1.777-0.749
			c-0.842-0.529-1.263-1.219-1.263-2.069c0-0.745,0.303-1.358,0.91-1.841s1.396-0.724,2.365-0.724c0.643,0,1.216,0.119,1.72,0.355
			s0.899,0.575,1.187,1.012c0.288,0.438,0.432,0.924,0.432,1.457h-1.6c0-0.479-0.15-0.853-0.453-1.124
			c-0.303-0.271-0.735-0.406-1.299-0.406c-0.524,0-0.932,0.112-1.222,0.335c-0.29,0.224-0.435,0.535-0.435,0.936
			c0,0.337,0.156,0.619,0.47,0.844s0.829,0.444,1.549,0.657s1.297,0.456,1.733,0.729c0.436,0.273,0.755,0.586,0.958,0.939
			c0.203,0.354,0.305,0.767,0.305,1.241c0,0.77-0.295,1.383-0.886,1.838c-0.59,0.455-1.391,0.682-2.402,0.682
			c-0.669,0-1.283-0.124-1.844-0.372c-0.561-0.247-0.997-0.589-1.308-1.025c-0.312-0.436-0.467-0.944-0.467-1.523h1.606
			c0,0.525,0.173,0.931,0.52,1.219c0.348,0.288,0.845,0.432,1.492,0.432c0.559,0,0.979-0.113,1.26-0.339
			C42.419,116.701,42.56,116.402,42.56,116.029z"/>
		<path d="M47.271,118.41h-1.6v-9.242h1.6V118.41z"/>
		<path d="M55.738,110.462h-2.882v7.947h-1.593v-7.947h-2.857v-1.295h7.332V110.462z"/>
		<path d="M64.149,114.03c0,0.906-0.156,1.7-0.47,2.383c-0.313,0.684-0.761,1.208-1.343,1.574c-0.582,0.366-1.251,0.549-2.009,0.549
			c-0.749,0-1.417-0.183-2.003-0.549c-0.586-0.366-1.039-0.887-1.358-1.564s-0.481-1.458-0.485-2.342v-0.521
			c0-0.901,0.16-1.697,0.479-2.387s0.77-1.218,1.352-1.583c0.582-0.366,1.25-0.549,2.003-0.549s1.421,0.181,2.003,0.542
			c0.582,0.362,1.031,0.883,1.349,1.562c0.317,0.68,0.479,1.47,0.482,2.371V114.03z M62.542,113.547c0-1.024-0.193-1.809-0.58-2.355
			c-0.388-0.546-0.937-0.819-1.647-0.819c-0.694,0-1.236,0.272-1.628,0.816c-0.392,0.543-0.592,1.313-0.6,2.307v0.533
			c0,1.016,0.197,1.801,0.593,2.355s0.945,0.832,1.647,0.832c0.711,0,1.258-0.271,1.641-0.813s0.574-1.333,0.574-2.374V113.547z"/>
		<path d="M69.144,114.855h-1.791v3.555h-1.605v-9.242h3.25c1.066,0,1.89,0.239,2.469,0.718c0.58,0.479,0.87,1.171,0.87,2.078
			c0,0.618-0.149,1.136-0.447,1.553c-0.299,0.417-0.714,0.738-1.247,0.962l2.075,3.849v0.083h-1.72L69.144,114.855z M67.353,113.56
			h1.65c0.542,0,0.965-0.136,1.27-0.41c0.305-0.272,0.457-0.646,0.457-1.12c0-0.495-0.141-0.878-0.422-1.149
			s-0.701-0.411-1.26-0.419h-1.695V113.56z"/>
		<path d="M78.691,116.029c0-0.406-0.143-0.719-0.428-0.939c-0.286-0.22-0.801-0.442-1.546-0.667s-1.337-0.474-1.777-0.749
			c-0.842-0.529-1.263-1.219-1.263-2.069c0-0.745,0.303-1.358,0.91-1.841s1.396-0.724,2.365-0.724c0.643,0,1.216,0.119,1.72,0.355
			s0.899,0.575,1.187,1.012c0.288,0.438,0.432,0.924,0.432,1.457h-1.6c0-0.479-0.15-0.853-0.453-1.124
			c-0.303-0.271-0.735-0.406-1.299-0.406c-0.524,0-0.932,0.112-1.222,0.335c-0.29,0.224-0.435,0.535-0.435,0.936
			c0,0.337,0.156,0.619,0.47,0.844s0.829,0.444,1.549,0.657s1.297,0.456,1.733,0.729c0.436,0.273,0.755,0.586,0.958,0.939
			c0.203,0.354,0.305,0.767,0.305,1.241c0,0.77-0.295,1.383-0.886,1.838c-0.59,0.455-1.391,0.682-2.402,0.682
			c-0.669,0-1.283-0.124-1.844-0.372c-0.561-0.247-0.997-0.589-1.308-1.025c-0.312-0.436-0.467-0.944-0.467-1.523h1.606
			c0,0.525,0.173,0.931,0.52,1.219c0.348,0.288,0.845,0.432,1.492,0.432c0.559,0,0.979-0.113,1.26-0.339
			C78.55,116.701,78.691,116.402,78.691,116.029z"/>
	</g>
	<g>
		<path fill="#016798" d="M650.571,33.423c9.215,0,16.688-7.471,16.688-16.686s-7.473-16.686-16.688-16.686
			c-9.213,0-16.684,7.471-16.684,16.686S641.358,33.423,650.571,33.423z"/>
		<path fill="#016798" d="M640.657,37.83c-1.467,0.629-2.852,1.405-4.16,2.289l-0.352,6.03L641.782,47l-2.947,5.346l6.422,17.123
			h4.164l-7.178-25.91L640.657,37.83z"/>
		<path fill="#016798" d="M639.558,48.099l-4.904-0.74l0.361-6.157c-5.855,4.611-9.625,11.752-9.625,19.783v8.484h16.109h2.242
			l-6.463-17.237L639.558,48.099z"/>
		<path fill="#016798" d="M659.329,47l5.637-0.851l-0.354-6.032c-1.307-0.883-2.691-1.658-4.156-2.287l-1.59,5.729l-0.008,0.032l0,0
			l-7.17,25.878h0.035h4.131l6.422-17.123L659.329,47z"/>
		<path fill="#016798" d="M667.444,65.885l-2.105-1.215l1.217-2.104l0.857-1.481l1.213-2.1l2.102,1.213l4.992,2.881v-1.304
			l-1.135-0.654l-0.871-0.503l-0.26-0.972l-0.473-1.766l-0.262-0.97l0.504-0.87l1.395-2.42c-1.521-4.968-4.537-9.281-8.523-12.42
			l0.363,6.157l-4.904,0.74l2.279,4.133l-6.465,17.237h2.244h14.041L667.444,65.885z"/>
		<path fill="#016798" d="M690.376,75.424c2.295-2.92,3.57-6.548,3.57-10.321c0-5.549-2.709-10.637-7.189-13.735l0.932-1.616
			l-6.025-3.479l-4.447,7.704l6.025,3.479l2.084-3.608c3.602,2.582,5.771,6.735,5.771,11.256c0,1.824-0.363,3.607-1.039,5.259
			c-0.797-2.076-2.811-3.554-5.164-3.554c-1.682,0-3.191,0.756-4.205,1.943L669.515,62.3l-0.857,1.482l11.133,6.427
			c-0.277,0.655-0.428,1.375-0.428,2.131c0,1.141,0.346,2.203,0.941,3.084h-15.611v2.853h29.539v-2.853H690.376z M684.894,75.02
			c-1.479,0-2.682-1.202-2.682-2.68c0-1.479,1.203-2.681,2.682-2.681c1.477,0,2.68,1.202,2.68,2.681
			C687.573,73.817,686.37,75.02,684.894,75.02z"/>
		
			<rect x="683.01" y="42.965" transform="matrix(0.866 0.5 -0.5 0.866 114.3978 -337.2146)" fill="#016798" width="6.957" height="3.82"/>
		<polygon fill="#016798" points="679.585,61.205 681.351,60.732 682.386,58.938 676.36,55.458 675.325,57.253 675.798,59.019 		"/>
		<path fill="#016798" d="M650.571,46.428c-2.367,0-4.592-0.61-6.527-1.68l6.51,23.503l6.506-23.479
			C655.134,45.826,652.925,46.428,650.571,46.428z"/>
		<g>
			<path d="M635.498,102.81v-9.242h2.729c0.816,0,1.541,0.182,2.174,0.546s1.123,0.88,1.47,1.549s0.521,1.435,0.521,2.298v0.463
				c0,0.876-0.175,1.646-0.523,2.311c-0.35,0.665-0.847,1.176-1.492,1.536s-1.385,0.54-2.218,0.54H635.498z M637.104,94.862v6.652
				h1.048c0.842,0,1.488-0.263,1.939-0.789c0.45-0.526,0.68-1.281,0.688-2.265v-0.513c0-1.001-0.218-1.766-0.654-2.293
				c-0.436-0.528-1.068-0.792-1.897-0.792H637.104z"/>
			<path d="M649.031,100.658h-3.58l-0.75,2.152h-1.669l3.491-9.242h1.441l3.497,9.242h-1.676L649.031,100.658z M645.901,99.363
				h2.679l-1.34-3.834L645.901,99.363z"/>
			<path d="M658.426,94.862h-2.882v7.947h-1.593v-7.947h-2.857v-1.295h7.332V94.862z"/>
			<path d="M664.051,100.658h-3.58l-0.75,2.152h-1.669l3.491-9.242h1.441l3.497,9.242h-1.676L664.051,100.658z M660.921,99.363
				h2.679l-1.34-3.834L660.921,99.363z"/>
			<path d="M614.531,114.855h-1.791v3.555h-1.605v-9.242h3.25c1.066,0,1.89,0.239,2.469,0.718c0.58,0.479,0.87,1.171,0.87,2.078
				c0,0.618-0.149,1.136-0.447,1.553c-0.299,0.417-0.714,0.738-1.247,0.962l2.075,3.849v0.083h-1.72L614.531,114.855z
				 M612.74,113.56h1.65c0.542,0,0.965-0.136,1.27-0.41c0.305-0.272,0.457-0.646,0.457-1.12c0-0.495-0.141-0.878-0.422-1.149
				s-0.701-0.411-1.26-0.419h-1.695V113.56z"/>
			<path d="M624.648,114.284h-3.795v2.831h4.437v1.295h-6.043v-9.242h5.999v1.295h-4.393v2.552h3.795V114.284z"/>
			<path d="M633.941,114.03c0,0.876-0.138,1.634-0.415,2.276c-0.277,0.641-0.666,1.15-1.165,1.526l1.587,1.238l-1.041,0.939
				l-1.968-1.555c-0.258,0.055-0.535,0.083-0.832,0.083c-0.744,0-1.41-0.183-1.996-0.549c-0.586-0.366-1.039-0.887-1.358-1.564
				s-0.481-1.458-0.485-2.342v-0.521c0-0.901,0.16-1.697,0.479-2.387s0.77-1.218,1.352-1.583c0.582-0.366,1.247-0.549,1.997-0.549
				c0.762,0,1.433,0.181,2.015,0.542c0.582,0.362,1.032,0.883,1.349,1.562c0.318,0.68,0.479,1.47,0.482,2.371V114.03z
				 M632.33,113.547c0-1.041-0.195-1.83-0.584-2.368c-0.39-0.538-0.939-0.806-1.65-0.806c-0.69,0-1.23,0.272-1.622,0.816
				c-0.392,0.543-0.592,1.311-0.601,2.301v0.54c0,0.999,0.196,1.779,0.588,2.342s0.94,0.844,1.646,0.844
				c0.716,0,1.265-0.271,1.647-0.813s0.575-1.333,0.575-2.374V113.547z"/>
			<path d="M642.334,109.167v6.176c0,0.982-0.314,1.759-0.943,2.333c-0.628,0.573-1.465,0.86-2.51,0.86
				c-1.059,0-1.898-0.283-2.521-0.847c-0.622-0.565-0.933-1.349-0.933-2.352v-6.17h1.6v6.173c0,0.617,0.156,1.088,0.469,1.414
				c0.313,0.325,0.775,0.488,1.385,0.488c1.235,0,1.854-0.651,1.854-1.952v-6.122H642.334z"/>
			<path d="M649.449,114.284h-3.797v2.831h4.438v1.295h-6.043v-9.242h5.998v1.295h-4.393v2.552h3.797V114.284z"/>
			<path d="M656.229,116.029c0-0.406-0.143-0.719-0.428-0.939c-0.286-0.22-0.801-0.442-1.546-0.667s-1.337-0.474-1.777-0.749
				c-0.842-0.529-1.263-1.219-1.263-2.069c0-0.745,0.303-1.358,0.91-1.841s1.396-0.724,2.365-0.724c0.643,0,1.216,0.119,1.72,0.355
				s0.899,0.575,1.187,1.012c0.288,0.438,0.432,0.924,0.432,1.457h-1.6c0-0.479-0.15-0.853-0.453-1.124
				c-0.303-0.271-0.735-0.406-1.299-0.406c-0.524,0-0.932,0.112-1.222,0.335c-0.29,0.224-0.435,0.535-0.435,0.936
				c0,0.337,0.156,0.619,0.47,0.844s0.829,0.444,1.549,0.657s1.297,0.456,1.733,0.729c0.436,0.273,0.755,0.586,0.958,0.939
				c0.203,0.354,0.305,0.767,0.305,1.241c0,0.77-0.295,1.383-0.886,1.838c-0.59,0.455-1.391,0.682-2.402,0.682
				c-0.669,0-1.283-0.124-1.844-0.372c-0.561-0.247-0.997-0.589-1.308-1.025c-0.312-0.436-0.467-0.944-0.467-1.523h1.606
				c0,0.525,0.173,0.931,0.52,1.219c0.348,0.288,0.845,0.432,1.492,0.432c0.559,0,0.979-0.113,1.26-0.339
				C656.088,116.701,656.229,116.402,656.229,116.029z"/>
			<path d="M665.922,110.462h-2.882v7.947h-1.593v-7.947h-2.857v-1.295h7.332V110.462z"/>
			<path d="M674.332,114.03c0,0.906-0.156,1.7-0.47,2.383c-0.313,0.684-0.761,1.208-1.343,1.574
				c-0.582,0.366-1.251,0.549-2.009,0.549c-0.749,0-1.417-0.183-2.003-0.549c-0.586-0.366-1.039-0.887-1.358-1.564
				s-0.481-1.458-0.485-2.342v-0.521c0-0.901,0.16-1.697,0.479-2.387s0.77-1.218,1.352-1.583c0.582-0.366,1.25-0.549,2.003-0.549
				s1.421,0.181,2.003,0.542c0.582,0.362,1.031,0.883,1.349,1.562c0.317,0.68,0.479,1.47,0.482,2.371V114.03z M672.727,113.547
				c0-1.024-0.194-1.809-0.581-2.355c-0.388-0.546-0.937-0.819-1.647-0.819c-0.694,0-1.236,0.272-1.628,0.816
				c-0.392,0.543-0.592,1.313-0.601,2.307v0.533c0,1.016,0.198,1.801,0.594,2.355s0.945,0.832,1.647,0.832
				c0.711,0,1.258-0.271,1.641-0.813s0.575-1.333,0.575-2.374V113.547z"/>
			<path d="M679.328,114.855h-1.791v3.555h-1.605v-9.242h3.25c1.066,0,1.89,0.239,2.469,0.718c0.58,0.479,0.87,1.171,0.87,2.078
				c0,0.618-0.149,1.136-0.447,1.553c-0.299,0.417-0.714,0.738-1.247,0.962l2.075,3.849v0.083h-1.72L679.328,114.855z
				 M677.537,113.56h1.65c0.542,0,0.965-0.136,1.27-0.41c0.305-0.272,0.457-0.646,0.457-1.12c0-0.495-0.141-0.878-0.422-1.149
				s-0.701-0.411-1.26-0.419h-1.695V113.56z"/>
			<path d="M688.875,116.029c0-0.406-0.144-0.719-0.429-0.939c-0.286-0.22-0.801-0.442-1.546-0.667s-1.337-0.474-1.777-0.749
				c-0.842-0.529-1.264-1.219-1.264-2.069c0-0.745,0.304-1.358,0.911-1.841s1.396-0.724,2.364-0.724
				c0.644,0,1.217,0.119,1.721,0.355s0.899,0.575,1.188,1.012c0.287,0.438,0.432,0.924,0.432,1.457h-1.6
				c0-0.479-0.151-0.853-0.454-1.124c-0.303-0.271-0.735-0.406-1.298-0.406c-0.525,0-0.933,0.112-1.223,0.335
				c-0.29,0.224-0.435,0.535-0.435,0.936c0,0.337,0.156,0.619,0.47,0.844s0.829,0.444,1.549,0.657s1.297,0.456,1.732,0.729
				c0.437,0.273,0.756,0.586,0.959,0.939c0.203,0.354,0.305,0.767,0.305,1.241c0,0.77-0.295,1.383-0.886,1.838
				c-0.59,0.455-1.391,0.682-2.402,0.682c-0.669,0-1.283-0.124-1.844-0.372c-0.561-0.247-0.997-0.589-1.308-1.025
				c-0.312-0.436-0.467-0.944-0.467-1.523h1.605c0,0.525,0.174,0.931,0.521,1.219c0.347,0.288,0.844,0.432,1.491,0.432
				c0.559,0,0.979-0.113,1.26-0.339C688.733,116.701,688.875,116.402,688.875,116.029z"/>
		</g>
	</g>
	<g>
		<g>
			<circle fill="#3F8C51" cx="347.114" cy="186.975" r="7.019"/>
			<circle fill="#3F8C51" cx="322.394" cy="197.559" r="7.722"/>
			<circle fill="#3F8C51" cx="371.835" cy="197.559" r="7.722"/>
			<circle fill="#3F8C51" cx="389.805" cy="218.605" r="8.493"/>
			<path fill="#3F8C51" d="M309.162,251.884l6.869-11.108c-0.305-6.151-5.377-11.05-11.605-11.05
				c-6.348,0-11.496,5.086-11.621,11.402h-0.012v11.922h15.648L309.162,251.884z"/>
			<path fill="#3F8C51" d="M317.877,237.789l14.391-23.274c-1.518-3.979-5.361-6.805-9.875-6.805c-3.781,0-7.096,1.987-8.963,4.974
				c1.123,1.702,1.779,3.736,1.779,5.922c0,3.086-1.307,5.871-3.389,7.838v3.122c0.838,0.528,1.631,1.148,2.354,1.86
				C315.982,233.203,317.248,235.395,317.877,237.789z"/>
			<path fill="#3F8C51" d="M376.43,237.54c0.65-2.297,1.883-4.399,3.628-6.114c0.724-0.712,1.513-1.332,2.354-1.86v-3.122
				c-2.084-1.967-3.391-4.752-3.391-7.838c0-2.186,0.656-4.22,1.779-5.922c-1.866-2.986-5.184-4.974-8.965-4.974
				c-4.426,0-8.209,2.722-9.783,6.581L376.43,237.54z"/>
			<path fill="#3F8C51" d="M401.426,241.128c-0.125-6.316-5.275-11.402-11.621-11.402c-6.113,0-11.113,4.719-11.586,10.711
				l7.078,11.447l0.723,1.166h15.418v-11.922H401.426z"/>
			<path fill="#3F8C51" d="M347.229,213.145h9.5v-7.478h-0.01c-0.102-5.22-4.359-9.422-9.604-9.422
				c-5.246,0-9.502,4.202-9.604,9.422h-0.01v7.478H347.229z"/>
			<polygon fill="#3F8C51" points="347.229,215.434 334.392,215.434 311.109,253.088 347.229,253.088 383.352,253.088 
				360.068,215.434 			"/>
			<circle fill="#3F8C51" cx="304.426" cy="218.605" r="8.493"/>
		</g>
		<g>
			<path d="M267.389,277.144v-9.242h2.729c0.816,0,1.541,0.182,2.174,0.546s1.123,0.88,1.47,1.549s0.521,1.435,0.521,2.298v0.463
				c0,0.876-0.175,1.646-0.523,2.311c-0.35,0.665-0.847,1.176-1.492,1.536s-1.385,0.54-2.219,0.54H267.389z M268.995,269.196v6.652
				h1.047c0.842,0,1.488-0.263,1.939-0.789c0.45-0.526,0.68-1.281,0.688-2.265v-0.513c0-1.001-0.218-1.766-0.653-2.293
				c-0.437-0.528-1.069-0.792-1.898-0.792H268.995z"/>
			<path d="M280.923,274.992h-3.58l-0.75,2.152h-1.669l3.491-9.242h1.441l3.497,9.242h-1.676L280.923,274.992z M277.793,273.697
				h2.679l-1.34-3.834L277.793,273.697z"/>
			<path d="M290.316,269.196h-2.882v7.947h-1.594v-7.947h-2.855v-1.295h7.331V269.196z"/>
			<path d="M295.94,274.992h-3.58l-0.75,2.152h-1.669l3.491-9.242h1.441l3.497,9.242h-1.676L295.94,274.992z M292.811,273.697h2.679
				l-1.34-3.834L292.811,273.697z"/>
			<path d="M307.829,274.992h-3.58l-0.748,2.152h-1.67l3.491-9.242h1.44l3.498,9.242h-1.676L307.829,274.992z M304.7,273.697h2.679
				l-1.339-3.834L304.7,273.697z"/>
			<path d="M318.228,274.135c-0.094,0.986-0.457,1.755-1.092,2.308c-0.635,0.552-1.479,0.828-2.533,0.828
				c-0.736,0-1.385-0.175-1.945-0.523c-0.561-0.35-0.994-0.846-1.299-1.489s-0.463-1.39-0.476-2.241v-0.863
				c0-0.872,0.154-1.64,0.464-2.304c0.309-0.665,0.752-1.176,1.329-1.536c0.578-0.36,1.245-0.54,2.003-0.54
				c1.02,0,1.841,0.276,2.463,0.828c0.622,0.553,0.984,1.334,1.086,2.346h-1.6c-0.076-0.665-0.271-1.144-0.581-1.438
				c-0.312-0.294-0.768-0.441-1.368-0.441c-0.698,0-1.234,0.255-1.609,0.766c-0.374,0.51-0.565,1.259-0.574,2.246v0.819
				c0,1,0.179,1.762,0.536,2.288c0.357,0.525,0.882,0.788,1.571,0.788c0.631,0,1.104-0.142,1.422-0.425s0.519-0.755,0.604-1.416
				H318.228z"/>
			<path d="M326.714,274.135c-0.094,0.986-0.457,1.755-1.092,2.308c-0.635,0.552-1.479,0.828-2.533,0.828
				c-0.736,0-1.385-0.175-1.945-0.523c-0.561-0.35-0.994-0.846-1.299-1.489s-0.463-1.39-0.476-2.241v-0.863
				c0-0.872,0.154-1.64,0.464-2.304c0.309-0.665,0.752-1.176,1.329-1.536c0.578-0.36,1.245-0.54,2.003-0.54
				c1.02,0,1.841,0.276,2.463,0.828c0.622,0.553,0.984,1.334,1.086,2.346h-1.6c-0.076-0.665-0.271-1.144-0.581-1.438
				c-0.312-0.294-0.768-0.441-1.368-0.441c-0.698,0-1.234,0.255-1.609,0.766c-0.374,0.51-0.565,1.259-0.574,2.246v0.819
				c0,1,0.179,1.762,0.536,2.288c0.357,0.525,0.882,0.788,1.571,0.788c0.631,0,1.104-0.142,1.422-0.425s0.519-0.755,0.604-1.416
				H326.714z"/>
			<path d="M333.55,273.018h-3.795v2.831h4.437v1.295h-6.043v-9.242h5.999v1.295h-4.393v2.552h3.795V273.018z"/>
			<path d="M340.329,274.763c0-0.406-0.143-0.719-0.428-0.939c-0.286-0.22-0.801-0.442-1.546-0.667s-1.337-0.474-1.777-0.749
				c-0.842-0.529-1.263-1.219-1.263-2.069c0-0.745,0.303-1.358,0.91-1.841s1.396-0.724,2.365-0.724c0.643,0,1.216,0.119,1.72,0.355
				s0.899,0.574,1.187,1.013c0.288,0.438,0.432,0.923,0.432,1.457h-1.6c0-0.479-0.15-0.853-0.453-1.124
				c-0.303-0.271-0.735-0.406-1.299-0.406c-0.524,0-0.932,0.112-1.222,0.335c-0.29,0.224-0.435,0.535-0.435,0.936
				c0,0.337,0.156,0.619,0.47,0.844s0.829,0.444,1.549,0.657s1.297,0.456,1.733,0.729c0.436,0.272,0.755,0.586,0.958,0.939
				c0.203,0.353,0.305,0.767,0.305,1.241c0,0.77-0.295,1.383-0.886,1.837c-0.59,0.455-1.391,0.683-2.402,0.683
				c-0.669,0-1.283-0.124-1.844-0.371c-0.561-0.248-0.997-0.589-1.308-1.025c-0.312-0.436-0.467-0.944-0.467-1.523h1.606
				c0,0.525,0.173,0.931,0.52,1.219c0.348,0.288,0.845,0.432,1.492,0.432c0.559,0,0.979-0.113,1.26-0.34
				C340.188,275.435,340.329,275.136,340.329,274.763z"/>
			<path d="M348.175,274.763c0-0.406-0.143-0.719-0.428-0.939c-0.286-0.22-0.801-0.442-1.546-0.667s-1.337-0.474-1.777-0.749
				c-0.842-0.529-1.263-1.219-1.263-2.069c0-0.745,0.303-1.358,0.91-1.841s1.396-0.724,2.365-0.724c0.643,0,1.216,0.119,1.72,0.355
				s0.899,0.574,1.187,1.013c0.288,0.438,0.432,0.923,0.432,1.457h-1.6c0-0.479-0.15-0.853-0.453-1.124
				c-0.303-0.271-0.735-0.406-1.299-0.406c-0.524,0-0.932,0.112-1.222,0.335c-0.29,0.224-0.435,0.535-0.435,0.936
				c0,0.337,0.156,0.619,0.47,0.844s0.829,0.444,1.549,0.657s1.297,0.456,1.733,0.729c0.436,0.272,0.755,0.586,0.958,0.939
				c0.203,0.353,0.305,0.767,0.305,1.241c0,0.77-0.295,1.383-0.886,1.837c-0.59,0.455-1.391,0.683-2.402,0.683
				c-0.669,0-1.283-0.124-1.844-0.371c-0.561-0.248-0.997-0.589-1.308-1.025c-0.312-0.436-0.467-0.944-0.467-1.523h1.606
				c0,0.525,0.173,0.931,0.52,1.219c0.348,0.288,0.845,0.432,1.492,0.432c0.559,0,0.979-0.113,1.26-0.34
				C348.034,275.435,348.175,275.136,348.175,274.763z"/>
			<path d="M361.479,274.135c-0.093,0.986-0.457,1.755-1.092,2.308c-0.635,0.552-1.479,0.828-2.532,0.828
				c-0.736,0-1.385-0.175-1.945-0.523c-0.561-0.35-0.993-0.846-1.298-1.489s-0.464-1.39-0.477-2.241v-0.863
				c0-0.872,0.154-1.64,0.463-2.304c0.31-0.665,0.753-1.176,1.33-1.536c0.578-0.36,1.245-0.54,2.003-0.54
				c1.02,0,1.841,0.276,2.463,0.828c0.622,0.553,0.983,1.334,1.085,2.346h-1.6c-0.076-0.665-0.27-1.144-0.58-1.438
				c-0.312-0.294-0.768-0.441-1.368-0.441c-0.698,0-1.234,0.255-1.609,0.766c-0.374,0.51-0.565,1.259-0.574,2.246v0.819
				c0,1,0.179,1.762,0.536,2.288c0.357,0.525,0.882,0.788,1.571,0.788c0.631,0,1.104-0.142,1.422-0.425s0.519-0.755,0.603-1.416
				H361.479z"/>
			<path d="M370.291,272.764c0,0.906-0.156,1.7-0.47,2.384c-0.313,0.683-0.761,1.208-1.343,1.574
				c-0.582,0.366-1.251,0.549-2.009,0.549c-0.749,0-1.417-0.183-2.003-0.549c-0.586-0.366-1.039-0.888-1.358-1.565
				s-0.481-1.458-0.485-2.342v-0.521c0-0.901,0.16-1.697,0.479-2.387s0.77-1.218,1.352-1.584c0.582-0.366,1.25-0.549,2.003-0.549
				s1.421,0.181,2.003,0.543c0.582,0.361,1.031,0.882,1.349,1.562c0.317,0.679,0.479,1.469,0.482,2.371V272.764z M368.685,272.281
				c0-1.024-0.193-1.809-0.58-2.355c-0.388-0.546-0.937-0.819-1.647-0.819c-0.694,0-1.236,0.272-1.628,0.815
				c-0.392,0.544-0.592,1.313-0.6,2.308v0.533c0,1.016,0.197,1.801,0.593,2.355s0.945,0.832,1.647,0.832
				c0.711,0,1.258-0.271,1.641-0.813s0.574-1.333,0.574-2.374V272.281z"/>
			<path d="M373.972,267.901l2.666,7.084l2.66-7.084h2.075v9.242h-1.6v-3.047l0.159-4.075l-2.73,7.122h-1.148l-2.723-7.116
				l0.158,4.069v3.047h-1.6v-9.242H373.972z"/>
			<path d="M385.354,267.901l2.666,7.084l2.659-7.084h2.076v9.242h-1.6v-3.047l0.158-4.075l-2.729,7.122h-1.149l-2.724-7.116
				l0.159,4.069v3.047h-1.6v-9.242H385.354z"/>
			<path d="M396.349,277.144h-1.6v-9.242h1.6V277.144z"/>
			<path d="M404.815,269.196h-2.882v7.947h-1.593v-7.947h-2.857v-1.295h7.332V269.196z"/>
			<path d="M412.808,269.196h-2.882v7.947h-1.593v-7.947h-2.857v-1.295h7.332V269.196z"/>
			<path d="M419.421,273.018h-3.795v2.831h4.437v1.295h-6.043v-9.242h5.999v1.295h-4.393v2.552h3.795V273.018z"/>
			<path d="M426.772,273.018h-3.797v2.831h4.438v1.295h-6.043v-9.242h5.998v1.295h-4.393v2.552h3.797V273.018z"/>
		</g>
	</g>
	<g>
		<path d="M316.852,93.567l2.666,7.084l2.66-7.084h2.075v9.242h-1.6v-3.047l0.159-4.075l-2.73,7.122h-1.148l-2.723-7.116
			l0.158,4.069v3.047h-1.6v-9.242H316.852z"/>
		<path d="M331.44,100.658h-3.58l-0.75,2.152h-1.669l3.491-9.242h1.441l3.497,9.242h-1.676L331.44,100.658z M328.31,99.363h2.679
			l-1.34-3.834L328.31,99.363z"/>
		<path d="M340.833,94.862h-2.882v7.947h-1.594v-7.947h-2.855v-1.295h7.331V94.862z"/>
		<path d="M348.92,99.801c-0.094,0.986-0.457,1.755-1.092,2.308c-0.635,0.552-1.479,0.828-2.533,0.828
			c-0.736,0-1.385-0.175-1.945-0.523c-0.561-0.35-0.994-0.846-1.299-1.489s-0.463-1.39-0.476-2.241V97.82
			c0-0.872,0.154-1.64,0.464-2.304c0.309-0.665,0.752-1.176,1.329-1.536c0.578-0.36,1.245-0.54,2.003-0.54
			c1.02,0,1.841,0.276,2.463,0.828c0.622,0.553,0.984,1.334,1.086,2.346h-1.6c-0.076-0.665-0.271-1.144-0.581-1.438
			c-0.312-0.294-0.768-0.441-1.368-0.441c-0.698,0-1.234,0.255-1.609,0.766c-0.374,0.51-0.565,1.259-0.574,2.246v0.819
			c0,1,0.179,1.762,0.536,2.288c0.357,0.525,0.882,0.788,1.571,0.788c0.631,0,1.104-0.142,1.422-0.425s0.519-0.755,0.604-1.416
			H348.92z"/>
		<path d="M357.693,102.81h-1.6v-4.101h-4.132v4.101h-1.606v-9.242h1.606v3.847h4.132v-3.847h1.6V102.81z"/>
		<path d="M361.286,102.81h-1.6v-9.242h1.6V102.81z"/>
		<path d="M370.592,102.81h-1.606l-4.12-6.557v6.557h-1.605v-9.242h1.605l4.133,6.583v-6.583h1.594V102.81z"/>
		<path d="M379.573,101.61c-0.334,0.436-0.798,0.766-1.391,0.99c-0.592,0.224-1.265,0.336-2.018,0.336
			c-0.775,0-1.461-0.176-2.057-0.527c-0.598-0.351-1.058-0.854-1.381-1.507c-0.324-0.654-0.492-1.417-0.505-2.289V97.89
			c0-1.396,0.334-2.487,1.003-3.272c0.669-0.785,1.602-1.178,2.799-1.178c1.029,0,1.846,0.255,2.451,0.765
			c0.604,0.51,0.969,1.243,1.092,2.2h-1.574c-0.178-1.113-0.823-1.669-1.937-1.669c-0.72,0-1.267,0.259-1.641,0.775
			c-0.375,0.517-0.568,1.275-0.581,2.276v0.709c0,0.996,0.211,1.769,0.632,2.32s1.006,0.826,1.755,0.826
			c0.821,0,1.405-0.185,1.752-0.556v-1.799h-1.904v-1.219h3.504V101.61z"/>
		<path d="M316.624,116.258h-3.58l-0.748,2.152h-1.67l3.491-9.242h1.44l3.498,9.242h-1.676L316.624,116.258z M313.495,114.963h2.679
			l-1.339-3.834L313.495,114.963z"/>
		<path d="M321.708,117.115h4.196v1.295h-5.802v-9.242h1.605V117.115z"/>
		<path d="M333.813,117.21c-0.334,0.436-0.798,0.766-1.391,0.99c-0.592,0.224-1.265,0.336-2.018,0.336
			c-0.775,0-1.461-0.176-2.057-0.527c-0.598-0.351-1.058-0.854-1.381-1.508c-0.324-0.653-0.492-1.417-0.505-2.288v-0.724
			c0-1.396,0.334-2.487,1.003-3.272c0.669-0.785,1.602-1.177,2.799-1.177c1.029,0,1.846,0.255,2.451,0.765
			c0.604,0.51,0.969,1.243,1.092,2.199h-1.574c-0.178-1.113-0.823-1.669-1.937-1.669c-0.72,0-1.267,0.259-1.641,0.775
			c-0.375,0.517-0.568,1.275-0.581,2.276v0.709c0,0.996,0.211,1.769,0.632,2.32s1.006,0.826,1.755,0.826
			c0.821,0,1.405-0.185,1.752-0.556v-1.799h-1.904v-1.219h3.504V117.21z"/>
		<path d="M342.955,114.03c0,0.906-0.156,1.7-0.47,2.383c-0.313,0.684-0.761,1.208-1.343,1.574
			c-0.582,0.366-1.251,0.549-2.009,0.549c-0.749,0-1.417-0.183-2.003-0.549c-0.586-0.366-1.039-0.887-1.358-1.564
			s-0.481-1.458-0.485-2.342v-0.521c0-0.901,0.16-1.697,0.479-2.387s0.77-1.218,1.352-1.583c0.582-0.366,1.25-0.549,2.003-0.549
			s1.421,0.181,2.003,0.542c0.582,0.362,1.031,0.883,1.349,1.562c0.317,0.68,0.479,1.47,0.482,2.371V114.03z M341.348,113.547
			c0-1.024-0.193-1.809-0.58-2.355c-0.388-0.546-0.937-0.819-1.647-0.819c-0.694,0-1.236,0.272-1.628,0.816
			c-0.392,0.543-0.592,1.313-0.6,2.307v0.533c0,1.016,0.197,1.801,0.593,2.355s0.945,0.832,1.647,0.832
			c0.711,0,1.258-0.271,1.641-0.813s0.574-1.333,0.574-2.374V113.547z"/>
		<path d="M347.95,114.855h-1.791v3.555h-1.605v-9.242h3.25c1.066,0,1.89,0.239,2.469,0.718c0.58,0.479,0.87,1.171,0.87,2.078
			c0,0.618-0.149,1.136-0.447,1.553c-0.299,0.417-0.714,0.738-1.247,0.962l2.075,3.849v0.083h-1.72L347.95,114.855z M346.159,113.56
			h1.65c0.542,0,0.965-0.136,1.27-0.41c0.305-0.272,0.457-0.646,0.457-1.12c0-0.495-0.141-0.878-0.422-1.149
			s-0.701-0.411-1.26-0.419h-1.695V113.56z"/>
		<path d="M354.362,118.41h-1.6v-9.242h1.6V118.41z"/>
		<path d="M362.829,110.462h-2.882v7.947h-1.593v-7.947h-2.857v-1.295h7.332V110.462z"/>
		<path d="M371.379,118.41h-1.6v-4.101h-4.133v4.101h-1.605v-9.242h1.605v3.847h4.133v-3.847h1.6V118.41z"/>
		<path d="M375.359,109.167l2.666,7.084l2.659-7.084h2.076v9.242h-1.6v-3.047l0.158-4.075l-2.729,7.122h-1.149l-2.724-7.116
			l0.159,4.069v3.047h-1.6v-9.242H375.359z"/>
	</g>
</g>
</svg>
