<?xml version="1.0" standalone="no"?>
<!DOCTYPE svg PUBLIC "-//W3C//DTD SVG 20010904//EN"
 "http://www.w3.org/TR/2001/REC-SVG-20010904/DTD/svg10.dtd">
<svg version="1.0" xmlns="http://www.w3.org/2000/svg"
 width="461.000000pt" height="461.000000pt" viewBox="0 0 461.000000 461.000000"
 preserveAspectRatio="xMidYMid meet">
<metadata>
Created by potrace 1.11, written by Peter Selinger 2001-2013
</metadata>
<g transform="translate(0.000000,461.000000) scale(0.100000,-0.100000)"
fill="#000000" stroke="none">
<path d="M1990 4594 c-755 -102 -1420 -583 -1756 -1269 -163 -333 -233 -639
-234 -1012 0 -377 70 -684 234 -1018 232 -470 595 -831 1066 -1059 240 -116
475 -185 735 -217 129 -15 413 -15 535 0 733 95 1355 504 1724 1133 434 741
412 1684 -56 2405 -235 362 -536 629 -923 819 -236 115 -468 186 -718 219
-147 19 -462 18 -607 -1z m916 -1775 c171 -32 292 -150 339 -334 19 -76 20
-260 0 -343 -43 -180 -165 -305 -333 -341 -160 -34 -312 10 -417 120 -101 106
-141 233 -133 427 6 135 28 214 85 300 93 139 271 206 459 171z m970 0 c71
-13 172 -60 207 -97 l26 -27 -55 -67 -55 -68 -53 30 c-105 60 -220 61 -265 3
-51 -64 -12 -111 144 -173 156 -61 195 -83 243 -130 74 -74 94 -218 44 -316
-30 -59 -109 -128 -178 -154 -84 -33 -250 -34 -344 -1 -63 21 -190 98 -190
114 0 4 28 41 62 82 62 74 62 74 83 56 29 -27 114 -68 169 -82 132 -33 244 57
176 143 -12 16 -73 48 -167 89 -221 95 -286 165 -286 309 0 80 18 125 74 185
87 94 217 131 365 104z m-2925 -37 c214 -70 320 -274 289 -553 -16 -145 -54
-224 -145 -307 -98 -90 -187 -112 -451 -112 l-184 0 0 501 0 501 213 -4 c181
-4 222 -8 278 -26z m681 -319 l3 -348 25 -44 c37 -65 69 -85 138 -86 31 0 70
7 87 15 35 18 71 68 85 119 6 21 10 175 10 364 l0 327 110 0 110 0 0 -307 c-1
-334 -10 -422 -53 -516 -48 -105 -126 -164 -245 -188 -75 -14 -196 -7 -264 17
-61 20 -142 93 -174 155 -51 102 -56 140 -61 502 l-5 337 115 0 116 0 3 -347z"/>
<path d="M2785 2636 c-5 -3 -22 -7 -37 -10 -60 -14 -122 -91 -148 -184 -16
-61 -14 -217 5 -278 69 -231 319 -243 405 -19 19 49 23 79 23 165 -1 157 -39
252 -121 298 -37 20 -106 35 -127 28z"/>
<path d="M680 2310 l0 -323 78 5 c91 6 145 30 191 85 58 70 82 196 62 319 -26
152 -104 223 -253 232 l-78 5 0 -323z"/>
</g>
</svg>
