<svg id="Layer_1" data-name="Layer 1" xmlns="http://www.w3.org/2000/svg" viewBox="0 0 42 42"><defs><style>.cls-1{fill:#4285f4;}.cls-2{fill:#34a853;}.cls-3{fill:#fbbc05;}.cls-4{fill:#ea4335;}.cls-5{fill:none;}</style></defs><title>btn_google_light_normal_ios</title><g id="Google-Button"><g id="btn_google_light_normal" data-name="btn google light normal"><g id="logo_googleg_48dp" data-name="logo googleg 48dp"><path id="Shape" class="cls-1" d="M29.64,21.2a11,11,0,0,0-.16-1.84H21v3.49h4.84a4.12,4.12,0,0,1-1.79,2.71v2.26H27a8.78,8.78,0,0,0,2.68-6.62Z"/><path id="Shape-2" data-name="Shape" class="cls-2" d="M21,30a8.62,8.62,0,0,0,6-2.18l-2.91-2.26a5.43,5.43,0,0,1-3.05.86,5.37,5.37,0,0,1-5-3.71H13V25a9,9,0,0,0,8,5Z"/><path id="Shape-3" data-name="Shape" class="cls-3" d="M16,22.71a5.36,5.36,0,0,1,0-3.42V17H13A9,9,0,0,0,13,25l3-2.33Z"/><path id="Shape-4" data-name="Shape" class="cls-4" d="M21,15.58a4.83,4.83,0,0,1,3.44,1.35L27,14.34A8.65,8.65,0,0,0,21,12a9,9,0,0,0-8,5l3,2.33a5.37,5.37,0,0,1,5-3.71Z"/><path id="Shape-5" data-name="Shape" class="cls-5" d="M12,12H30V30H12Z"/></g></g></g></svg>