<?xml version="1.0" encoding="UTF-8"?>
<svg width="55px" height="55px" viewBox="0 0 55 55" version="1.1" xmlns="http://www.w3.org/2000/svg" xmlns:xlink="http://www.w3.org/1999/xlink">
    <title>Group 7</title>
    <g id="DAC-View" stroke="none" stroke-width="1" fill="none" fill-rule="evenodd">
        <g id="Edit-My-DAC" transform="translate(-73, -163)">
            <g id="Group-7" transform="translate(73, 163)">
                <rect id="Rectangle" fill="#00609F" opacity="0.416015625" x="0" y="0" width="54" height="54" rx="9"></rect>
                <circle id="Oval" fill="#FFFFFF" cx="45.5" cy="44.5" r="8.5"></circle>
                <g id="" transform="translate(8, 10)" fill="#FFFFFF" fill-rule="nonzero">
                    <path d="M14.000001,16 C18.4187517,16 22.000001,12.4181252 22.000001,8 C22.000001,3.58187485 18.4187517,0 14.000001,0 C9.58125114,0 6.00000095,3.58187485 6.00000095,8 C6.00000095,12.4181252 9.58125114,16 14.000001,16 Z M14.000001,3 C16.756875,3 19.000001,5.24312592 19.000001,8 C19.000001,10.7568741 16.756875,13 14.000001,13 C11.2431269,13 9.00000095,10.7562504 9.00000095,8 C9.00000095,5.24312592 11.2437506,3 14.000001,3 Z M17.1687517,19 L10.8312511,19 C4.84812546,19 0,23.8500004 0,29.8312492 C0,31.03125 0.970000267,32 2.16625023,32 L25.8312492,32 C27.03125,32 28,31.03125 28,29.8312492 C28,23.8500004 23.1499996,19 17.1687508,19 L17.1687517,19 Z M3.04437351,29 C3.46124935,25.0687504 6.79374886,22 10.8312492,22 L17.1687498,22 C21.2068739,22 24.4875002,25.0706253 24.9562502,29 L3.04437351,29 L3.04437351,29 Z M29.9437494,20 L25.328124,20 C28.1999998,22.3562508 29.999999,25.8812504 29.999999,29.8312492 C29.999999,30.6312504 29.7624998,31.3687496 29.374999,32 L37.999999,32 C39.1062498,32 39.999999,31.1000004 39.999999,29.9437504 C39.999999,24.4750004 35.5250006,20 29.9437494,20 Z M26.999999,16 C30.8687487,16 33.999999,12.8687496 33.999999,9 C33.999999,5.13125038 30.8687487,2 26.999999,2 C25.430625,2 23.9974985,2.53468704 22.829999,3.40687561 C23.5499983,4.78937531 23.999999,6.33749962 23.999999,8 C23.999999,10.2200012 23.2543745,12.25875 22.0256243,13.9193745 C23.2937498,15.1999998 25.0499983,16 26.999999,16 Z" id="Shape"></path>
                </g>
                <g id="" transform="translate(35.3125, 34.8125)" fill="#00928A" fill-rule="nonzero">
                    <path d="M19.3749538,9.6874769 C19.3749538,4.33722416 15.0377297,0 9.6874769,0 C4.33722416,0 0,4.33722416 0,9.6874769 C0,15.0377297 4.33722416,19.3749538 9.6874769,19.3749538 C15.0377297,19.3749538 19.3749538,15.0377297 19.3749538,9.6874769 Z M8.5669504,14.8169355 C8.3228485,15.0609611 7.92711275,15.0609611 7.68301086,14.8168974 L3.62052054,10.754407 C3.37649494,10.5103433 3.37649494,10.1145694 3.62052054,9.87050564 L4.50442194,8.98664239 C4.74848569,8.74257864 5.14425959,8.74257864 5.38832333,8.98664239 L8.12498063,11.7233378 L13.9866305,5.86168799 C14.2307324,5.61758609 14.6265063,5.61758609 14.8705319,5.86168799 L15.7544333,6.74555124 C15.9984589,6.98961499 15.9984589,7.38538889 15.7544333,7.62945264 L8.5669504,14.8169355 Z" id="Shape"></path>
                </g>
            </g>
        </g>
    </g>
</svg>