<?xml version="1.0" encoding="UTF-8"?>
<svg width="16px" height="16px" viewBox="0 0 16 16" version="1.1" xmlns="http://www.w3.org/2000/svg" xmlns:xlink="http://www.w3.org/1999/xlink">
    <title></title>
    <g id="DAC-View" stroke="none" stroke-width="1" fill="none" fill-rule="evenodd">
        <g id="DAC-view---Manage-DAC" transform="translate(-1129, -426)" fill="#4D72AA" fill-rule="nonzero">
            <g id="" transform="translate(1129, 426.1213)">
                <path d="M11.6593757,0.65899229 C12.5375009,-0.219664097 13.9625001,-0.219664097 14.8406253,0.65899229 L15.2187505,1.03774214 C16.0968747,1.91649199 16.0968747,3.34117937 15.2187505,4.21930456 L9.0562501,10.3849301 C8.78437567,10.6536794 8.45000029,10.8505549 8.08125067,10.9568048 L4.95625067,11.8505549 C4.69375038,11.9255548 4.41250038,11.8505549 4.21875048,11.6318049 C4.02812529,11.4661794 3.95312548,11.1849294 4.02812529,10.9224296 L4.92187548,7.79742956 C5.02812529,7.42867994 5.22500038,7.09430456 5.49375057,6.82242966 L11.6593757,0.65899229 Z M13.7531257,1.71961737 C13.4875007,1.42680502 13.0125003,1.42680502 12.7187505,1.71961737 L11.8093753,2.62867975 L13.2500005,4.06930494 L14.1593757,3.13180494 C14.4531255,2.86617994 14.4531255,2.39117956 14.1593757,2.09836721 L13.7531257,1.71961737 Z M6.36562538,8.20992994 L5.84062529,10.0380549 L7.66875029,9.51305437 C7.79375029,9.47868013 7.90312529,9.41305494 7.99375057,9.32243013 L12.1906257,5.12867975 L10.7500005,3.68805456 L6.55625057,7.88493013 C6.46562529,7.97555494 6.40000057,8.08492994 6.36562538,8.20992994 Z M6.25000048,1.87867975 C6.66562557,1.87867975 7,2.21461725 7,2.62867975 C7,3.04430437 6.66562557,3.37867975 6.25000048,3.37867975 L2.75000048,3.37867975 C2.05968809,3.37867975 1.5,3.93805456 1.5,4.62867975 L1.5,13.1286798 C1.5,13.8193049 2.05968809,14.3786798 2.75000048,14.3786798 L11.2500005,14.3786798 C11.9406257,14.3786798 12.5,13.8193049 12.5,13.1286798 L12.5,9.62867975 C12.5,9.21305513 12.8343759,8.87867975 13.2500005,8.87867975 C13.6656251,8.87867975 14,9.21305513 14,9.62867975 L14,13.1286798 C14,14.6474299 12.7687507,15.8786798 11.2500005,15.8786798 L2.75000048,15.8786798 C1.23125029,15.8786798 0,14.6474299 0,13.1286798 L0,4.62867975 C0,3.10992956 1.23125029,1.87867975 2.75000048,1.87867975 L6.25000048,1.87867975 Z" id="Shape"></path>
            </g>
        </g>
    </g>
</svg>