<?xml version="1.0" encoding="utf-8"?>
<!-- Generator: Adobe Illustrator 15.0.0, SVG Export Plug-In . SVG Version: 6.00 Build 0)  -->
<!DOCTYPE svg PUBLIC "-//W3C//DTD SVG 1.1//EN" "http://www.w3.org/Graphics/SVG/1.1/DTD/svg11.dtd">
<svg version="1.1" id="Capa_1" xmlns="http://www.w3.org/2000/svg" xmlns:xlink="http://www.w3.org/1999/xlink" x="0px" y="0px"
	 width="73px" height="73px" viewBox="0 0 73 73" enable-background="new 0 0 73 73" xml:space="preserve">
<g>
	<g>
		<circle fill="#2899BC" cx="36.5" cy="36.5" r="36.5"/>
		<circle fill="#016798" cx="36.5" cy="36.5" r="28.202"/>
	</g>
	<g>
		<rect x="31.109" y="46.057" fill="#FFFFFF" width="8.514" height="8.539"/>
		<path fill="#FFFFFF" d="M45.932,21.373c-2.115-1.979-5.205-2.969-9.267-2.969c-3.007,0-5.535,0.574-7.583,1.721
			c-2.049,1.146-3.425,2.494-4.13,4.041c-0.705,1.545-1.059,3.221-1.059,5.021h7.878c-0.086-0.408-0.128-0.766-0.128-1.072
			c0-1.223,0.375-2.232,1.122-3.031c0.748-0.801,1.878-1.199,3.391-1.199c1.393,0,2.549,0.43,3.467,1.287
			c0.917,0.859,1.376,1.994,1.376,3.404c0,1.512-0.539,2.676-1.618,3.49c-0.6,0.453-1.27,0.768-1.996,0.969l0.025,0.023
			c0,0-2.455,0.645-6.301,0.48v8.797h8.514v-3.809c2.633-0.08,4.854-0.961,6.652-2.662c1.887-1.785,2.831-4.137,2.831-7.061
			C49.106,25.83,48.048,23.354,45.932,21.373z"/>
	</g>
</g>
</svg>
