<svg width="35" height="40" viewBox="0 0 35 40" fill="none" xmlns="http://www.w3.org/2000/svg">
<path d="M3.77246 14.9501H0V21.2786V27.0119H3.77246V14.9501Z" fill="#009CA6"/>
<path d="M8.10156 14.9501V21.2786V27.0119H11.874V14.9501H8.10156Z" fill="#009CA6"/>
<path d="M16.207 14.9501V21.2786V27.0119H19.9795V14.9501H16.207Z" fill="#009CA6"/>
<path d="M0 12.6912H14.0413H28.0827V9.29395H0V12.6912Z" fill="#009CA6"/>
<path d="M14.0413 0L0 4.62846V8.13684L14.0413 3.50838L28.0827 8.13684V4.62846L14.0413 0Z" fill="#009CA6"/>
<path d="M28.0827 26.7437C28.008 26.9478 26.647 29.2708 17.6817 29.2708L10.401 29.2708C1.20531 29.3405 0.175086 30.524 0 30.65V34.1214C0.175086 33.9953 1.20531 32.8118 10.401 32.7421L17.6817 32.7421C26.647 32.7421 28.008 30.4191 28.0827 30.215V26.7437Z" fill="#009CA6"/>
<path d="M28.0827 32.5293C28.008 32.7334 26.647 35.0564 17.6817 35.0564H10.401C1.20531 35.1261 0.175086 36.3096 0 36.4357V39.907C0.175086 39.7809 1.20531 38.5975 10.401 38.5277L17.6817 38.5277C26.647 38.5277 28.008 36.2047 28.0827 36.0006V32.5293Z" fill="#009CA6"/>
<path d="M24.3086 14.9501V26.3912C27.4014 25.688 28.031 24.6038 28.0809 24.4672V14.9501H24.3086Z" fill="#009CA6"/>
</svg>
