<?xml version="1.0" encoding="utf-8"?>
<!-- Generator: Adobe Illustrator 15.0.0, SVG Export Plug-In . SVG Version: 6.00 Build 0)  -->
<!DOCTYPE svg PUBLIC "-//W3C//DTD SVG 1.1//EN" "http://www.w3.org/Graphics/SVG/1.1/DTD/svg11.dtd">
<svg version="1.1" id="Capa_1" xmlns="http://www.w3.org/2000/svg" xmlns:xlink="http://www.w3.org/1999/xlink" x="0px" y="0px"
	 width="16px" height="16px" viewBox="0 0 16 16" enable-background="new 0 0 16 16" xml:space="preserve">
<path fill="#F2F2F2" d="M8,0C3.58,0,0,3.581,0,8s3.58,8,8,8c4.418,0,8-3.581,8-8S12.418,0,8,0z M8.861,13H6.51v-2.357h2.352V13
	L8.861,13z M10.701,7.824c-0.497,0.471-1.11,0.714-1.84,0.736v1.051H6.51V7.182C7.572,7.227,8.251,7.05,8.251,7.05L8.245,7.043
	c0.198-0.056,0.385-0.142,0.55-0.268C9.094,6.55,9.242,6.228,9.242,5.811c0-0.391-0.126-0.704-0.381-0.94
	C8.607,4.634,8.289,4.514,7.904,4.514c-0.417,0-0.73,0.111-0.938,0.332c-0.205,0.22-0.308,0.499-0.308,0.838
	c0,0.085,0.011,0.183,0.035,0.296H4.516c0-0.498,0.098-0.959,0.292-1.388C5.003,4.165,5.384,3.793,5.95,3.476
	C6.516,3.158,7.214,3,8.045,3c1.123,0,1.977,0.273,2.561,0.82c0.584,0.548,0.879,1.231,0.879,2.055
	C11.482,6.681,11.223,7.331,10.701,7.824z"/>
</svg>
