<?xml version="1.0" encoding="utf-8"?>
<svg width="16px" height="16px" viewBox="450.709 233.278 25 25" xmlns="http://www.w3.org/2000/svg">
  <path fill-rule="evenodd" d="M 12.5 0 C 5.596 0 0 5.596 0 12.5 C 0 19.404 5.596 25 12.5 25 C 19.404 25 25 19.404 25 12.5 C 25 5.596 19.404 0 12.5 0 Z M 6.144 7.193 L 18.337 7.022 C 18.614 7.022 18.837 7.245 18.837 7.522 L 18.962 16.096 C 18.962 16.373 18.739 16.596 18.462 16.596 L 13.247 16.598 L 12.894 19.552 C 12.225 18.655 9.48 16.603 9.48 16.603 L 6.619 16.693 C 6.342 16.693 6.119 16.47 6.119 16.193 L 5.994 7.619 C 5.994 7.342 5.867 7.193 6.144 7.193 Z" transform="matrix(1, 0, 0, 1, 450.708679, 233.278046)" style="fill: rgb(242, 242, 242);"/>
</svg>