<?xml version="1.0" encoding="UTF-8"?>
<svg width="76px" height="47px" viewBox="0 0 76 47" version="1.1" xmlns="http://www.w3.org/2000/svg" xmlns:xlink="http://www.w3.org/1999/xlink">
    <path d="M52.59,13.08 L52.59,33.9 L48.95,33.9 L48.95,33.9 L48.95,24.51 L39.47,24.51 L39.47,33.9 L35.82,33.9 L35.82,13.08 L39.47,13.08 L39.47,21.36 L48.95,21.36 L48.95,13.08 L48.95,13.08 L52.59,13.08 Z M32.18,33.9 L32.18,33.9 L28.53,33.9 L28.53,13.08 L32.18,13.08 L32.18,33.9 Z M24.94,33.9 L24.94,33.9 L21.09,33.9 L11.61,18.59 L11.52,18.59 L11.52,33.9 L8.06,33.9 L8.06,33.9 L8.06,13.08 L8.06,13.08 L11.91,13.08 L11.91,13.08 L21.42,28.42 L21.48,28.42 L21.48,13.08 L24.95,13.08 L24.95,33.9 L24.94,33.9 Z M65.43,23.42 L52.55,0.15 L5.13,0.15 C2.76,0.15 0.84,2.07 0.84,4.44 L0.84,42.44 C0.84,44.81 2.76,46.72 5.13,46.72 L52.52,46.72 L65.43,23.42 Z" id="Shape" fill="#616265"></path>
    <path d="M55.74,46.72 L68.65,23.41 L55.78,0.15 L59,0.15 C60.76,0.15 62.91,1.42 63.76,2.96 L75.07,23.42 L63.72,43.92 C62.87,45.46 60.72,46.72 58.96,46.72 L55.74,46.72 Z" id="Path" fill="#20558A"></path>
</svg>
