<?xml version="1.0" encoding="utf-8"?>
<!-- Generator: Adobe Illustrator 22.1.0, SVG Export Plug-In . SVG Version: 6.00 Build 0)  -->
<svg version="1.1" id="Capa_1" xmlns="http://www.w3.org/2000/svg" xmlns:xlink="http://www.w3.org/1999/xlink" x="0px" y="0px"
	 viewBox="0 0 91.2 100.8" style="enable-background:new 0 0 91.2 100.8;" xml:space="preserve">
<style type="text/css">
	.st0{fill:#0160A0;}
</style>
<path class="st0" d="M0,1.7c22.2,0,44.5,0,66.7,0c2.3,0,4.5,0,6.8,0.1c-0.8,0.4-1.7,0.8-2.5,1.1C55.1,9.4,40,17.8,26.2,27.9
	C17,21.8,8.1,15,0,7.5V1.7z"/>
<path class="st0" d="M28.4,29.3C47.7,16.9,69,7.7,91.1,1.8c0,5.3,0,10.6,0,16c-15.3,4.4-30,10.7-43.9,18.4c-1.2,0.7-2.3,1.5-3.6,2
	c-1.4-0.5-2.7-1.3-4-2.1C35.9,34,32,31.8,28.4,29.3z"/>
<path class="st0" d="M0,8c7.5,7.8,15.7,14.8,24.3,21.3c-4.3,3.2-8.4,6.6-12.5,10c-4-3.2-8.1-6.5-11.8-10.1V8z"/>
<path class="st0" d="M47.3,40.3c14-7,28.7-12.6,43.8-16.6c0,5.3,0,10.6,0,15.9c-8.5,2.5-16.9,5.5-25,9.1
	C59.8,46.2,53.5,43.4,47.3,40.3z"/>
<path class="st0" d="M0,30.4l0-0.5c3.6,3.5,7.2,7,10.9,10.3C7.1,43.4,3.6,46.9,0,50.4V30.4z"/>
<path class="st0" d="M12.9,40.1c4.3-3.3,8.8-6.5,13.4-9.4c4.6,3.3,9.3,6.6,14.2,9.5c-4.8,3-9.6,6.2-14.2,9.5
	C21.7,46.7,17.2,43.5,12.9,40.1z"/>
<path class="st0" d="M3.1,48.2c2.8-2.5,5.8-4.9,8.7-7.2c4.1,3.5,8.2,6.9,12.5,10.2C20.2,54.3,16,57.6,12,61.1
	c-3.5-2.7-6.8-5.7-10.3-8.5c-0.5-0.5-0.9-1.1-1.4-1.6C1,49.9,2.1,49.1,3.1,48.2z"/>
<path class="st0" d="M28.5,51.2c4.9-3.3,10.1-6.1,15.2-8.9c5.5,3.2,11.2,6.2,16.9,9c-5.8,2.7-11.4,5.7-16.9,8.9
	C38.5,57.3,33.4,54.3,28.5,51.2z"/>
<path class="st0" d="M72.9,51.3c5.9-2.2,12.1-4,18.2-5.6c0,3.8,0,7.5,0,11.3C85,55.3,78.9,53.4,72.9,51.3z"/>
<path class="st0" d="M0,51.7c3.8,3.3,7.2,7,11,10.2c-3.8,3.3-7.4,6.8-11,10.3V51.7z"/>
<path class="st0" d="M13,61.9c4.3-3.3,8.8-6.4,13.3-9.4c4.6,3.4,9.4,6.5,14.2,9.6c-4.8,3-9.5,6.1-14.1,9.4
	C21.8,68.5,17.3,65.3,13,61.9z"/>
<path class="st0" d="M48.6,61.5c5.7-2.8,11.6-5.4,17.5-7.8c8.1,3.6,16.5,6.6,25,9.1c0,5.3,0,10.5,0,15.8
	c-14.8-3.9-29.2-9.3-42.9-16.2C47.4,62.2,48.2,61.6,48.6,61.5z"/>
<path class="st0" d="M0,72.9c3.8-3.6,7.9-6.9,11.9-10.1c4.1,3.5,8.2,6.9,12.5,10.1C15.8,79.4,7.5,86.4,0,94.2V72.9z"/>
<path class="st0" d="M28.5,72.9c5-3.1,10.1-6.1,15.3-8.8c14.9,8.7,30.8,15.7,47.4,20.5c0,5.3,0,10.6,0,15.8
	C69,94.5,47.7,85.3,28.5,72.9z"/>
<path class="st0" d="M0,94.7c8.2-7.6,17.1-14.3,26.4-20.4C41.1,85,57.2,93.9,74.2,100.5c-24.7,0.1-49.5,0-74.2,0V94.7z"/>
</svg>
